<svg width="110" height="110" viewBox="0 0 110 110" fill="none" xmlns="http://www.w3.org/2000/svg">
<path d="M55 0L102.631 27.5V82.5L55 110L7.3686 82.5L7.3686 27.5L55 0Z" fill="#F8C73B"></path>
<path d="M27.3984 54.7393H22.3984" stroke="#282828" stroke-width="0.7"></path>
<circle cx="20" cy="54.5" r="2.65" transform="rotate(180 20 54.5)" fill="white" stroke="#282828" stroke-width="0.7"></circle>
<path d="M54.3594 27.1094L54.3594 21.1094" stroke="#282828" stroke-width="0.7"></path>
<circle cx="54.3984" cy="20" r="2.65" transform="rotate(-90 54.3984 20)" fill="white" stroke="#282828" stroke-width="0.7"></circle>
<path d="M34.8828 34.8867L30.6402 30.6441" stroke="#282828" stroke-width="0.7"></path>
<circle cx="30.2422" cy="30.2427" r="2.65" transform="rotate(-135 30.2422 30.2427)" fill="white" stroke="#282828" stroke-width="0.7"></circle>
<path d="M28.9961 44.5001L24.2295 41.6514" stroke="#282828" stroke-width="0.7"></path>
<circle cx="23.0972" cy="41.0986" r="2.65" transform="rotate(-150 23.0972 41.0986)" fill="white" stroke="#282828" stroke-width="0.7"></circle>
<path d="M44.5977 28.7012L41.5977 23.505" stroke="#282828" stroke-width="0.7"></path>
<circle cx="41.5981" cy="23.0982" r="2.65" transform="rotate(-120 41.5981 23.0982)" fill="white" stroke="#282828" stroke-width="0.7"></circle>
<path d="M27 55C27 39.536 39.236 27 54.7 27" stroke="#282828" stroke-width="0.7"></path>
<path d="M83 55C83 70.464 70.464 83 55 83" stroke="#282828" stroke-width="0.7"></path>
<path d="M82.6289 55H87.6289" stroke="#282828" stroke-width="0.7"></path>
<circle cx="90.3594" cy="55" r="2.65" fill="white" stroke="#282828" stroke-width="0.7"></circle>
<path d="M55 82.6299L55 88.6299" stroke="#282828" stroke-width="0.7"></path>
<circle cx="55" cy="88.7393" r="2.65" transform="rotate(90 55 88.7393)" fill="white" stroke="#282828" stroke-width="0.7"></circle>
<path d="M75 75L79.2426 79.2426" stroke="#282828" stroke-width="0.7"></path>
<circle cx="79.2422" cy="79.2426" r="2.65" transform="rotate(45 79.2422 79.2426)" fill="white" stroke="#282828" stroke-width="0.7"></circle>
<path d="M81 65.7812L86.1962 68.7812" stroke="#282828" stroke-width="0.7"></path>
<circle cx="87.0981" cy="69.0981" r="2.65" transform="rotate(30 87.0981 69.0981)" fill="white" stroke="#282828" stroke-width="0.7"></circle>
<path d="M65.7812 81.0016L68.7813 86.1977" stroke="#282828" stroke-width="0.7"></path>
<circle cx="68.4019" cy="86.0965" r="2.65" transform="rotate(60 68.4019 86.0965)" fill="white" stroke="#282828" stroke-width="0.7"></circle>
<path d="M68.7713 56.3849H67.2088C66.8625 56.3884 66.5599 56.1595 66.479 55.8331C66.1613 54.6052 65.6589 53.4293 64.9874 52.3438C64.8073 52.0578 64.8544 51.6892 65.1012 51.4549L66.2061 50.3832C66.4373 50.1587 66.567 49.8544 66.567 49.5372C66.567 49.22 66.4373 48.9159 66.2061 48.6915L64.1373 46.6828C63.9058 46.4588 63.5922 46.3331 63.2651 46.3331C62.9379 46.3331 62.6243 46.4588 62.3925 46.6828L61.2872 47.754C61.0454 47.993 60.6653 48.0392 60.3704 47.8643C59.2504 47.2135 58.0379 46.7264 56.7714 46.4184C56.4348 46.3398 56.1984 46.0461 56.2023 45.7103V44.1962C56.202 43.8785 56.0713 43.5742 55.8395 43.3497C55.6075 43.1255 55.2934 42.9995 54.9657 43H52.0392C51.712 43.0005 51.3984 43.1265 51.1672 43.3507C50.936 43.5749 50.8058 43.879 50.8052 44.1962V45.7113C50.8088 46.0471 50.5727 46.3403 50.2361 46.4187C48.9696 46.7267 47.7568 47.2138 46.6371 47.8648C46.3422 48.0394 45.962 47.9938 45.7203 47.7544L44.6132 46.6828C44.3814 46.4588 44.0678 46.3331 43.7407 46.3331C43.4135 46.3331 43.0999 46.4588 42.8681 46.6828L40.7989 48.689C40.5676 48.9134 40.4379 49.2175 40.4379 49.5347C40.4379 49.8519 40.5676 50.156 40.7989 50.3807L41.9042 51.4524C42.1506 51.687 42.1976 52.0553 42.0176 52.3413C41.3463 53.4271 40.8436 54.6027 40.526 55.8306C40.4451 56.157 40.1423 56.3862 39.7959 56.3824H38.2338C37.9061 56.3827 37.5922 56.5094 37.3607 56.7341C37.1294 56.9591 36.9995 57.2636 37 57.5814V60.4187C37.0005 60.7359 37.1305 61.04 37.3617 61.2642C37.593 61.4884 37.9066 61.6146 38.2337 61.6151H39.7964C40.1428 61.6117 40.4452 61.8406 40.526 62.167C40.8437 63.3949 41.3464 64.5705 42.0176 65.6563C42.1974 65.9423 42.1504 66.3109 41.9038 66.5452L40.7989 67.6186C40.568 67.8433 40.4383 68.1474 40.4383 68.4646C40.4383 68.7818 40.568 69.0859 40.7989 69.3106L42.8677 71.3172C43.0992 71.5412 43.4128 71.6669 43.7399 71.6669C44.0671 71.6669 44.3807 71.5412 44.6125 71.3172L45.7178 70.246C45.9596 70.007 46.3397 69.9608 46.6346 70.1357C47.7546 70.7865 48.9671 71.2736 50.2336 71.5816C50.5702 71.66 50.8063 71.9536 50.8027 72.2892V73.8043C50.8033 74.1218 50.934 74.4261 51.1657 74.6503C51.3975 74.8745 51.7119 75.0002 52.0393 75H54.9658C55.293 74.9998 55.6066 74.8735 55.8378 74.6493C56.0693 74.4251 56.1995 74.121 56.1998 73.8038V72.289C56.1962 71.9532 56.4323 71.6598 56.7689 71.5814C58.0354 71.2733 59.2479 70.786 60.3679 70.1352C60.6628 69.9603 61.043 70.0062 61.2847 70.2456L62.39 71.3167C62.6215 71.5409 62.9354 71.6667 63.2626 71.6667C63.5897 71.6667 63.9034 71.5409 64.1348 71.3167L66.2061 69.311C66.4374 69.0866 66.5671 68.7825 66.5671 68.4653C66.5671 68.1481 66.4374 67.844 66.2061 67.6193L65.1008 66.5476C64.8544 66.313 64.8074 65.9447 64.9874 65.6587C65.6587 64.5729 66.1614 63.3973 66.479 62.1694C66.5599 61.843 66.8627 61.6138 67.2091 61.6176H68.7712C69.0989 61.6171 69.4128 61.4906 69.6441 61.2656C69.8756 61.0409 70.0052 60.7364 70.005 60.4186V57.5813C70.0047 57.2641 69.8745 56.96 69.6433 56.7358C69.412 56.5114 69.0984 56.3852 68.7713 56.3849ZM53.5022 50.1018C51.0682 50.1018 48.7338 51.0393 47.0127 52.708C45.2915 54.3766 44.3246 56.6401 44.3246 58.9999C44.3246 61.3598 45.2916 63.6232 47.0127 65.2919C48.7337 66.9606 51.0682 67.8981 53.5022 67.8981C55.9362 67.8981 58.2707 66.9605 59.9918 65.2919C61.7129 63.6233 62.6798 61.3598 62.6798 58.9999C62.677 56.6408 61.7093 54.3792 59.9887 52.711C58.2682 51.0428 55.9354 50.1045 53.5022 50.1018ZM53.5022 66.9285C51.3333 66.9285 49.2533 66.0932 47.7194 64.6064C46.1859 63.1193 45.3243 61.1026 45.3243 58.9997C45.3243 56.8968 46.1859 54.8801 47.7194 53.393C49.2533 51.9061 51.3333 51.0708 53.5022 51.0708C55.6712 51.0708 57.7512 51.9061 59.285 53.393C60.8186 54.8801 61.6801 56.8968 61.6801 58.9997C61.6778 61.1019 60.8155 63.1173 59.2824 64.6039C57.7492 66.0903 55.6705 66.9263 53.5022 66.9285Z" fill="white"></path>
<path d="M68.7713 56.3849H67.2088C66.8625 56.3884 66.5599 56.1595 66.479 55.8331C66.1613 54.6052 65.6589 53.4293 64.9874 52.3438C64.8073 52.0578 64.8544 51.6892 65.1012 51.4549L66.2061 50.3832C66.4373 50.1587 66.567 49.8544 66.567 49.5372C66.567 49.22 66.4373 48.9159 66.2061 48.6915L64.1373 46.6828C63.9058 46.4588 63.5922 46.3331 63.2651 46.3331C62.9379 46.3331 62.6243 46.4588 62.3925 46.6828L61.2872 47.754C61.0454 47.993 60.6653 48.0392 60.3704 47.8643C59.2504 47.2135 58.0379 46.7264 56.7714 46.4184C56.4348 46.3398 56.1984 46.0461 56.2023 45.7103V44.1962C56.202 43.8785 56.0713 43.5742 55.8395 43.3497C55.6075 43.1255 55.2934 42.9995 54.9657 43H52.0392C51.712 43.0005 51.3984 43.1265 51.1672 43.3507C50.936 43.5749 50.8058 43.879 50.8052 44.1962V45.7113C50.8088 46.0471 50.5727 46.3403 50.2361 46.4187C48.9696 46.7267 47.7568 47.2138 46.6371 47.8648C46.3422 48.0394 45.962 47.9938 45.7203 47.7544L44.6132 46.6828C44.3814 46.4588 44.0678 46.3331 43.7407 46.3331C43.4135 46.3331 43.0999 46.4588 42.8681 46.6828L40.7989 48.689C40.5676 48.9134 40.4379 49.2175 40.4379 49.5347C40.4379 49.8519 40.5676 50.156 40.7989 50.3807L41.9042 51.4524C42.1506 51.687 42.1976 52.0553 42.0176 52.3413C41.3463 53.4271 40.8436 54.6027 40.526 55.8306C40.4451 56.157 40.1423 56.3862 39.7959 56.3824H38.2338C37.9061 56.3827 37.5922 56.5094 37.3607 56.7341C37.1294 56.9591 36.9995 57.2636 37 57.5814V60.4187C37.0005 60.7359 37.1305 61.04 37.3617 61.2642C37.593 61.4884 37.9066 61.6146 38.2337 61.6151H39.7964C40.1428 61.6117 40.4452 61.8406 40.526 62.167C40.8437 63.3949 41.3464 64.5705 42.0176 65.6563C42.1974 65.9423 42.1504 66.3109 41.9038 66.5452L40.7989 67.6186C40.568 67.8433 40.4383 68.1474 40.4383 68.4646C40.4383 68.7818 40.568 69.0859 40.7989 69.3106L42.8677 71.3172C43.0992 71.5412 43.4128 71.6669 43.7399 71.6669C44.0671 71.6669 44.3807 71.5412 44.6125 71.3172L45.7178 70.246C45.9596 70.007 46.3397 69.9608 46.6346 70.1357C47.7546 70.7865 48.9671 71.2736 50.2336 71.5816C50.5702 71.66 50.8063 71.9536 50.8027 72.2892V73.8043C50.8033 74.1218 50.934 74.4261 51.1657 74.6503C51.3975 74.8745 51.7119 75.0002 52.0393 75H54.9658C55.293 74.9998 55.6066 74.8735 55.8378 74.6493C56.0693 74.4251 56.1995 74.121 56.1998 73.8038V72.289C56.1962 71.9532 56.4323 71.6598 56.7689 71.5814C58.0354 71.2733 59.2479 70.786 60.3679 70.1352C60.6628 69.9603 61.043 70.0062 61.2847 70.2456L62.39 71.3167C62.6215 71.5409 62.9354 71.6667 63.2626 71.6667C63.5897 71.6667 63.9034 71.5409 64.1348 71.3167L66.2061 69.311C66.4374 69.0866 66.5671 68.7825 66.5671 68.4653C66.5671 68.1481 66.4374 67.844 66.2061 67.6193L65.1008 66.5476C64.8544 66.313 64.8074 65.9447 64.9874 65.6587C65.6587 64.5729 66.1614 63.3973 66.479 62.1694C66.5599 61.843 66.8627 61.6138 67.2091 61.6176H68.7712C69.0989 61.6171 69.4128 61.4906 69.6441 61.2656C69.8756 61.0409 70.0052 60.7364 70.005 60.4186V57.5813C70.0047 57.2641 69.8745 56.96 69.6433 56.7358C69.412 56.5114 69.0984 56.3852 68.7713 56.3849ZM69.0048 60.4187C69.003 60.5432 68.8997 60.6436 68.7713 60.6451H67.2091C66.8185 60.6446 66.4386 60.7711 66.1306 61.0042C65.8224 61.2371 65.6036 61.5635 65.509 61.9314C65.2148 63.0668 64.75 64.1541 64.1295 65.1583C63.9284 65.4832 63.845 65.8639 63.8931 66.2399C63.9409 66.6156 64.1172 66.9653 64.3937 67.233L65.499 68.3046C65.5883 68.3937 65.5883 68.5356 65.499 68.6246L63.4298 70.6313C63.3377 70.7178 63.1917 70.7178 63.0996 70.6313L61.994 69.5601C61.7179 69.292 61.3572 69.1211 60.9697 69.0745C60.5819 69.0281 60.1892 69.1087 59.8541 69.3036C58.8184 69.9056 57.6969 70.3562 56.5258 70.6412C56.1467 70.7329 55.8101 70.9452 55.5699 71.2439C55.3297 71.5425 55.1992 71.9105 55.1997 72.2893V73.8044C55.1979 73.9289 55.0941 74.0293 54.9657 74.0308H52.0392C51.9108 74.0293 51.8072 73.9289 51.8056 73.8044V72.289C51.8059 71.91 51.6757 71.542 51.4352 71.2433C51.1948 70.9447 50.8581 70.7327 50.479 70.6409C49.3079 70.3557 48.1865 69.905 47.1507 69.3034C46.8156 69.1084 46.423 69.0278 46.0354 69.0745C45.6476 69.1208 45.2869 69.2917 45.0109 69.5596L43.9055 70.6313C43.8137 70.7178 43.6674 70.7178 43.5756 70.6313L41.5059 68.625C41.4158 68.536 41.4158 68.3939 41.5059 68.3048L42.6107 67.2329C42.8872 66.9653 43.0635 66.6156 43.1113 66.2396C43.1591 65.8636 43.076 65.4829 42.8747 65.1582C42.2541 64.154 41.7896 63.0667 41.4956 61.9313C41.4009 61.5637 41.182 61.2373 40.874 61.0042C40.566 60.7713 40.1864 60.6448 39.7957 60.6451H38.2336C38.1052 60.6436 38.0015 60.5431 37.9998 60.4186V57.5813C38.0015 57.4568 38.1052 57.3561 38.2336 57.3543H39.7957C40.1864 57.3548 40.566 57.2286 40.8742 56.9955C41.1822 56.7626 41.4012 56.4362 41.4958 56.0686C41.79 54.9332 42.2548 53.8459 42.8754 52.8417C43.0764 52.5168 43.1598 52.1361 43.1118 51.7601C43.0639 51.3843 42.8877 51.0346 42.6111 50.767L41.5058 49.6953C41.4165 49.6063 41.4165 49.4644 41.5058 49.3754L43.5753 47.3689C43.6674 47.2823 43.8132 47.2823 43.9053 47.3689L45.0109 48.4398C45.2869 48.7079 45.6476 48.8788 46.0354 48.9252C46.4232 48.9715 46.8159 48.8909 47.1507 48.6957C48.1865 48.0943 49.3079 47.6437 50.479 47.3587C50.8581 47.2669 51.1948 47.0546 51.4352 46.756C51.6754 46.4574 51.8059 46.0893 51.8057 45.7106V44.196C51.8072 44.0715 51.9108 43.971 52.0392 43.9693H54.9657C55.0941 43.971 55.1979 44.0715 55.1997 44.196V45.7106C55.1992 46.0893 55.3294 46.4574 55.5699 46.7562C55.8101 47.0548 56.1467 47.2671 56.5258 47.3589C57.6969 47.6441 58.8184 48.0948 59.8541 48.6964C60.1892 48.8914 60.5819 48.9722 60.9697 48.9256C61.3572 48.8792 61.7179 48.7083 61.994 48.4402L63.0993 47.3686C63.1911 47.282 63.3375 47.282 63.4293 47.3686L65.4988 49.375C65.5881 49.4643 65.5881 49.6057 65.4988 49.695L64.3942 50.7669C64.1177 51.0345 63.9415 51.3842 63.8936 51.7603C63.8458 52.1363 63.9289 52.517 64.1303 52.8416C64.7508 53.8458 65.2154 54.9331 65.5093 56.0685C65.604 56.4361 65.823 56.7625 66.1309 56.9954C66.4389 57.2283 66.8185 57.3548 67.2092 57.3543H68.7719C68.9003 57.356 69.0039 57.4567 69.0054 57.5812L69.0048 60.4187ZM53.5022 50.1018C51.0682 50.1018 48.7338 51.0393 47.0127 52.708C45.2915 54.3766 44.5 56.6401 44.5 59C44.5 61.3599 45.2916 63.6232 47.0127 65.2919C48.7337 66.9606 51.0682 67.8981 53.5022 67.8981C55.9362 67.8981 58.2707 66.9605 59.9918 65.2919C61.7129 63.6233 62.6798 61.3598 62.6798 58.9999C62.677 56.6408 61.7093 54.3792 59.9887 52.711C58.2682 51.0428 55.9354 50.1045 53.5022 50.1018ZM53.5022 66.9285C51.3333 66.9285 49.2533 66.0932 47.7194 64.6064C46.1859 63.1193 45.3243 61.1026 45.3243 58.9997C45.3243 56.8968 46.1859 54.8801 47.7194 53.393C49.2533 51.9061 51.3333 51.0708 53.5022 51.0708C55.6712 51.0708 57.7512 51.9061 59.285 53.393C60.8186 54.8801 61.6801 56.8968 61.6801 58.9997C61.6778 61.1018 60.8155 63.1173 59.2824 64.6039C57.7492 66.0903 55.6705 66.9263 53.5022 66.9285Z" fill="#282828"></path>
<path d="M69.0051 60.4494C69.0033 60.5739 68.8999 60.6743 68.7715 60.6758H67.2093C66.8187 60.6753 66.4388 60.8018 66.1308 61.035C65.8226 61.2678 65.6039 61.5942 65.5092 61.9621C65.2151 63.0975 64.7502 64.1848 64.1297 65.189C63.9286 65.5139 63.8452 65.8946 63.8933 66.2706C63.9412 66.6463 64.1174 66.9961 64.3939 67.2637L65.4993 68.3354C65.5886 68.4244 65.5886 68.5663 65.4993 68.6553L63.43 70.662C63.338 70.7485 63.1919 70.7485 63.0998 70.662L61.9942 69.5908C61.7182 69.3227 61.3575 69.1518 60.9699 69.1052C60.5821 69.0588 60.1895 69.1394 59.8544 69.3344C58.8186 69.9363 57.6972 70.3869 56.5261 70.6719C56.147 70.7637 55.8103 70.976 55.5701 71.2746C55.3299 71.5732 55.1994 71.9412 55.2 72.32V73.8351C55.1982 73.9596 55.0943 74.06 54.9659 74.0615H52.0394C51.911 74.06 51.8074 73.9596 51.8059 73.8351V72.3197C51.8061 71.9407 51.6759 71.5727 51.4355 71.2741C51.195 70.9755 50.8584 70.7634 50.4793 70.6716C49.3082 70.3864 48.1867 69.9358 47.151 69.3341C46.8159 69.1392 46.4232 69.0586 46.0357 69.1052C45.6479 69.1516 45.2872 69.3224 45.0111 69.5903L43.9058 70.662C43.814 70.7485 43.6676 70.7485 43.5758 70.662L41.5061 68.6558C41.4161 68.5667 41.4161 68.4246 41.5061 68.3356L42.6109 67.2636C42.8874 66.996 43.0637 66.6463 43.1115 66.2703C43.1594 65.8943 43.0762 65.5136 42.8749 65.1889C42.2543 64.1848 41.7898 63.0974 41.4958 61.962C41.4012 61.5944 41.1822 61.268 40.8742 61.0349C40.5662 60.802 40.1866 60.6755 39.796 60.6758H38.2338C38.1054 60.6743 38.0018 60.5738 38 60.4493V57.612C38.0018 57.4875 38.1054 57.3868 38.2338 57.3851H39.796C40.1866 57.3855 40.5662 57.2593 40.8745 57.0262C41.1825 56.7933 41.4014 56.4669 41.4961 56.0993C41.7903 54.9639 42.2551 53.8766 42.8756 52.8724C43.0767 52.5475 43.1601 52.1668 43.112 51.7908C43.0642 51.415 42.8879 51.0653 42.6114 50.7977L41.506 49.726C41.4168 49.637 41.4168 49.4951 41.506 49.4061L43.5755 47.3996C43.6676 47.313 43.8134 47.313 43.9055 47.3996L45.0111 48.4705C45.2872 48.7386 45.6478 48.9095 46.0357 48.9559C46.4235 49.0023 46.8161 48.9217 47.151 48.7265C48.1867 48.125 49.3082 47.6744 50.4793 47.3894C50.8584 47.2976 51.195 47.0853 51.4355 46.7867C51.6757 46.4881 51.8062 46.12 51.8059 45.7413V44.2267C51.8074 44.1022 51.911 44.0017 52.0394 44H54.9659C55.0943 44.0017 55.1982 44.1022 55.2 44.2267V45.7413C55.1995 46.12 55.3297 46.4881 55.5701 46.787C55.8103 47.0856 56.147 47.2979 56.5261 47.3896C57.6972 47.6749 58.8186 48.1255 59.8544 48.7272C60.1895 48.9221 60.5821 49.003 60.9699 48.9563C61.3575 48.91 61.7182 48.7391 61.9942 48.471L63.0995 47.3993C63.1914 47.3127 63.3377 47.3127 63.4295 47.3993L65.499 49.4058C65.5883 49.495 65.5883 49.6364 65.499 49.7257L64.3945 50.7976C64.118 51.0653 63.9417 51.415 63.8939 51.791C63.846 52.167 63.9292 52.5477 64.1305 52.8723C64.7511 53.8765 65.2156 54.9638 65.5096 56.0993C65.6042 56.4668 65.8232 56.7932 66.1312 57.0261C66.4392 57.259 66.8188 57.3855 67.2094 57.385H68.7721C68.9005 57.3867 69.0041 57.4874 69.0057 57.6119L69.0051 60.4494Z" fill="white" stroke="white" stroke-width="0.6"></path>
<path d="M61.6492 58.4502C61.6492 63.103 58.0318 66.8502 53.5992 66.8502C49.1667 66.8502 45.5492 63.103 45.5492 58.4502C45.5492 53.7974 49.1667 50.0502 53.5992 50.0502C58.0318 50.0502 61.6492 53.7974 61.6492 58.4502Z" fill="#F8C73B" stroke="#282828" stroke-width="0.7"></path>
<rect x="36" y="42" width="37" height="16" fill="#F8C73B"></rect>
<rect x="37.35" y="53.35" width="32.3" height="2.3" rx="0.65" fill="white" stroke="#282828" stroke-width="0.7"></rect>
<rect x="55.65" y="39.309" width="10.9458" height="4.3" rx="0.65" transform="rotate(90 55.65 39.309)" fill="white" stroke="#282828" stroke-width="0.7"></rect>
<rect x="41.65" y="47.35" width="3.3" height="4.3" rx="0.65" transform="rotate(90 41.65 47.35)" fill="white" stroke="#282828" stroke-width="0.7"></rect>
<rect x="62.65" y="35.725" width="14.5292" height="4.3" rx="0.65" transform="rotate(90 62.65 35.725)" fill="white" stroke="#282828" stroke-width="0.7"></rect>
<rect x="48.65" y="43.35" width="7.3" height="4.3" rx="0.65" transform="rotate(90 48.65 43.35)" fill="white" stroke="#282828" stroke-width="0.7"></rect>
<rect x="69.65" y="30.35" width="19.9042" height="4.3" rx="0.65" transform="rotate(90 69.65 30.35)" fill="white" stroke="#282828" stroke-width="0.7"></rect>
<line x1="62" y1="58.3502" x2="70" y2="58.3502" stroke="#282828" stroke-width="0.7"></line>
<line x1="37" y1="58.3502" x2="45.3" y2="58.3502" stroke="#282828" stroke-width="0.7"></line>
</svg>
