<svg width="110" height="110" viewBox="0 0 110 110" fill="none" xmlns="http://www.w3.org/2000/svg">
<path d="M55 0L102.631 27.5V82.5L55 110L7.3686 82.5L7.3686 27.5L55 0Z" fill="white"></path>
<path d="M72 36.5H65V34H74C75.1046 34 76 34.8954 76 36V54.5C76 55.0523 76.4477 55.5 77 55.5H85.5V58H77C76.4477 58 76 58.4477 76 59V77.5C76 78.6046 75.1046 79.5 74 79.5H65V77H72C72.5523 77 73 76.5523 73 76V59C73 58.4477 72.5523 58 72 58H65V55.5H72C72.5523 55.5 73 55.0523 73 54.5V37.5C73 36.9477 72.5523 36.5 72 36.5Z" fill="#F8C73B" stroke="#282828" stroke-width="0.7" stroke-linecap="round"></path>
<path d="M30.5 36.5H37.5V34H28.5C27.3954 34 26.5 34.8954 26.5 36V54.5C26.5 55.0523 26.0523 55.5 25.5 55.5H17V58H25.5C26.0523 58 26.5 58.4477 26.5 59V77.5C26.5 78.6046 27.3954 79.5 28.5 79.5H37.5V77H30.5C29.9477 77 29.5 76.5523 29.5 76V59C29.5 58.4477 29.9477 58 30.5 58H37.5V55.5H30.5C29.9477 55.5 29.5 55.0523 29.5 54.5V37.5C29.5 36.9477 29.9477 36.5 30.5 36.5Z" fill="#F8C73B" stroke="#282828" stroke-width="0.7" stroke-linecap="round"></path>
<path d="M91.7855 55.9893C92.1161 56.2495 92.1161 56.7505 91.7855 57.0107L86.1521 61.4459C85.7257 61.7816 85.1 61.4778 85.1 60.9352L85.1 52.0648C85.1 51.5222 85.7257 51.2184 86.1521 51.5541L91.7855 55.9893Z" fill="#F8C73B" stroke="#282828" stroke-width="0.7"></path>
<path d="M41.7855 55.9893C42.1161 56.2495 42.1161 56.7505 41.7855 57.0107L36.1521 61.4459C35.7257 61.7816 35.1 61.4778 35.1 60.9352L35.1 52.0648C35.1 51.5222 35.7257 51.2184 36.1521 51.5541L41.7855 55.9893Z" fill="#F8C73B" stroke="#282828" stroke-width="0.7"></path>
<path d="M41.7855 77.9893C42.1161 78.2495 42.1161 78.7505 41.7855 79.0107L36.1521 83.4459C35.7257 83.7816 35.1 83.4778 35.1 82.9352L35.1 74.0648C35.1 73.5222 35.7257 73.2184 36.1521 73.5541L41.7855 77.9893Z" fill="#F8C73B" stroke="#282828" stroke-width="0.7"></path>
<path d="M41.7855 34.9893C42.1161 35.2495 42.1161 35.7505 41.7855 36.0107L36.1521 40.4459C35.7257 40.7816 35.1 40.4778 35.1 39.9352L35.1 31.0648C35.1 30.5222 35.7257 30.2184 36.1521 30.5541L41.7855 34.9893Z" fill="#F8C73B" stroke="#282828" stroke-width="0.7"></path>
<rect x="44.35" y="24.35" width="21.3" height="17.3" rx="3.65" fill="#F8C73B" stroke="#282828" stroke-width="0.7"></rect>
<rect x="44.35" y="24.35" width="21.3" height="8.3" rx="3.65" stroke="#282828" stroke-width="0.7"></rect>
<rect x="50" y="36" width="1.99894" height="2" fill="#282828"></rect>
<rect x="58" y="36" width="1.99894" height="2" fill="#282828"></rect>
<rect x="54" y="36" width="1.99894" height="2" fill="#282828"></rect>
<rect x="44.35" y="46.35" width="21.3" height="17.3" rx="3.65" fill="#F8C73B" stroke="#282828" stroke-width="0.7"></rect>
<rect x="44.35" y="46.35" width="21.3" height="8.3" rx="3.65" stroke="#282828" stroke-width="0.7"></rect>
<rect x="50" y="58" width="1.99894" height="2" fill="#282828"></rect>
<rect x="58" y="58" width="1.99894" height="2" fill="#282828"></rect>
<rect x="54" y="58" width="1.99894" height="2" fill="#282828"></rect>
<rect x="44.35" y="68.35" width="21.3" height="17.3" rx="3.65" fill="#F8C73B" stroke="#282828" stroke-width="0.7"></rect>
<rect x="44.35" y="68.35" width="21.3" height="8.3" rx="3.65" stroke="#282828" stroke-width="0.7"></rect>
<rect x="50" y="80" width="1.99894" height="2" fill="#282828"></rect>
<rect x="58" y="80" width="1.99894" height="2" fill="#282828"></rect>
<rect x="54" y="80" width="1.99894" height="2" fill="#282828"></rect>
</svg>
