<svg width="32" height="32" fill="none" xmlns="http://www.w3.org/2000/svg">
  <path d="m9.789 13.446 6.215-6.212 6.217 6.217 3.614-3.617L16.004 0 6.172 9.832l3.617 3.614ZM0 16.001l3.614-3.617 3.617 3.617-3.617 3.614L0 16.001Zm9.789 2.553 6.215 6.215 6.217-6.217 3.617 3.611-9.832 9.835-9.834-9.827 3.617-3.617Zm14.98-2.553 3.614-3.617L32 15.998l-3.617 3.62L24.769 16Z" fill="#F3BA2F"/>
  <path d="m19.672 15.998-3.668-3.67-2.712 2.713-.313.31-.642.642 3.667 3.665 3.668-3.657v-.003Z" fill="#F3BA2F"/>
</svg>
