<svg width="32" height="32" viewBox="0 0 32 32" fill="none" xmlns="http://www.w3.org/2000/svg">
<path d="M6.50391 3.99993V1.23193C6.71541 1.23193 14.6389 1.24393 18.4067 1.24393C20.4199 1.27193 22.1863 1.96393 23.5454 3.57993C25.1943 5.53193 25.3236 9.68393 22.1589 11.4359C22.1471 11.4479 21.9748 11.5559 21.8965 11.6079C22.4996 12.0079 23.1263 12.3159 23.6237 12.7839C26.8276 15.6959 25.7544 20.8799 21.6105 22.4159C20.6705 22.7679 19.6796 22.9559 18.6809 22.9759H6.53132V20.2119C8.59933 19.7039 9.61767 18.6359 9.65683 16.9399C9.72342 14.7479 9.00275 13.8559 6.50391 13.0399V10.6079C8.5445 10.1399 9.62942 9.01993 9.65683 7.36393C9.696 5.66793 8.67375 4.57193 6.50391 3.99993ZM12.7314 19.7999C14.6271 19.7999 16.4719 19.7719 18.5007 19.7719C20.2123 19.6799 21.3403 18.2479 21.3246 16.4599C21.3129 14.7919 20.134 13.4279 18.4615 13.3359C16.6168 13.2279 12.8098 13.2679 12.7471 13.2679C12.7314 15.4319 12.7314 17.6479 12.7314 19.7999ZM12.7314 10.4079C14.4861 10.4079 16.1859 10.4759 17.8701 10.3799C19.4642 10.2999 20.5648 9.07193 20.6705 7.49593C20.7606 5.98793 19.754 4.59593 18.1599 4.43593C16.3818 4.27593 14.5644 4.39593 12.7314 4.39593V10.4079Z" fill="#282828"></path>
<path d="M25.3624 27.8677V30.7677H6.62109V27.8677H25.3624Z" fill="#14A049"></path>
</svg>
