<svg width="32" height="32" fill="none" xmlns="http://www.w3.org/2000/svg">
  <path d="M6.504 4V1.232c.211 0 8.135.012 11.903.012 2.013.028 3.78.72 5.138 2.336 1.65 1.952 1.779 6.104-1.386 7.856-.012.012-.184.12-.262.172.603.4 1.23.708 1.727 1.176 3.204 2.912 2.13 8.096-2.014 9.632a8.86 8.86 0 0 1-2.93.56H6.532v-2.764c2.068-.508 3.087-1.576 3.126-3.272.066-2.192-.654-3.084-3.153-3.9v-2.432c2.04-.468 3.125-1.588 3.153-3.244C9.696 5.668 8.674 4.572 6.504 4Zm6.227 15.8c1.896 0 3.74-.028 5.77-.028 1.711-.092 2.84-1.524 2.824-3.312-.012-1.668-1.191-3.032-2.863-3.124-1.845-.108-5.652-.068-5.715-.068-.016 2.164-.016 4.38-.016 6.532Zm0-9.392c1.755 0 3.455.068 5.14-.028 1.593-.08 2.694-1.308 2.8-2.884.09-1.508-.917-2.9-2.511-3.06-1.778-.16-3.596-.04-5.429-.04v6.012Z" fill="#282828"/>
  <path d="M25.362 27.868v2.9H6.622v-2.9h18.74Z" fill="#14A049"/>
</svg>
