<svg width="40" height="40" viewBox="0 0 40 40" fill="none" xmlns="http://www.w3.org/2000/svg">
<path d="M20 40C31.0457 40 40 31.0457 40 20C40 8.95431 31.0457 0 20 0C8.95431 0 0 8.95431 0 20C0 31.0457 8.95431 40 20 40Z" fill="#0052FE"></path>
<path d="M26.898 21.3044C26.287 24.5421 23.4461 26.9903 20.0313 26.9903C16.1702 26.9903 13.041 23.8611 13.041 20C13.041 16.139 16.1702 13.0098 20.0313 13.0098C23.4461 13.0098 26.287 15.4593 26.898 18.6956H33.9514C33.2937 11.5859 27.3126 6.01953 20.0313 6.01953C12.3092 6.01953 6.05078 12.2793 6.05078 20C6.05078 27.7221 12.3106 33.9805 20.0313 33.9805C27.3126 33.9805 33.2937 28.4142 33.9514 21.3044H26.898Z" fill="white"></path>
</svg>
