<svg width="110" height="110" fill="none" xmlns="http://www.w3.org/2000/svg">
  <path d="m55 0 47.631 27.5v55L55 110 7.369 82.5v-55L55 0Z" fill="#fff"/>
  <rect x="23.308" y="34.3" width="64.394" height="42.4" rx="2.7" fill="#F8C73B" stroke="#282828" stroke-width=".6"/>
  <rect x="70.25" y="42.25" width="2.5" height="2.5" rx=".75" fill="#fff" stroke="#282828" stroke-width=".5"/>
  <rect x="70.25" y="54.25" width="2.5" height="2.5" rx=".75" fill="#fff" stroke="#282828" stroke-width=".5"/>
  <rect x="70.25" y="62.25" width="2.5" height="2.5" rx=".75" fill="#fff" stroke="#282828" stroke-width=".5"/>
  <rect x="70.25" y="38.25" width="2.5" height="2.5" rx=".75" fill="#fff" stroke="#282828" stroke-width=".5"/>
  <rect x="70.25" y="50.25" width="2.5" height="2.5" rx=".75" fill="#fff" stroke="#282828" stroke-width=".5"/>
  <rect x="75.32" y="42.25" width="9.512" height="2.5" rx=".75" fill="#fff" stroke="#282828" stroke-width=".5"/>
  <rect x="75.32" y="54.25" width="9.512" height="2.5" rx=".75" fill="#fff" stroke="#282828" stroke-width=".5"/>
  <rect x="75.32" y="62.25" width="9.512" height="2.5" rx=".75" fill="#fff" stroke="#282828" stroke-width=".5"/>
  <rect x="75.32" y="38.25" width="9.512" height="2.5" rx=".75" fill="#fff" stroke="#282828" stroke-width=".5"/>
  <rect x="75.32" y="50.25" width="9.512" height="2.5" rx=".75" fill="#fff" stroke="#282828" stroke-width=".5"/>
  <rect x="70.25" y="46.25" width="2.5" height="2.5" rx=".75" fill="#fff" stroke="#282828" stroke-width=".5"/>
  <rect x="70.25" y="58.25" width="2.5" height="2.5" rx=".75" fill="#fff" stroke="#282828" stroke-width=".5"/>
  <rect x="70.25" y="66.25" width="2.5" height="2.5" rx=".75" fill="#fff" stroke="#282828" stroke-width=".5"/>
  <rect x="70.25" y="70.25" width="2.5" height="2.5" rx=".75" fill="#fff" stroke="#282828" stroke-width=".5"/>
  <rect x="75.32" y="46.25" width="9.512" height="2.5" rx=".75" fill="#fff" stroke="#282828" stroke-width=".5"/>
  <rect x="75.32" y="58.25" width="9.512" height="2.5" rx=".75" fill="#fff" stroke="#282828" stroke-width=".5"/>
  <rect x="75.32" y="66.25" width="9.512" height="2.5" rx=".75" fill="#fff" stroke="#282828" stroke-width=".5"/>
  <rect x="75.32" y="70.25" width="9.512" height="2.5" rx=".75" fill="#fff" stroke="#282828" stroke-width=".5"/>
  <path d="M48.004 55.5v4m0 0 3.5 2m-3.5-2-3.5 2m2.5-5 1-1 1 1m2.059 3.5.316 1.378-1.379.316m-3.947-.157-1.407-.128.128-1.408" stroke="#282828" stroke-width=".5"/>
  <path d="M62.2 59a2.7 2.7 0 1 1-5.4 0 2.7 2.7 0 0 1 5.4 0Zm-7.9 6a2.7 2.7 0 0 1 2.7-2.7h4.999a2.7 2.7 0 0 1 2.7 2.7v3.7H54.3V65Zm-16.1-6a2.7 2.7 0 1 1-5.4 0 2.7 2.7 0 0 1 5.4 0Zm-7.9 6a2.7 2.7 0 0 1 2.7-2.7h4.999a2.7 2.7 0 0 1 2.7 2.7v3.7H30.3V65Zm20.439-23c0 1.49-1.21 2.7-2.704 2.7A2.702 2.702 0 0 1 45.33 42c0-1.49 1.21-2.7 2.704-2.7a2.702 2.702 0 0 1 2.704 2.7Zm-7.912 6a2.7 2.7 0 0 1 2.7-2.7h5.014a2.7 2.7 0 0 1 2.7 2.7v3.7H42.827V48Z" fill="#fff" stroke="#282828" stroke-width=".6"/>
  <path d="M36.312 38.91h-.9a.428.428 0 0 1-.421-.326 7.585 7.585 0 0 0-.86-2.062.423.423 0 0 1 .066-.525l.636-.634a.705.705 0 0 0 0-1l-1.192-1.187a.714.714 0 0 0-1.006 0l-.637.633a.43.43 0 0 1-.528.066 7.684 7.684 0 0 0-2.074-.855.426.426 0 0 1-.329-.418v-.895a.705.705 0 0 0-.209-.5.714.714 0 0 0-.503-.207h-1.687a.706.706 0 0 0-.711.707v.895a.426.426 0 0 1-.328.418 7.68 7.68 0 0 0-2.075.855.43.43 0 0 1-.528-.065l-.638-.634a.715.715 0 0 0-1.006 0l-1.192 1.186a.705.705 0 0 0 0 1l.637.633a.424.424 0 0 1 .065.526 7.59 7.59 0 0 0-.86 2.062.428.428 0 0 1-.42.326h-.9a.714.714 0 0 0-.712.708v1.677a.706.706 0 0 0 .711.707h.9c.2-.002.375.134.421.326a7.59 7.59 0 0 0 .86 2.063.424.424 0 0 1-.066.525l-.636.634a.706.706 0 0 0 0 1l1.192 1.186a.714.714 0 0 0 1.006 0l.637-.633a.43.43 0 0 1 .528-.065 7.684 7.684 0 0 0 2.074.854c.194.047.33.22.328.418v.896a.706.706 0 0 0 .713.706h1.687a.713.713 0 0 0 .711-.706v-.896a.426.426 0 0 1 .328-.418 7.689 7.689 0 0 0 2.075-.855.43.43 0 0 1 .528.066l.637.633a.714.714 0 0 0 1.006 0l1.193-1.186a.705.705 0 0 0 0-1l-.637-.633a.424.424 0 0 1-.065-.525 7.59 7.59 0 0 0 .86-2.062.428.428 0 0 1 .42-.326h.9a.714.714 0 0 0 .712-.709v-1.677a.713.713 0 0 0-.711-.707Zm-8.8-3.713a5.306 5.306 0 0 0-3.741 1.54 5.243 5.243 0 0 0-1.55 3.719c0 1.394.558 2.732 1.55 3.718a5.305 5.305 0 0 0 3.74 1.54 5.306 5.306 0 0 0 3.74-1.54 5.243 5.243 0 0 0 1.55-3.718 5.25 5.25 0 0 0-1.551-3.717 5.312 5.312 0 0 0-3.739-1.542Zm0 9.944a4.728 4.728 0 0 1-3.334-1.372 4.672 4.672 0 0 1-1.38-3.313c0-1.243.496-2.435 1.38-3.314a4.728 4.728 0 0 1 3.333-1.372c1.25 0 2.45.493 3.333 1.372a4.672 4.672 0 0 1 1.38 3.313 4.677 4.677 0 0 1-1.381 3.313 4.733 4.733 0 0 1-3.332 1.373Z" fill="#fff"/>
  <ellipse cx="27.553" cy="40.457" rx="5.049" ry="5.045" fill="#F8C73B"/>
  <path d="M36.312 38.91h-.9a.428.428 0 0 1-.421-.326 7.585 7.585 0 0 0-.86-2.062.423.423 0 0 1 .066-.525l.636-.634a.705.705 0 0 0 0-1l-1.192-1.187a.714.714 0 0 0-1.006 0l-.637.633a.43.43 0 0 1-.528.066 7.684 7.684 0 0 0-2.074-.855.426.426 0 0 1-.329-.418v-.895a.705.705 0 0 0-.209-.5.714.714 0 0 0-.503-.207h-1.687a.706.706 0 0 0-.711.707v.895a.426.426 0 0 1-.328.418 7.68 7.68 0 0 0-2.075.855.43.43 0 0 1-.528-.065l-.638-.634a.715.715 0 0 0-1.006 0l-1.192 1.186a.705.705 0 0 0 0 1l.637.633a.424.424 0 0 1 .065.526 7.59 7.59 0 0 0-.86 2.062.428.428 0 0 1-.42.326h-.9a.714.714 0 0 0-.712.708v1.677a.706.706 0 0 0 .711.707h.9c.2-.002.375.134.421.326a7.59 7.59 0 0 0 .86 2.063.424.424 0 0 1-.066.525l-.636.634a.706.706 0 0 0 0 1l1.192 1.186a.714.714 0 0 0 1.006 0l.637-.633a.43.43 0 0 1 .528-.065 7.684 7.684 0 0 0 2.074.854c.194.047.33.22.328.418v.896a.706.706 0 0 0 .713.706h1.687a.713.713 0 0 0 .711-.706v-.896a.426.426 0 0 1 .328-.418 7.689 7.689 0 0 0 2.075-.855.43.43 0 0 1 .528.066l.637.633a.714.714 0 0 0 1.006 0l1.193-1.186a.705.705 0 0 0 0-1l-.637-.633a.424.424 0 0 1-.065-.525 7.59 7.59 0 0 0 .86-2.062.428.428 0 0 1 .42-.326h.9a.714.714 0 0 0 .712-.709v-1.677a.713.713 0 0 0-.711-.707Zm.135 2.384a.136.136 0 0 1-.135.134h-.9a1.012 1.012 0 0 0-.98.76 7.03 7.03 0 0 1-.796 1.907.998.998 0 0 0 .153 1.226l.637.634a.135.135 0 0 1 0 .189l-1.193 1.186a.137.137 0 0 1-.19 0l-.637-.633a1.012 1.012 0 0 0-1.234-.152 7.11 7.11 0 0 1-1.918.79 1.01 1.01 0 0 0-.764.974v.896a.136.136 0 0 1-.135.134h-1.687a.136.136 0 0 1-.134-.134v-.896a1 1 0 0 0-.765-.974 7.12 7.12 0 0 1-1.918-.79 1.013 1.013 0 0 0-1.234.151l-.637.634a.137.137 0 0 1-.19 0l-1.193-1.186a.134.134 0 0 1 0-.19l.637-.633a1 1 0 0 0 .152-1.226 7.024 7.024 0 0 1-.795-1.907 1.003 1.003 0 0 0-.98-.76h-.9a.136.136 0 0 1-.135-.134v-1.677a.136.136 0 0 1 .135-.134h.9a1.013 1.013 0 0 0 .98-.76c.17-.67.438-1.313.795-1.907a.998.998 0 0 0-.152-1.226l-.637-.633a.135.135 0 0 1 0-.19l1.193-1.185a.137.137 0 0 1 .19 0l.637.633a1.011 1.011 0 0 0 1.233.151 7.117 7.117 0 0 1 1.919-.79 1.01 1.01 0 0 0 .765-.974v-.895c0-.074.06-.133.134-.134h1.687c.074 0 .134.06.135.134v.895a.999.999 0 0 0 .764.974 7.12 7.12 0 0 1 1.918.79 1.013 1.013 0 0 0 1.234-.15l.637-.634a.137.137 0 0 1 .19 0l1.193 1.185a.135.135 0 0 1 0 .19l-.637.633a1 1 0 0 0-.152 1.226c.358.594.625 1.236.795 1.907a1.003 1.003 0 0 0 .98.76h.9c.074.001.134.06.135.134v1.677Zm-8.936-6.097a5.306 5.306 0 0 0-3.74 1.54 5.243 5.243 0 0 0-1.55 3.719c0 1.394.558 2.732 1.55 3.718a5.305 5.305 0 0 0 3.74 1.54 5.306 5.306 0 0 0 3.74-1.54 5.243 5.243 0 0 0 1.55-3.718 5.25 5.25 0 0 0-1.551-3.717 5.312 5.312 0 0 0-3.739-1.542Zm0 9.944a4.728 4.728 0 0 1-3.333-1.372 4.672 4.672 0 0 1-1.38-3.313c0-1.243.496-2.435 1.38-3.314a4.728 4.728 0 0 1 3.333-1.372c1.25 0 2.45.493 3.333 1.372a4.672 4.672 0 0 1 1.38 3.313 4.677 4.677 0 0 1-1.381 3.313 4.733 4.733 0 0 1-3.332 1.373Z" fill="#282828"/>
</svg>
