<svg width="110" height="110" viewBox="0 0 110 110" fill="none" xmlns="http://www.w3.org/2000/svg">
<path d="M55 0L102.631 27.5V82.5L55 110L7.3686 82.5L7.3686 27.5L55 0Z" fill="white"></path>
<rect x="23.3078" y="34.3" width="64.394" height="42.4" rx="2.7" fill="#F8C73B" stroke="#282828" stroke-width="0.6"></rect>
<rect x="70.25" y="42.25" width="2.49972" height="2.5" rx="0.75" fill="white" stroke="#282828" stroke-width="0.5"></rect>
<rect x="70.25" y="54.25" width="2.49972" height="2.5" rx="0.75" fill="white" stroke="#282828" stroke-width="0.5"></rect>
<rect x="70.25" y="62.25" width="2.49972" height="2.5" rx="0.75" fill="white" stroke="#282828" stroke-width="0.5"></rect>
<rect x="70.25" y="38.25" width="2.49972" height="2.5" rx="0.75" fill="white" stroke="#282828" stroke-width="0.5"></rect>
<rect x="70.25" y="50.25" width="2.49972" height="2.5" rx="0.75" fill="white" stroke="#282828" stroke-width="0.5"></rect>
<rect x="75.3203" y="42.25" width="9.51209" height="2.5" rx="0.75" fill="white" stroke="#282828" stroke-width="0.5"></rect>
<rect x="75.3203" y="54.25" width="9.51209" height="2.5" rx="0.75" fill="white" stroke="#282828" stroke-width="0.5"></rect>
<rect x="75.3203" y="62.25" width="9.51209" height="2.5" rx="0.75" fill="white" stroke="#282828" stroke-width="0.5"></rect>
<rect x="75.3203" y="38.25" width="9.51209" height="2.5" rx="0.75" fill="white" stroke="#282828" stroke-width="0.5"></rect>
<rect x="75.3203" y="50.25" width="9.51209" height="2.5" rx="0.75" fill="white" stroke="#282828" stroke-width="0.5"></rect>
<rect x="70.25" y="46.25" width="2.49972" height="2.5" rx="0.75" fill="white" stroke="#282828" stroke-width="0.5"></rect>
<rect x="70.25" y="58.25" width="2.49972" height="2.5" rx="0.75" fill="white" stroke="#282828" stroke-width="0.5"></rect>
<rect x="70.25" y="66.25" width="2.49972" height="2.5" rx="0.75" fill="white" stroke="#282828" stroke-width="0.5"></rect>
<rect x="70.25" y="70.25" width="2.49972" height="2.5" rx="0.75" fill="white" stroke="#282828" stroke-width="0.5"></rect>
<rect x="75.3203" y="46.25" width="9.51209" height="2.5" rx="0.75" fill="white" stroke="#282828" stroke-width="0.5"></rect>
<rect x="75.3203" y="58.25" width="9.51209" height="2.5" rx="0.75" fill="white" stroke="#282828" stroke-width="0.5"></rect>
<rect x="75.3203" y="66.25" width="9.51209" height="2.5" rx="0.75" fill="white" stroke="#282828" stroke-width="0.5"></rect>
<rect x="75.3203" y="70.25" width="9.51209" height="2.5" rx="0.75" fill="white" stroke="#282828" stroke-width="0.5"></rect>
<path d="M48.0036 55.5V59.5M48.0036 59.5L51.5033 61.5M48.0036 59.5L44.5039 61.5" stroke="#282828" stroke-width="0.5"></path>
<path d="M47.0039 56.5L48.0038 55.5L49.0037 56.5" stroke="#282828" stroke-width="0.5"></path>
<path d="M51.063 59.9998L51.3788 61.3784L50.0004 61.6942" stroke="#282828" stroke-width="0.5"></path>
<path d="M46.0531 61.5374L44.6458 61.4086L44.7743 60.0011" stroke="#282828" stroke-width="0.5"></path>
<path d="M62.1994 59C62.1994 60.4912 60.9907 61.7 59.4997 61.7C58.0087 61.7 56.8 60.4912 56.8 59C56.8 57.5088 58.0087 56.3 59.4997 56.3C60.9907 56.3 62.1994 57.5088 62.1994 59Z" fill="white" stroke="#282828" stroke-width="0.6"></path>
<path d="M54.3 65C54.3 63.5088 55.5088 62.3 57 62.3H61.999C63.4901 62.3 64.699 63.5088 64.699 65V68.7H54.3V65Z" fill="white" stroke="#282828" stroke-width="0.6"></path>
<path d="M38.1994 59C38.1994 60.4912 36.9907 61.7 35.4997 61.7C34.0087 61.7 32.8 60.4912 32.8 59C32.8 57.5088 34.0087 56.3 35.4997 56.3C36.9907 56.3 38.1994 57.5088 38.1994 59Z" fill="white" stroke="#282828" stroke-width="0.6"></path>
<path d="M30.3 65C30.3 63.5088 31.5088 62.3 33 62.3H37.999C39.4901 62.3 40.699 63.5088 40.699 65V68.7H30.3V65Z" fill="white" stroke="#282828" stroke-width="0.6"></path>
<path d="M50.7385 42C50.7385 43.4908 49.5284 44.7 48.0349 44.7C46.5414 44.7 45.3313 43.4908 45.3313 42C45.3313 40.5092 46.5414 39.3 48.0349 39.3C49.5284 39.3 50.7385 40.5092 50.7385 42Z" fill="white" stroke="#282828" stroke-width="0.6"></path>
<path d="M42.8273 48C42.8273 46.5088 44.0362 45.3 45.5273 45.3H50.5406C52.0318 45.3 53.2406 46.5088 53.2406 48V51.7H42.8273V48Z" fill="white" stroke="#282828" stroke-width="0.6"></path>
<path d="M36.3119 38.9103H35.4114C35.2117 38.9123 35.0373 38.777 34.9907 38.5841C34.8076 37.8584 34.518 37.1636 34.131 36.522C34.0272 36.353 34.0543 36.1352 34.1966 35.9967L34.8334 35.3633C34.9667 35.2307 35.0414 35.0508 35.0414 34.8634C35.0414 34.6759 34.9667 34.4962 34.8334 34.3636L33.6411 33.1765C33.5076 33.0441 33.3269 32.9698 33.1383 32.9698C32.9497 32.9698 32.769 33.0441 32.6354 33.1765L31.9983 33.8095C31.859 33.9508 31.6399 33.9781 31.4699 33.8747C30.8244 33.4901 30.1256 33.2022 29.3956 33.0202C29.2016 32.9738 29.0653 32.8002 29.0675 32.6018V31.7069C29.0674 31.5192 28.9921 31.3393 28.8585 31.2067C28.7248 31.0742 28.5437 30.9997 28.3548 31H26.6681C26.4795 31.0003 26.2988 31.0748 26.1655 31.2073C26.0322 31.3398 25.9572 31.5195 25.9569 31.7069V32.6023C25.9589 32.8008 25.8229 32.974 25.6288 33.0204C24.8989 33.2024 24.1999 33.4903 23.5545 33.875C23.3845 33.9782 23.1654 33.9512 23.0261 33.8098L22.388 33.1764C22.2544 33.0441 22.0737 32.9698 21.8851 32.9698C21.6965 32.9698 21.5158 33.0441 21.3822 33.1764L20.1896 34.3621C20.0563 34.4947 19.9815 34.6744 19.9815 34.8619C19.9815 35.0494 20.0563 35.2291 20.1896 35.3619L20.8266 35.9952C20.9686 36.1339 20.9957 36.3515 20.892 36.5205C20.5051 37.1622 20.2154 37.857 20.0323 38.5827C19.9857 38.7756 19.8111 38.911 19.6115 38.9088H18.7111C18.5222 38.9089 18.3413 38.9838 18.2079 39.1166C18.0746 39.2496 17.9997 39.4296 18 39.6173V41.2942C18.0003 41.4816 18.0752 41.6613 18.2085 41.7938C18.3418 41.9263 18.5225 42.0009 18.7111 42.0012H19.6118C19.8114 41.9992 19.9857 42.1345 20.0323 42.3273C20.2154 43.053 20.5051 43.7478 20.892 44.3895C20.9956 44.5585 20.9685 44.7763 20.8264 44.9148L20.1896 45.5492C20.0565 45.682 19.9817 45.8617 19.9817 46.0491C19.9817 46.2366 20.0565 46.4163 20.1896 46.5491L21.3819 47.735C21.5154 47.8673 21.6961 47.9417 21.8847 47.9417C22.0732 47.9417 22.254 47.8673 22.3876 47.735L23.0247 47.1019C23.164 46.9606 23.3831 46.9334 23.5531 47.0367C24.1986 47.4213 24.8974 47.7092 25.6274 47.8912C25.8214 47.9375 25.9575 48.1111 25.9554 48.3094V49.2048C25.9557 49.3924 26.0311 49.5723 26.1647 49.7048C26.2982 49.8373 26.4794 49.9116 26.6682 49.9114H28.3549C28.5435 49.9113 28.7242 49.8367 28.8575 49.7042C28.9909 49.5717 29.066 49.392 29.0661 49.2045V48.3093C29.064 48.1108 29.2001 47.9374 29.3942 47.8911C30.1241 47.709 30.823 47.421 31.4685 47.0364C31.6385 46.9331 31.8576 46.9602 31.9969 47.1017L32.634 47.7347C32.7674 47.8672 32.9483 47.9415 33.1369 47.9415C33.3254 47.9415 33.5062 47.8672 33.6396 47.7347L34.8334 46.5494C34.9667 46.4167 35.0415 46.237 35.0415 46.0495C35.0415 45.8621 34.9667 45.6824 34.8334 45.5496L34.1964 44.9162C34.0544 44.7776 34.0272 44.5599 34.131 44.3909C34.5179 43.7492 34.8076 43.0545 34.9907 42.3288C35.0373 42.1359 35.2119 42.0005 35.4115 42.0027H36.3119C36.5008 42.0024 36.6817 41.9276 36.8149 41.7947C36.9484 41.6619 37.0231 41.4819 37.023 41.2941V39.6173C37.0228 39.4298 36.9478 39.2501 36.8145 39.1176C36.6812 38.985 36.5005 38.9104 36.3119 38.9103ZM27.5113 35.197C26.1085 35.197 24.763 35.7511 23.771 36.7372C22.779 37.7234 22.2217 39.061 22.2217 40.4557C22.2217 41.8503 22.779 43.1879 23.771 44.1741C24.7629 45.1603 26.1085 45.7143 27.5113 45.7143C28.9142 45.7143 30.2597 45.1603 31.2517 44.1741C32.2437 43.188 32.801 41.8503 32.801 40.4557C32.7994 39.0615 32.2416 37.7249 31.2499 36.739C30.2583 35.7532 28.9138 35.1987 27.5113 35.197ZM27.5113 45.1413C26.2612 45.1413 25.0624 44.6477 24.1783 43.769C23.2944 42.8901 22.7979 41.6983 22.7979 40.4555C22.7979 39.2127 23.2944 38.0209 24.1783 37.1421C25.0624 36.2634 26.2612 35.7697 27.5113 35.7697C28.7615 35.7697 29.9603 36.2634 30.8443 37.1421C31.7282 38.0209 32.2248 39.2127 32.2248 40.4555C32.2235 41.6979 31.7265 42.889 30.8429 43.7675C29.9591 44.6459 28.761 45.14 27.5113 45.1413Z" fill="white"></path>
<ellipse cx="27.5531" cy="40.4567" rx="5.04915" ry="5.04461" fill="#F8C73B"></ellipse>
<path d="M36.3119 38.9103H35.4114C35.2117 38.9123 35.0373 38.777 34.9907 38.5841C34.8076 37.8584 34.518 37.1636 34.131 36.522C34.0272 36.353 34.0543 36.1352 34.1966 35.9967L34.8334 35.3633C34.9667 35.2307 35.0414 35.0508 35.0414 34.8634C35.0414 34.6759 34.9667 34.4962 34.8334 34.3636L33.6411 33.1765C33.5076 33.0441 33.3269 32.9698 33.1383 32.9698C32.9497 32.9698 32.769 33.0441 32.6354 33.1765L31.9983 33.8095C31.859 33.9508 31.6399 33.9781 31.4699 33.8747C30.8244 33.4901 30.1256 33.2022 29.3956 33.0202C29.2016 32.9738 29.0653 32.8002 29.0675 32.6018V31.7069C29.0674 31.5192 28.9921 31.3393 28.8585 31.2067C28.7248 31.0742 28.5437 30.9997 28.3548 31H26.6681C26.4795 31.0003 26.2988 31.0748 26.1655 31.2073C26.0322 31.3398 25.9572 31.5195 25.9569 31.7069V32.6023C25.9589 32.8008 25.8229 32.974 25.6288 33.0204C24.8989 33.2024 24.1999 33.4903 23.5545 33.875C23.3845 33.9782 23.1654 33.9512 23.0261 33.8098L22.388 33.1764C22.2544 33.0441 22.0737 32.9698 21.8851 32.9698C21.6965 32.9698 21.5158 33.0441 21.3822 33.1764L20.1896 34.3621C20.0563 34.4947 19.9815 34.6744 19.9815 34.8619C19.9815 35.0494 20.0563 35.2291 20.1896 35.3619L20.8266 35.9952C20.9686 36.1339 20.9957 36.3515 20.892 36.5205C20.5051 37.1622 20.2154 37.857 20.0323 38.5827C19.9857 38.7756 19.8111 38.911 19.6115 38.9088H18.7111C18.5222 38.9089 18.3413 38.9838 18.2079 39.1166C18.0746 39.2496 17.9997 39.4296 18 39.6173V41.2942C18.0003 41.4816 18.0752 41.6613 18.2085 41.7938C18.3418 41.9263 18.5225 42.0009 18.7111 42.0012H19.6118C19.8114 41.9992 19.9857 42.1345 20.0323 42.3273C20.2154 43.053 20.5051 43.7478 20.892 44.3895C20.9956 44.5585 20.9685 44.7763 20.8264 44.9148L20.1896 45.5492C20.0565 45.682 19.9817 45.8617 19.9817 46.0491C19.9817 46.2366 20.0565 46.4163 20.1896 46.5491L21.3819 47.735C21.5154 47.8673 21.6961 47.9417 21.8847 47.9417C22.0732 47.9417 22.254 47.8673 22.3876 47.735L23.0247 47.1019C23.164 46.9606 23.3831 46.9334 23.5531 47.0367C24.1986 47.4213 24.8974 47.7092 25.6274 47.8912C25.8214 47.9375 25.9575 48.1111 25.9554 48.3094V49.2048C25.9557 49.3924 26.0311 49.5723 26.1647 49.7048C26.2982 49.8373 26.4794 49.9116 26.6682 49.9114H28.3549C28.5435 49.9113 28.7242 49.8367 28.8575 49.7042C28.9909 49.5717 29.066 49.392 29.0661 49.2045V48.3093C29.064 48.1108 29.2001 47.9374 29.3942 47.8911C30.1241 47.709 30.823 47.421 31.4685 47.0364C31.6385 46.9331 31.8576 46.9602 31.9969 47.1017L32.634 47.7347C32.7674 47.8672 32.9483 47.9415 33.1369 47.9415C33.3254 47.9415 33.5062 47.8672 33.6396 47.7347L34.8334 46.5494C34.9667 46.4167 35.0415 46.237 35.0415 46.0495C35.0415 45.8621 34.9667 45.6824 34.8334 45.5496L34.1964 44.9162C34.0544 44.7776 34.0272 44.5599 34.131 44.3909C34.5179 43.7492 34.8076 43.0545 34.9907 42.3288C35.0373 42.1359 35.2119 42.0005 35.4115 42.0027H36.3119C36.5008 42.0024 36.6817 41.9276 36.8149 41.7947C36.9484 41.6619 37.0231 41.4819 37.023 41.2941V39.6173C37.0228 39.4298 36.9478 39.2501 36.8145 39.1176C36.6812 38.985 36.5005 38.9104 36.3119 38.9103ZM36.4465 41.2941C36.4455 41.3677 36.3859 41.4271 36.3119 41.428H35.4115C35.1864 41.4277 34.9674 41.5024 34.7899 41.6402C34.6122 41.7778 34.4862 41.9707 34.4316 42.1881C34.2621 42.8591 33.9942 43.5017 33.6365 44.0952C33.5206 44.2872 33.4726 44.5122 33.5003 44.7344C33.5279 44.9564 33.6294 45.1631 33.7888 45.3213L34.4259 45.9546C34.4774 46.0072 34.4774 46.0911 34.4259 46.1437L33.2333 47.3296C33.1802 47.3808 33.096 47.3808 33.0429 47.3296L32.4057 46.6965C32.2466 46.5381 32.0387 46.4371 31.8153 46.4096C31.5918 46.3821 31.3655 46.4298 31.1724 46.545C30.5754 46.9007 29.929 47.167 29.254 47.3354C29.0355 47.3897 28.8415 47.5152 28.7031 47.6916C28.5646 47.8681 28.4894 48.0856 28.4897 48.3094V49.2048C28.4887 49.2784 28.4288 49.3378 28.3548 49.3387H26.6681C26.5941 49.3378 26.5344 49.2784 26.5335 49.2048V48.3093C26.5336 48.0853 26.4586 47.8678 26.32 47.6913C26.1814 47.5149 25.9874 47.3895 25.7689 47.3353C25.0939 47.1667 24.4475 46.9004 23.8505 46.5448C23.6574 46.4296 23.4311 46.382 23.2077 46.4096C22.9842 46.437 22.7763 46.5379 22.6172 46.6962L21.9801 47.3296C21.9272 47.3808 21.8429 47.3808 21.7899 47.3296L20.597 46.1439C20.5451 46.0913 20.5451 46.0073 20.597 45.9547L21.2338 45.3212C21.3932 45.1631 21.4948 44.9564 21.5223 44.7342C21.5499 44.512 21.502 44.287 21.386 44.0951C21.0283 43.5017 20.7605 42.8591 20.5911 42.1881C20.5366 41.9708 20.4103 41.7779 20.2328 41.6402C20.0553 41.5025 19.8365 41.4278 19.6114 41.4279H18.711C18.637 41.427 18.5773 41.3677 18.5762 41.2941V39.6173C18.5773 39.5437 18.637 39.4842 18.711 39.4832H19.6114C19.8365 39.4835 20.0553 39.4088 20.233 39.2711C20.4105 39.1334 20.5367 38.9405 20.5913 38.7233C20.7608 38.0523 21.0287 37.4097 21.3864 36.8163C21.5023 36.6242 21.5503 36.3993 21.5226 36.177C21.495 35.955 21.3935 35.7483 21.2341 35.5902L20.597 34.9568C20.5455 34.9042 20.5455 34.8203 20.597 34.7677L21.7898 33.5819C21.8429 33.5308 21.9269 33.5308 21.98 33.5819L22.6172 34.2148C22.7763 34.3733 22.9842 34.4743 23.2077 34.5017C23.4312 34.5291 23.6576 34.4814 23.8505 34.3661C24.4475 34.0106 25.0939 33.7443 25.7689 33.5759C25.9874 33.5217 26.1814 33.3962 26.32 33.2197C26.4584 33.0432 26.5336 32.8257 26.5335 32.6019V31.7068C26.5344 31.6332 26.5941 31.5739 26.6681 31.5728H28.3548C28.4288 31.5739 28.4887 31.6332 28.4897 31.7068V32.6019C28.4894 32.8257 28.5645 33.0432 28.7031 33.2199C28.8415 33.3963 29.0355 33.5218 29.254 33.576C29.929 33.7446 30.5754 34.0109 31.1724 34.3665C31.3655 34.4817 31.5918 34.5295 31.8153 34.5019C32.0387 34.4745 32.2466 34.3735 32.4057 34.2151L33.0428 33.5817C33.0957 33.5306 33.18 33.5306 33.233 33.5817L34.4258 34.7675C34.4772 34.8203 34.4772 34.9039 34.4258 34.9566L33.7891 35.5901C33.6297 35.7483 33.5282 35.9549 33.5006 36.1772C33.473 36.3994 33.5209 36.6244 33.637 36.8162C33.9947 37.4097 34.2624 38.0523 34.4318 38.7233C34.4864 38.9405 34.6126 39.1334 34.7901 39.271C34.9676 39.4087 35.1864 39.4834 35.4116 39.4831H36.3123C36.3863 39.4842 36.446 39.5437 36.4469 39.6172L36.4465 41.2941ZM27.5113 35.197C26.1085 35.197 24.763 35.7511 23.771 36.7372C22.779 37.7234 22.2217 39.061 22.2217 40.4557C22.2217 41.8503 22.779 43.1879 23.771 44.1741C24.7629 45.1603 26.1085 45.7143 27.5113 45.7143C28.9142 45.7143 30.2597 45.1603 31.2517 44.1741C32.2437 43.188 32.801 41.8503 32.801 40.4557C32.7994 39.0615 32.2416 37.7249 31.2499 36.739C30.2583 35.7532 28.9138 35.1987 27.5113 35.197ZM27.5113 45.1413C26.2612 45.1413 25.0624 44.6477 24.1783 43.769C23.2944 42.8901 22.7979 41.6983 22.7979 40.4555C22.7979 39.2127 23.2944 38.0209 24.1783 37.1421C25.0624 36.2634 26.2612 35.7697 27.5113 35.7697C28.7615 35.7697 29.9603 36.2634 30.8443 37.1421C31.7282 38.0209 32.2248 39.2127 32.2248 40.4555C32.2235 41.6979 31.7265 42.889 30.8429 43.7675C29.9591 44.6459 28.761 45.14 27.5113 45.1413Z" fill="#282828"></path>
</svg>
