<svg width="28" height="32" viewBox="0 0 28 32" fill="none" xmlns="http://www.w3.org/2000/svg">
<path d="M13.9493 0L0 7.98744V23.9623L14 31.9498L28 23.9623V7.98744L13.9493 0ZM8.47101 6.93249H19.4783L20.7971 12.4584H7.2029L8.47101 6.93249ZM12.8841 23.5604L10.5 25.7708H8.47101L3.44928 17.1303L7.15217 14.4176L10.3986 16.4772V20.1444L12.8333 22.5055L12.8841 23.5604ZM11.2609 19.8932L11.6159 16.427L10.3986 13.3124H17.5L16.3333 16.427L16.6884 19.8932H13.9493H11.2609ZM19.4783 25.7206H17.5L15.1159 23.5604V22.4553L17.5507 20.0942V16.427L20.7464 14.3673L24.3986 17.0801L19.4783 25.7206Z" fill="#002D74"></path>
</svg>
