<svg width="32" height="32" viewBox="0 0 32 32" fill="none" xmlns="http://www.w3.org/2000/svg">
<g clip-path="url('#clip0_3712_24749')">
<path d="M32 16.1144C31.8893 11.2618 29.6239 8.54981 27.387 7.05007C25.5947 5.86933 23.5062 5.24899 21.3762 5.26466H20.8406V0H15.7992V5.26466H10.3096V0H5.26639V5.26466H0L0.0232078 10.6667H5.24496V21.3114H0V26.5522H5.26639V32H10.3096V26.5522H15.7992V32H20.8424V26.5522H21.735C23.494 26.5629 25.2276 26.1223 26.7782 25.2704C32.1339 22.2856 32 16.1144 32 16.1144ZM26.2534 18.5719C25.9259 19.2279 25.4643 19.8038 24.9002 20.2603C24.0016 20.9674 22.8979 21.3452 21.7654 21.3333H10.3239V10.6813L21.7957 10.652C22.3337 10.6461 22.8697 10.7213 23.3863 10.8754C23.983 11.0555 24.539 11.3548 25.0225 11.7562C25.5059 12.1575 25.9073 12.6529 26.2034 13.2138C26.6412 14.0337 26.8748 14.9517 26.8835 15.8864C26.8922 16.8212 26.6758 17.7436 26.2534 18.5719Z" fill="#2DAE9A"></path>
</g>
<defs>
<clipPath id="clip0_3712_24749">
<rect width="32" height="32" fill="white"></rect>
</clipPath>
</defs>
</svg>
