<svg width="32" height="32" fill="none" xmlns="http://www.w3.org/2000/svg">
  <g clip-path="url('#clip0_3712_24749')">
    <path d="M32 16.114c-.11-4.852-2.376-7.564-4.613-9.064a10.776 10.776 0 0 0-6.01-1.785h-.536V0h-5.042v5.265h-5.49V0H5.267v5.265H0l.023 5.402h5.222V21.31H0v5.241h5.266V32h5.044v-5.448h5.49V32h5.042v-5.448h.893c1.759.01 3.493-.43 5.043-1.282C32.134 22.286 32 16.114 32 16.114Zm-5.747 2.458A5.102 5.102 0 0 1 24.9 20.26a4.982 4.982 0 0 1-3.135 1.073H10.324V10.681l11.472-.029a5.358 5.358 0 0 1 1.59.223c.597.18 1.153.48 1.637.881.483.402.884.897 1.18 1.458a5.795 5.795 0 0 1 .05 5.358Z" fill="#2DAE9A"/>
  </g>
  <defs>
    <clipPath id="clip0_3712_24749">
      <path fill="#fff" d="M0 0h32v32H0z"/>
    </clipPath>
  </defs>
</svg>
