<svg width="110" height="110" viewBox="0 0 110 110" fill="none" xmlns="http://www.w3.org/2000/svg">
<path d="M55 0L102.631 27.5V82.5L55 110L7.3686 82.5L7.3686 27.5L55 0Z" fill="#F8C73B"></path>
<rect x="28.65" y="65.2875" width="7.3625" height="4.3" rx="0.65" transform="rotate(90 28.65 65.2875)" fill="white" stroke="#282828" stroke-width="0.7"></rect>
<rect x="35.65" y="64.3916" width="8.25833" height="4.3" rx="0.65" transform="rotate(90 35.65 64.3916)" fill="white" stroke="#282828" stroke-width="0.7"></rect>
<rect x="42.65" y="63.4959" width="9.15417" height="4.3" rx="0.65" transform="rotate(90 42.65 63.4959)" fill="white" stroke="#282828" stroke-width="0.7"></rect>
<rect x="49.65" y="61.7041" width="10.9458" height="4.3" rx="0.65" transform="rotate(90 49.65 61.7041)" fill="white" stroke="#282828" stroke-width="0.7"></rect>
<rect x="56.65" y="58.1209" width="14.5292" height="4.3" rx="0.65" transform="rotate(90 56.65 58.1209)" fill="white" stroke="#282828" stroke-width="0.7"></rect>
<rect x="63.65" y="52.7459" width="19.9042" height="4.3" rx="0.65" transform="rotate(90 63.65 52.7459)" fill="white" stroke="#282828" stroke-width="0.7"></rect>
<rect x="70.65" y="46.475" width="26.175" height="4.3" rx="0.65" transform="rotate(90 70.65 46.475)" fill="white" stroke="#282828" stroke-width="0.7"></rect>
<rect x="77.65" y="39.35" width="33.3" height="4.3" rx="0.65" transform="rotate(90 77.65 39.35)" fill="white" stroke="#282828" stroke-width="0.7"></rect>
<rect x="84.65" y="30.35" width="42.3" height="4.3" rx="0.65" transform="rotate(90 84.65 30.35)" fill="white" stroke="#282828" stroke-width="0.7"></rect>
</svg>
