<svg width="584" height="584" viewBox="0 0 584 584" fill="none" xmlns="http://www.w3.org/2000/svg">
<rect x="28" y="28" width="556" height="556" rx="3" fill="#FFF4D7"></rect>
<rect width="584" height="584" rx="3" fill="#FFF7E1"></rect>
<rect x="55" y="55" width="529" height="529" rx="3" fill="#FFF0C7"></rect>
<rect x="92" y="92" width="492" height="492" rx="3" fill="#FEEDC0"></rect>
<rect x="129" y="129" width="455" height="455" rx="3" fill="#FCE49F"></rect>
<rect x="166" y="166" width="418" height="418" rx="3" fill="#FBDA7D"></rect>
<rect x="203" y="203" width="381" height="381" rx="3" fill="#F9D15C"></rect>
<rect x="240" y="240" width="344" height="344" rx="3" fill="#F8C73B"></rect>
<rect x="277" width="30" height="584" fill="#303030"></rect>
<rect x="584" y="277" width="30" height="584" transform="rotate(90 584 277)" fill="#303030"></rect>
<path d="M366.079 438.767C369.112 438.767 371.764 438.973 374.038 439.386C376.312 439.8 378.215 440.678 379.745 442.023C381.277 443.369 382.043 445.325 382.043 447.893C382.043 452.632 379.916 455.835 375.662 457.501C371.408 459.167 366.637 460 361.347 460C356.087 460 351.214 459.152 346.729 457.455C342.243 455.758 340 452.526 340 447.755L351.834 447.71C351.834 449.819 352.8 451.157 354.734 451.723C356.667 452.29 358.933 452.571 361.532 452.571C363.976 452.571 366.072 452.22 367.82 451.516C369.567 450.814 370.442 449.667 370.442 448.077V448.032C370.442 447.144 369.899 446.488 368.817 446.059C367.734 445.631 366.574 445.371 365.337 445.279C364.099 445.188 362.615 445.126 360.882 445.096H357.402C354.061 445.096 351.161 444.89 348.701 444.476C346.241 444.064 344.176 443.154 342.506 441.748C340.836 440.342 340 438.262 340 435.511C340 430.741 342.173 427.63 346.52 426.178C350.866 424.727 355.808 424 361.347 424C366.544 424 371.292 424.841 375.593 426.523C379.892 428.204 382.043 431.446 382.043 436.244H370.395C370.395 434.717 369.521 433.578 367.773 432.828C366.025 432.08 363.899 431.659 361.393 431.568C358.701 431.568 356.427 431.872 354.571 432.484C352.715 433.096 351.787 434.059 351.787 435.373C351.787 436.748 352.731 437.667 354.618 438.126C356.504 438.584 358.639 438.813 361.021 438.813L366.079 438.767Z" fill="#242424"></path>
<path d="M403.344 440.556L422.045 458.946H407.984L394.063 444.728V458.946H382.602V425.01H394.063V436.795L407.15 425.01H421.349L403.344 440.556Z" fill="#242424"></path>
<path d="M442.463 435.373L436.894 445.462H447.985L442.463 435.373ZM466.918 458.946H455.364L452.162 453.122H432.718L429.517 458.946H417.961L436.57 425.01H448.31L466.918 458.946Z" fill="#242424"></path>
<path d="M494.642 433.906C494.132 433.355 493.475 433.02 492.671 432.896C491.865 432.776 490.691 432.713 489.144 432.713H487.474C485.184 432.776 481.549 432.805 476.568 432.805V440.097H489.051H489.144C490.691 440.097 491.865 440.035 492.671 439.913C493.475 439.792 494.132 439.478 494.642 438.973C495.153 438.468 495.409 437.652 495.409 436.52C495.409 435.327 495.153 434.456 494.642 433.906ZM493.181 458.899L483.668 447.938H476.568V458.899H465.617V424.963H491.557C494.434 424.963 496.978 425.438 499.19 426.385C501.402 427.334 503.119 428.654 504.341 430.352C505.562 432.048 506.175 434.014 506.175 436.244V436.427C506.175 439.333 505.315 441.733 503.598 443.628C501.882 445.525 499.507 446.792 496.476 447.434L506.452 458.899H493.181Z" fill="#242424"></path>
<path d="M536.382 451.126C537.248 451.02 537.944 450.714 538.47 450.209C538.996 449.704 539.259 448.902 539.259 447.802C539.259 446.732 538.996 445.96 538.47 445.486C537.944 445.013 537.248 444.722 536.382 444.615C535.516 444.508 534.216 444.454 532.484 444.454H532.437H517.681V451.241C522.044 451.241 525.144 451.249 526.985 451.264C528.826 451.28 530.086 451.286 530.766 451.286H532.484C534.216 451.286 535.516 451.234 536.382 451.126ZM534.364 438.194C535.09 438.118 535.71 437.85 536.22 437.391C536.73 436.933 536.985 436.169 536.985 435.099C536.985 434.12 536.737 433.418 536.243 432.989C535.747 432.561 535.113 432.294 534.34 432.186C533.567 432.08 532.437 432.026 530.953 432.026H530.906H517.681V438.262C520.866 438.262 522.971 438.278 523.993 438.309H526.219H530.953C532.5 438.309 533.636 438.27 534.364 438.194ZM549.004 443.835C550.333 445.104 551 446.914 551 449.269V449.452C551 452.908 549.553 455.346 546.661 456.768C543.768 458.189 539.614 458.915 534.202 458.946H534.109H532.298H506.961V425.01H536.335C539.924 425.04 542.786 425.774 544.92 427.21C547.055 428.648 548.122 430.68 548.122 433.309V433.494C548.122 435.481 547.705 437.101 546.869 438.354C546.034 439.608 544.782 440.541 543.111 441.152C545.709 441.672 547.674 442.567 549.004 443.835Z" fill="#242424"></path>
<path d="M50 117L67.3205 127V147L50 157L32.6795 147V127L50 117Z" fill="#F8C73B"></path>
<rect x="43" y="130" width="1" height="1" fill="#242424"></rect>
<rect x="43" y="132" width="1" height="1" fill="#242424"></rect>
<rect x="43" y="134" width="1" height="1" fill="#242424"></rect>
<rect x="45" y="130" width="5" height="1" fill="#242424"></rect>
<rect x="45" y="132" width="5" height="1" fill="#242424"></rect>
<rect x="45" y="134" width="5" height="1" fill="#242424"></rect>
<path d="M43 144L45.5 140L47.5 143L50.5 137L52.5 141.5L56 130.5" stroke="#242424" stroke-linecap="round"></path>
<path d="M54.0393 130.997L56.1111 130.156L56.9913 131.729" stroke="#242424" stroke-linecap="round"></path>
<path d="M361 216L378.321 226V246L361 256L343.679 246V226L361 216Z" fill="white"></path>
<rect x="362" y="230.5" width="1" height="2" transform="rotate(90 362 230.5)" fill="#242424"></rect>
<rect x="362" y="232.5" width="1" height="2" transform="rotate(90 362 232.5)" fill="#242424"></rect>
<rect x="362" y="234.5" width="1" height="2" transform="rotate(90 362 234.5)" fill="#242424"></rect>
<rect x="362" y="236.5" width="1" height="2" transform="rotate(90 362 236.5)" fill="#242424"></rect>
<rect x="362" y="238.5" width="1" height="2" transform="rotate(90 362 238.5)" fill="#242424"></rect>
<rect x="362" y="240.5" width="1" height="2" transform="rotate(90 362 240.5)" fill="#242424"></rect>
<rect x="367" y="230.5" width="1" height="4" transform="rotate(90 367 230.5)" fill="#242424"></rect>
<rect x="359" y="238.5" width="1" height="4" transform="rotate(90 359 238.5)" fill="#242424"></rect>
<rect x="359" y="236.5" width="1" height="4" transform="rotate(90 359 236.5)" fill="#242424"></rect>
<rect x="367" y="232.5" width="1" height="4" transform="rotate(90 367 232.5)" fill="#242424"></rect>
<rect x="359" y="240.5" width="1" height="4" transform="rotate(90 359 240.5)" fill="#242424"></rect>
<rect x="367" y="234.5" width="1" height="4" transform="rotate(90 367 234.5)" fill="#242424"></rect>
<path d="M523 173L540.321 183V203L523 213L505.679 203V183L523 173Z" fill="white"></path>
<rect x="516" y="199" width="11" height="1" rx="0.5" fill="#242424"></rect>
<rect x="516" y="196" width="6" height="1" rx="0.5" fill="#242424"></rect>
<rect x="516" y="193" width="3" height="1" rx="0.5" fill="#242424"></rect>
<rect x="516" y="190" width="1" height="1" rx="0.5" fill="#242424"></rect>
<circle cx="525.5" cy="190.5" r="4" stroke="#242424"></circle>
<rect x="525" y="188" width="1" height="3.3" fill="#242424"></rect>
<rect x="527.625" y="191.814" width="1" height="2.48336" transform="rotate(123.141 527.625 191.814)" fill="#242424"></rect>
<path d="M149 21L166.321 31V51L149 61L131.679 51V31L149 21Z" fill="#F8C73B"></path>
<circle cx="143" cy="45" r="1.5" stroke="#242424"></circle>
<circle cx="146" cy="39" r="1.5" stroke="#242424"></circle>
<circle cx="151" cy="43" r="1.5" stroke="#242424"></circle>
<path d="M151.5 42L153.5 38.5" stroke="#242424"></path>
<circle cx="154" cy="37" r="1.5" stroke="#242424"></circle>
<path d="M143.5 43.5L145.5 40" stroke="#242424"></path>
<path d="M150 42.5L147 40" stroke="#242424"></path>
<path d="M242 87L259.321 97V117L242 127L224.679 117V97L242 87Z" fill="#F8C73B"></path>
<rect x="235" y="110" width="6" height="1" rx="0.5" fill="#242424"></rect>
<rect x="235" y="112" width="6" height="1" rx="0.5" fill="#242424"></rect>
<rect x="235" y="108" width="6" height="1" rx="0.5" fill="#242424"></rect>
<path d="M242.001 111.451L246.116 113.663L245.283 109.066L248.659 105.837L244.03 105.208L242.001 101L239.973 105.208L235.344 105.837L235.501 106V106.4" stroke="#242424"></path>
<path d="M412 118L429.321 128V148L412 158L394.679 148V128L412 118Z" fill="#F8C73B"></path>
<path d="M405.5 143L406.5 140.5" stroke="#242424" stroke-linecap="round"></path>
<path d="M404.5 139H419.5" stroke="#242424" stroke-linecap="round" stroke-dasharray="2 2"></path>
<path d="M407.5 137.5L408.5 135L410 136.5L411 132L412 135L413 132.5L414.5 136L416 131.5L417.5 137.5" stroke="#242424" stroke-linecap="round"></path>
<path d="M418 140.5L418.5 142L419 143" stroke="#242424" stroke-linecap="round"></path>
<path d="M48 430L65.3205 440V460L48 470L30.6795 460V440L48 430Z" fill="#F8C73B"></path>
<path d="M54 444C50 444 42 444 42 444" stroke="#2C2C38" stroke-linecap="round"></path>
<path d="M54 456C50 456 42 456 42 456" stroke="#2C2C38" stroke-linecap="round"></path>
<path d="M54 452C50 452 42 452 42 452" stroke="#2C2C38" stroke-linecap="round"></path>
<path d="M54 448C50 448 42 448 42 448" stroke="#2C2C38" stroke-linecap="round"></path>
<circle cx="47.5" cy="448" r="1.1" transform="rotate(90 47.5 448)" fill="#F8C73B" stroke="#2C2C38" stroke-width="0.8"></circle>
<circle cx="44.5" cy="452" r="1.1" transform="rotate(90 44.5 452)" fill="#F8C73B" stroke="#2C2C38" stroke-width="0.8"></circle>
<circle cx="51.5" cy="456" r="1.1" transform="rotate(90 51.5 456)" fill="#F8C73B" stroke="#2C2C38" stroke-width="0.8"></circle>
<circle cx="44.5" cy="444" r="1.1" transform="rotate(90 44.5 444)" fill="#F8C73B" stroke="#2C2C38" stroke-width="0.8"></circle>
<path d="M145 397L162.321 407V427L145 437L127.679 427V407L145 397Z" fill="white"></path>
<path d="M148.6 419.5V419.666L148.717 419.783C149.529 420.595 149.959 421.369 150.071 422.109C149.092 422.12 146.966 422.109 145.784 422.103C145.397 422.101 145.111 422.1 145 422.1C144.889 422.1 144.603 422.101 144.217 422.103C143.035 422.109 140.909 422.12 139.93 422.109C140.041 421.369 140.471 420.595 141.283 419.783L141.4 419.666L141.4 419.5C141.4 418.747 141.4 417.794 141.4 416.879C141.4 416.579 141.4 416.283 141.4 416C141.4 414.012 143.012 412.4 145 412.4C146.988 412.4 148.6 414.012 148.6 416L148.6 417.806L148.6 419.5Z" stroke="#242424" stroke-width="0.8"></path>
<path d="M145.953 412.234C145.983 412.16 146 412.082 146 412C146 411.577 145.556 411 145.003 411C144.451 411 144 411.577 144 412C144 412.066 144.011 412.13 144.032 412.192" stroke="#242424" stroke-width="0.7"></path>
<path d="M143.095 422C143.033 422.119 143 422.247 143 422.379C143 423.065 143.889 424 144.993 424C146.098 424 147 423.065 147 422.379C147 422.272 146.978 422.168 146.937 422.068" stroke="#242424" stroke-width="0.7"></path>
<path d="M148.5 411.5C149.479 411.667 151.338 412.7 150.947 415.5" stroke="#242424" stroke-width="0.7"></path>
<path d="M141.5 411.5C140.521 411.667 138.662 412.7 139.053 415.5" stroke="#242424" stroke-width="0.7"></path>
<path d="M211 316L228.321 326V346L211 356L193.679 346V326L211 316Z" fill="white"></path>
<rect x="204" y="329" width="0.7" height="14" fill="#242424"></rect>
<path d="M211.5 333L211.747 332.753L211.487 332.492L211.24 332.766L211.5 333ZM213.5 335L213.253 335.247L213.517 335.512L213.763 335.23L213.5 335ZM217.263 331.23C217.391 331.085 217.376 330.864 217.23 330.737C217.085 330.609 216.864 330.624 216.737 330.77L217.263 331.23ZM207.26 338.234L211.76 333.234L211.24 332.766L206.74 337.766L207.26 338.234ZM211.253 333.247L213.253 335.247L213.747 334.753L211.747 332.753L211.253 333.247ZM213.763 335.23L217.263 331.23L216.737 330.77L213.237 334.77L213.763 335.23Z" fill="#242424"></path>
<path d="M216.65 338.5V338.85H217.35V338.5H216.65ZM217 337H217.35V336.65H217V337ZM217.35 338.5V337H216.65V338.5H217.35ZM217 336.65H215L215 337.35H217V336.65Z" fill="#242424"></path>
<path d="M216.65 332.5V332.85H217.35V332.5H216.65ZM217 331H217.35V330.65H217V331ZM217.35 332.5V331H216.65V332.5H217.35ZM217 330.65H215L215 331.35H217V330.65Z" fill="#242424"></path>
<path d="M208 332L208.291 331.806L208.097 331.515L207.806 331.709L208 332ZM208.709 333.694L208.903 333.985L209.485 333.597L209.291 333.306L208.709 333.694ZM206.694 333.291L208.194 332.291L207.806 331.709L206.306 332.709L206.694 333.291ZM207.709 332.194L208.709 333.694L209.291 333.306L208.291 331.806L207.709 332.194Z" fill="#242424"></path>
<path d="M214 340L213.72 340.21L213.962 340.533L214.247 340.247L214 340ZM216.747 337.747C216.884 337.611 216.884 337.389 216.747 337.253C216.611 337.116 216.389 337.116 216.253 337.253L216.747 337.747ZM210.72 336.21L213.72 340.21L214.28 339.79L211.28 335.79L210.72 336.21ZM214.247 340.247L216.247 338.247L215.753 337.753L213.753 339.753L214.247 340.247ZM216.247 338.247L216.747 337.747L216.253 337.253L215.753 337.753L216.247 338.247Z" fill="#242424"></path>
<rect x="218" y="342.2" width="0.7" height="14" transform="rotate(90 218 342.2)" fill="#242424"></rect>
<path d="M169 212L186.321 222V242L169 252L151.679 242V222L169 212Z" fill="white"></path>
<rect x="164.35" y="235.35" width="9.3" height="2.3" stroke="#242424" stroke-width="0.7"></rect>
<rect x="164.35" y="230.85" width="11.3" height="2.3" stroke="#242424" stroke-width="0.7"></rect>
<rect x="164.35" y="226.35" width="6.3" height="2.3" stroke="#242424" stroke-width="0.7"></rect>
<rect x="164" y="225" width="0.7" height="14" fill="#242424"></rect>
<path d="M121 514L138.321 524V544L121 554L103.679 544V524L121 514Z" fill="#F8C73B"></path>
<rect x="124.35" y="540.65" width="13.3" height="2.3" transform="rotate(-90 124.35 540.65)" stroke="#242424" stroke-width="0.7"></rect>
<rect x="119.85" y="540.65" width="10.3" height="2.3" transform="rotate(-90 119.85 540.65)" stroke="#242424" stroke-width="0.7"></rect>
<rect x="115.35" y="540.65" width="7.3" height="2.3" transform="rotate(-90 115.35 540.65)" stroke="#242424" stroke-width="0.7"></rect>
<rect x="114" y="541" width="0.7" height="14" transform="rotate(-90 114 541)" fill="#242424"></rect>
<path d="M230 446L247.321 456V476L230 486L212.679 476V456L230 446Z" fill="white"></path>
<path d="M223 467.5L227 463L231.5 465L236 460" stroke="#242424" stroke-linecap="round"></path>
<path d="M234.062 459.559L236.288 459.345L236.682 461.104" stroke="#242424" stroke-linecap="round"></path>
<rect x="224" y="471" width="1" height="2" fill="#242424"></rect>
<rect x="228" y="469" width="1" height="4" fill="#242424"></rect>
<rect x="232" y="467" width="1" height="6" fill="#242424"></rect>
<rect x="236" y="465" width="1" height="8" fill="#242424"></rect>
<rect x="230" y="468" width="1" height="5" fill="#242424"></rect>
<rect x="226" y="470" width="1" height="3" fill="#242424"></rect>
<rect x="234" y="466" width="1" height="7" fill="#242424"></rect>
<path d="M535 45L552.321 55V75L535 85L517.679 75V55L535 45Z" fill="#F8C73B"></path>
<path d="M527.998 69.5L529.461 68.149" stroke="#242424" stroke-width="0.7"></path>
<path d="M529.228 68.0879L530.999 68.9999" stroke="#242424" stroke-width="0.7"></path>
<path d="M533.5 72L533.179 72C531.052 72 529.328 70.2759 529.328 68.149V68.149" stroke="#242424" stroke-width="0.7"></path>
<path d="M542.502 60.5L541.039 61.851" stroke="#242424" stroke-width="0.7"></path>
<path d="M541.272 61.9121L539.501 61.0001" stroke="#242424" stroke-width="0.7"></path>
<path d="M537 58H537.321C539.448 58 541.172 59.7241 541.172 61.851V61.851" stroke="#242424" stroke-width="0.7"></path>
<circle cx="538" cy="68" r="4.6" stroke="#242424" stroke-width="0.8"></circle>
<path d="M536.791 68.8123V69.1916H535.624V68.8123H536.791ZM535.791 67V69.1916H535.301V67H535.791ZM536.64 67.882V68.2493H535.624V67.882H536.64ZM536.792 67V67.3808H535.624V67H536.792Z" fill="#242424"></path>
<path d="M538.082 67V69.1916H537.593V67H538.082ZM538.749 67V67.3808H536.94V67H538.749Z" fill="#242424"></path>
<path d="M540.462 67.882V68.2614H539.327V67.882H540.462ZM539.482 67V69.1916H538.992V67H539.482ZM540.801 67V69.1916H540.312V67H540.801Z" fill="#242424"></path>
<path d="M536.829 63.7316C536.941 63.3402 537 62.927 537 62.5C537 60.0147 534.985 58 532.5 58C530.015 58 528 60.0147 528 62.5C528 64.9853 530.015 67 532.5 67C532.881 67 533.252 66.9525 533.606 66.8632" stroke="#242424" stroke-width="0.8"></path>
<path d="M530.569 62.2568H530.02L530.017 61.9199H530.462C530.542 61.9199 530.606 61.9111 530.654 61.8936C530.702 61.875 530.737 61.8481 530.758 61.813C530.781 61.7778 530.792 61.7339 530.792 61.6812C530.792 61.6206 530.781 61.5718 530.758 61.5347C530.736 61.4976 530.7 61.4707 530.651 61.4541C530.604 61.4365 530.542 61.4277 530.465 61.4277H530.213V63.1636H529.699V61.0308H530.465C530.597 61.0308 530.715 61.043 530.818 61.0674C530.922 61.0908 531.01 61.127 531.082 61.1758C531.155 61.2246 531.211 61.2861 531.249 61.3604C531.287 61.4336 531.306 61.52 531.306 61.6196C531.306 61.7065 531.288 61.7881 531.25 61.8643C531.213 61.9404 531.151 62.0024 531.064 62.0503C530.979 62.0972 530.861 62.1216 530.711 62.1235L530.569 62.2568ZM530.549 63.1636H529.896L530.071 62.7681H530.549C530.619 62.7681 530.675 62.7573 530.717 62.7358C530.76 62.7134 530.791 62.6841 530.81 62.6479C530.829 62.6108 530.839 62.5698 530.839 62.5249C530.839 62.4702 530.83 62.4229 530.811 62.3828C530.793 62.3428 530.765 62.312 530.726 62.2905C530.687 62.2681 530.635 62.2568 530.569 62.2568H530.137L530.14 61.9199H530.657L530.777 62.0547C530.92 62.0488 531.033 62.0688 531.116 62.1147C531.2 62.1606 531.26 62.2212 531.296 62.2964C531.332 62.3716 531.35 62.4502 531.35 62.5322C531.35 62.6719 531.32 62.7886 531.259 62.8823C531.2 62.9761 531.11 63.0464 530.991 63.0933C530.872 63.1401 530.725 63.1636 530.549 63.1636Z" fill="#242424"></path>
<path d="M532.627 61.0308V63.1636H532.113V61.0308H532.627ZM533.269 61.0308V61.4277H531.486V61.0308H533.269Z" fill="#242424"></path>
<path d="M534.659 62.4414H535.172C535.165 62.5898 535.125 62.7207 535.052 62.834C534.979 62.9473 534.877 63.0356 534.747 63.0991C534.618 63.1616 534.466 63.1929 534.29 63.1929C534.147 63.1929 534.02 63.1689 533.908 63.1211C533.796 63.0732 533.702 63.0044 533.624 62.9146C533.546 62.8247 533.487 62.7158 533.446 62.5879C533.406 62.46 533.386 62.3159 533.386 62.1558V62.04C533.386 61.8799 533.407 61.7358 533.449 61.6079C533.492 61.479 533.553 61.3696 533.631 61.2798C533.71 61.189 533.805 61.1196 533.915 61.0718C534.025 61.0239 534.148 61 534.283 61C534.468 61 534.625 61.0332 534.753 61.0996C534.881 61.166 534.98 61.2573 535.05 61.3735C535.121 61.4888 535.162 61.6201 535.175 61.7676H534.662C534.66 61.6875 534.646 61.6206 534.621 61.5669C534.596 61.5122 534.556 61.4712 534.501 61.4438C534.446 61.4165 534.374 61.4028 534.283 61.4028C534.219 61.4028 534.164 61.4146 534.117 61.438C534.07 61.4614 534.031 61.4985 534 61.5493C533.969 61.6001 533.945 61.666 533.93 61.7471C533.915 61.8271 533.908 61.9238 533.908 62.0371V62.1558C533.908 62.269 533.915 62.3657 533.928 62.4458C533.942 62.5259 533.964 62.5913 533.994 62.6421C534.024 62.6929 534.063 62.7305 534.111 62.7549C534.16 62.7783 534.22 62.79 534.29 62.79C534.368 62.79 534.434 62.7778 534.488 62.7534C534.542 62.728 534.583 62.6899 534.612 62.6392C534.642 62.5874 534.657 62.5215 534.659 62.4414Z" fill="#242424"></path>
</svg>
