<svg width="32" height="30" fill="none" xmlns="http://www.w3.org/2000/svg">
  <path fill-rule="evenodd" clip-rule="evenodd" d="m11.582 6.263-1.51 5.886L0 13.495l11.582-7.232Z" fill="#57BAE5"/>
  <path fill-rule="evenodd" clip-rule="evenodd" d="m14.306 30 2.507-10.688-3.262-1.38L14.306 30Z" fill="#005472"/>
  <path fill-rule="evenodd" clip-rule="evenodd" d="m10.072 12.148-2.656 5.567L0 13.483l10.072-1.335Z" fill="#34AFE4"/>
  <path fill-rule="evenodd" clip-rule="evenodd" d="m14.306 30-.744-12.068-6.146-.217L14.306 30Z" fill="#0076A7"/>
  <path fill-rule="evenodd" clip-rule="evenodd" d="m10.071 12.148 3.49 5.784-6.145-.217 2.655-5.567Z" fill="#009DE2"/>
  <path fill-rule="evenodd" clip-rule="evenodd" d="m11.582 6.263 8.355 1.072-9.866 4.814 1.511-5.886Zm17.5-2.681-5.265 6.262.367-5.794 4.898-.468ZM32 0l-2.918 3.582 2.278.285L32 0Z" fill="#7ACDF2"/>
  <path fill-rule="evenodd" clip-rule="evenodd" d="m26.243 6.844 5.116-2.977-2.278-.285-2.838 3.262Z" fill="#00ABE7"/>
  <path fill-rule="evenodd" clip-rule="evenodd" d="m16.824 19.312.251-7.187-3.502 5.807 3.25 1.38Z" fill="#0076A7"/>
  <path fill-rule="evenodd" clip-rule="evenodd" d="m17.064 12.126-3.502 5.806-3.49-5.784 6.992-.022Z" fill="#008DBE"/>
  <path fill-rule="evenodd" clip-rule="evenodd" d="m19.937 7.334-2.873 4.79-6.993.024 9.866-4.814Z" fill="#57BAE5"/>
  <path fill-rule="evenodd" clip-rule="evenodd" d="m17.064 12.126-.252 7.186 6.41 6.718-6.158-13.905Z" fill="#00698D"/>
  <path fill-rule="evenodd" clip-rule="evenodd" d="m26.587 22.278-3.388-8.612.035 12.376 3.353-3.764ZM23.829 9.844l-.618 3.81-6.135-1.54 6.753-2.27Z" fill="#09A1CB"/>
  <path fill-rule="evenodd" clip-rule="evenodd" d="m26.93 15.023-3.73-1.369.617-3.81 3.113 5.179Z" fill="#8BDAFF"/>
  <path fill-rule="evenodd" clip-rule="evenodd" d="m28.269 22.038-4.063-6.673h2.323l1.74 6.673Z" fill="#7ACDF2"/>
  <path fill-rule="evenodd" clip-rule="evenodd" d="m20.704 5.92 3.125 3.935.366-5.794-3.49 1.859Z" fill="#57BAE5"/>
  <path fill-rule="evenodd" clip-rule="evenodd" d="m23.199 13.665-6.135-1.54 6.17 13.905-.035-12.365Z" fill="#008DBE"/>
  <path fill-rule="evenodd" clip-rule="evenodd" d="m26.587 22.277 1.35.776-4.692 2.977 3.342-3.753Z" fill="#0076A7"/>
  <path fill-rule="evenodd" clip-rule="evenodd" d="m28.269 21.958-5.059-8.304 3.388 8.612 1.67-.308Z" fill="#57BAE5"/>
  <path fill-rule="evenodd" clip-rule="evenodd" d="m20.704 5.92-3.628 6.205 6.753-2.281-3.125-3.924Z" fill="#7ACDF2"/>
</svg>
