<svg width="110" height="110" viewBox="0 0 110 110" fill="none" xmlns="http://www.w3.org/2000/svg">
<path d="M55 0L102.631 27.5V82.5L55 110L7.3686 82.5L7.3686 27.5L55 0Z" fill="white"></path>
<circle cx="34.5157" cy="66.9593" r="16.2657" fill="white" stroke="#282828" stroke-width="0.5"></circle>
<path d="M34.7027 67.1238L34.7645 67.0532V66.9593C34.7645 63.4121 34.7649 60.7742 34.7654 58.7364C34.7655 58.1739 34.7656 57.6572 34.7657 57.1796C34.766 56.0516 34.7662 55.1423 34.7663 54.3662C41.6072 54.4994 47.1118 60.0865 47.1118 66.9593C47.1118 73.9156 41.4726 79.5548 34.5163 79.5548C31.4092 79.5548 28.5654 78.4301 26.3689 76.5652C29.8967 72.3439 31.0162 71.1489 32.1694 69.918C32.8414 69.2007 33.5248 68.4713 34.7027 67.1238Z" fill="#F8C73B" stroke="#282828" stroke-width="0.5"></path>
<path d="M33.5977 54.1138C31.176 54.1138 28.9108 54.7839 26.9775 55.9489" stroke="#282828" stroke-width="0.5"></path>
<path d="M46.9041 67.4181H42.3164" stroke="#282828" stroke-width="0.5"></path>
<path d="M25.3416 67.4181H20.7539" stroke="#282828" stroke-width="0.5"></path>
<path d="M34.5156 79.8048L34.5156 75.2172" stroke="#282828" stroke-width="0.5"></path>
<path d="M82.3911 31.6186H81.2971C81.0546 31.6211 80.8427 31.4566 80.7861 31.2221C80.5636 30.3396 80.2118 29.4947 79.7416 28.7146C79.6155 28.5091 79.6485 28.2442 79.8213 28.0758L80.5949 27.3057C80.7569 27.1444 80.8477 26.9257 80.8477 26.6977C80.8477 26.4698 80.7569 26.2513 80.5949 26.09L79.1464 24.6465C78.9843 24.4856 78.7647 24.3952 78.5356 24.3952C78.3065 24.3952 78.0869 24.4856 77.9247 24.6465L77.1507 25.4163C76.9814 25.5881 76.7153 25.6212 76.5087 25.4956C75.7245 25.0279 74.8755 24.6779 73.9887 24.4565C73.753 24.4 73.5875 24.189 73.5902 23.9477V22.8596C73.59 22.6313 73.4985 22.4126 73.3362 22.2513C73.1737 22.0902 72.9538 21.9996 72.7243 22H70.6752C70.4461 22.0004 70.2265 22.0909 70.0646 22.252C69.9027 22.4131 69.8115 22.6316 69.8111 22.8596V23.9484C69.8136 24.1897 69.6483 24.4004 69.4126 24.4567C68.5258 24.6781 67.6766 25.0281 66.8926 25.4959C66.686 25.6214 66.4198 25.5886 66.2506 25.4166L65.4754 24.6465C65.3131 24.4855 65.0935 24.3952 64.8644 24.3952C64.6353 24.3952 64.4157 24.4855 64.2535 24.6465L62.8046 26.0882C62.6426 26.2495 62.5518 26.468 62.5518 26.6959C62.5518 26.9239 62.6426 27.1424 62.8046 27.3039L63.5785 28.074C63.751 28.2426 63.784 28.5073 63.6579 28.7128C63.1879 29.4931 62.8359 30.3378 62.6135 31.2203C62.5569 31.4548 62.3448 31.6195 62.1023 31.6168H61.0084C60.779 31.617 60.5592 31.7081 60.3971 31.8695C60.2352 32.0312 60.1442 32.2501 60.1445 32.4784V34.5173C60.1449 34.7453 60.2359 34.9638 60.3978 35.1249C60.5597 35.286 60.7793 35.3767 61.0084 35.3771H62.1026C62.3452 35.3746 62.5569 35.5391 62.6135 35.7737C62.836 36.6561 63.1879 37.5008 63.6579 38.2811C63.7838 38.4866 63.7509 38.7515 63.5782 38.9199L62.8046 39.6913C62.6429 39.8528 62.552 40.0713 62.552 40.2992C62.552 40.5272 62.6429 40.7457 62.8046 40.9071L64.2531 42.3492C64.4152 42.5101 64.6348 42.6005 64.8639 42.6005C65.093 42.6005 65.3126 42.5101 65.4749 42.3492L66.2489 41.5794C66.4181 41.4076 66.6843 41.3744 66.8908 41.5001C67.675 41.9678 68.524 42.3178 69.4108 42.5391C69.6466 42.5955 69.8119 42.8065 69.8094 43.0476V44.1364C69.8097 44.3646 69.9013 44.5832 70.0635 44.7444C70.2258 44.9055 70.446 44.9958 70.6752 44.9957H72.7244C72.9535 44.9955 73.1731 44.9048 73.335 44.7436C73.4971 44.5825 73.5882 44.364 73.5884 44.1361V43.0475C73.5859 42.8062 73.7512 42.5953 73.987 42.539C74.8738 42.3176 75.7228 41.9674 76.507 41.4997C76.7135 41.3741 76.9797 41.4071 77.1489 41.579L77.9229 42.3488C78.085 42.5099 78.3048 42.6003 78.5339 42.6003C78.763 42.6003 78.9826 42.5099 79.1447 42.3488L80.595 40.9075C80.7569 40.7462 80.8477 40.5277 80.8477 40.2997C80.8477 40.0718 80.7569 39.8533 80.595 39.6918L79.821 38.9217C79.6485 38.7531 79.6156 38.4884 79.7417 38.2829C80.2117 37.5026 80.5636 36.6578 80.7861 35.7754C80.8427 35.5409 81.0548 35.3762 81.2973 35.3788H82.3911C82.6206 35.3785 82.8403 35.2876 83.0023 35.1259C83.1644 34.9645 83.2552 34.7456 83.255 34.5173V32.4783C83.2548 32.2504 83.1636 32.0319 83.0017 31.8708C82.8398 31.7095 82.6202 31.6188 82.3911 31.6186ZM71.6996 27.1035C69.9953 27.1035 68.3606 27.7772 67.1555 28.9763C65.9504 30.1754 65.2733 31.8019 65.2733 33.4978C65.2733 35.1936 65.9504 36.8201 67.1555 38.0193C68.3606 39.2184 69.9953 39.8921 71.6996 39.8921C73.4039 39.8921 75.0385 39.2184 76.2436 38.0193C77.4488 36.8202 78.1258 35.1936 78.1258 33.4978C78.1239 31.8025 77.4463 30.1772 76.2415 28.9784C75.0368 27.7797 73.4033 27.1054 71.6996 27.1035ZM71.6996 39.1954C70.1808 39.1954 68.7244 38.5951 67.6504 37.5266C66.5766 36.458 65.9733 35.0088 65.9733 33.4976C65.9733 31.9864 66.5766 30.5372 67.6504 29.4686C68.7244 28.4001 70.1808 27.7998 71.6996 27.7998C73.2183 27.7998 74.6747 28.4001 75.7487 29.4686C76.8226 30.5372 77.4258 31.9864 77.4258 33.4976C77.4242 35.0082 76.8204 36.4566 75.747 37.5249C74.6733 38.593 73.2178 39.1938 71.6996 39.1954Z" fill="#F8C73B"></path>
<circle cx="71.7166" cy="33.5734" r="6.06816" fill="white"></circle>
<path d="M73.922 32.6765L73.9275 32.6782L73.9221 32.6774C73.8923 32.8807 73.8285 32.9904 73.7704 33.0531C73.7249 33.1023 73.6633 33.1438 73.5767 33.1741L73.6547 32.8586C73.7356 32.5316 73.6717 32.2306 73.499 31.9879C73.4974 31.9857 73.4957 31.9834 73.4941 31.9811C73.609 32.0464 73.7006 32.1141 73.7695 32.184C73.8952 32.3118 73.9552 32.4529 73.922 32.6765ZM73.2052 35.6226C73.079 35.6617 72.9256 35.6793 72.7404 35.6754C72.7771 35.6632 72.8135 35.6493 72.8493 35.6335C73.02 35.5586 73.1716 35.4439 73.2853 35.2876H73.3653L73.4594 34.9077C73.5321 34.6138 73.4882 34.345 73.364 34.119L73.3784 34.1266C73.6047 34.2452 73.711 34.3623 73.7575 34.4695C73.8015 34.5706 73.8284 34.7459 73.7185 35.062L73.7185 35.0621C73.5943 35.4194 73.4167 35.5571 73.2052 35.6226ZM70.931 33.366L70.931 33.366L70.8921 33.5231L70.5454 34.9231L70.4781 35.195L70.3223 35.1548C70.267 35.1406 70.2075 35.125 70.1463 35.1089C70.1462 35.1089 70.1462 35.1089 70.1461 35.1089C70.1619 35.0992 70.1774 35.0888 70.1925 35.0778C70.3446 34.967 70.4181 34.8219 70.4518 34.7374L70.4646 34.7055L70.4728 34.6722L70.8857 33.0048L70.5011 32.9095L70.5025 32.905L70.8869 33.0002L71.1814 31.8099L71.1926 31.7647L71.1953 31.7181C71.2016 31.6071 71.1913 31.4523 71.1165 31.2948C71.1687 31.307 71.2208 31.319 71.2726 31.3309L71.4261 31.3661L71.3651 31.6125L71.0507 32.8823L70.931 33.366Z" fill="#282828" stroke="#282828"></path>
<path d="M82.3911 31.6186H81.2971C81.0546 31.6211 80.8427 31.4566 80.7861 31.2221C80.5636 30.3396 80.2118 29.4947 79.7416 28.7146C79.6155 28.5091 79.6485 28.2442 79.8213 28.0758L80.5949 27.3057C80.7569 27.1444 80.8477 26.9257 80.8477 26.6977C80.8477 26.4698 80.7569 26.2513 80.5949 26.09L79.1464 24.6465C78.9843 24.4856 78.7647 24.3952 78.5356 24.3952C78.3065 24.3952 78.0869 24.4856 77.9247 24.6465L77.1507 25.4163C76.9814 25.5881 76.7153 25.6212 76.5087 25.4956C75.7245 25.0279 74.8755 24.6779 73.9887 24.4565C73.753 24.4 73.5875 24.189 73.5902 23.9477V22.8596C73.59 22.6313 73.4985 22.4126 73.3362 22.2513C73.1737 22.0902 72.9538 21.9996 72.7243 22H70.6752C70.4461 22.0004 70.2265 22.0909 70.0646 22.252C69.9027 22.4131 69.8115 22.6316 69.8111 22.8596V23.9484C69.8136 24.1897 69.6483 24.4004 69.4126 24.4567C68.5258 24.6781 67.6766 25.0281 66.8926 25.4959C66.686 25.6214 66.4198 25.5886 66.2506 25.4166L65.4754 24.6465C65.3131 24.4855 65.0935 24.3952 64.8644 24.3952C64.6353 24.3952 64.4157 24.4855 64.2535 24.6465L62.8046 26.0882C62.6426 26.2495 62.5518 26.468 62.5518 26.6959C62.5518 26.9239 62.6426 27.1424 62.8046 27.3039L63.5785 28.074C63.751 28.2426 63.784 28.5073 63.6579 28.7128C63.1879 29.4931 62.8359 30.3378 62.6135 31.2203C62.5569 31.4548 62.3448 31.6195 62.1023 31.6168H61.0084C60.779 31.617 60.5592 31.7081 60.3971 31.8695C60.2352 32.0312 60.1442 32.2501 60.1445 32.4784V34.5173C60.1449 34.7453 60.2359 34.9638 60.3978 35.1249C60.5597 35.286 60.7793 35.3767 61.0084 35.3771H62.1026C62.3452 35.3746 62.5569 35.5391 62.6135 35.7737C62.836 36.6561 63.1879 37.5008 63.6579 38.2811C63.7838 38.4866 63.7509 38.7515 63.5782 38.9199L62.8046 39.6913C62.6429 39.8528 62.552 40.0713 62.552 40.2992C62.552 40.5272 62.6429 40.7457 62.8046 40.9071L64.2531 42.3492C64.4152 42.5101 64.6348 42.6005 64.8639 42.6005C65.093 42.6005 65.3126 42.5101 65.4749 42.3492L66.2489 41.5794C66.4181 41.4076 66.6843 41.3744 66.8908 41.5001C67.675 41.9678 68.524 42.3178 69.4108 42.5391C69.6466 42.5955 69.8119 42.8065 69.8094 43.0476V44.1364C69.8097 44.3646 69.9013 44.5832 70.0635 44.7444C70.2258 44.9055 70.446 44.9958 70.6752 44.9957H72.7244C72.9535 44.9955 73.1731 44.9048 73.335 44.7436C73.4971 44.5825 73.5882 44.364 73.5884 44.1361V43.0475C73.5859 42.8062 73.7512 42.5953 73.987 42.539C74.8738 42.3176 75.7228 41.9674 76.507 41.4997C76.7135 41.3741 76.9797 41.4071 77.1489 41.579L77.9229 42.3488C78.085 42.5099 78.3048 42.6003 78.5339 42.6003C78.763 42.6003 78.9826 42.5099 79.1447 42.3488L80.595 40.9075C80.7569 40.7462 80.8477 40.5277 80.8477 40.2997C80.8477 40.0718 80.7569 39.8533 80.595 39.6918L79.821 38.9217C79.6485 38.7531 79.6156 38.4884 79.7417 38.2829C80.2117 37.5026 80.5636 36.6578 80.7861 35.7754C80.8427 35.5409 81.0548 35.3762 81.2973 35.3788H82.3911C82.6206 35.3785 82.8403 35.2876 83.0023 35.1259C83.1644 34.9645 83.2552 34.7456 83.255 34.5173V32.4783C83.2548 32.2504 83.1636 32.0319 83.0017 31.8708C82.8398 31.7095 82.6202 31.6188 82.3911 31.6186ZM82.5547 34.5173C82.5534 34.6068 82.4811 34.679 82.3911 34.68H81.2973C81.0238 34.6797 80.7578 34.7706 80.5421 34.9381C80.3263 35.1055 80.1731 35.34 80.1068 35.6043C79.9009 36.4203 79.5754 37.2016 79.1409 37.9233C79.0001 38.1567 78.9417 38.4303 78.9754 38.7005C79.0089 38.9705 79.1323 39.2218 79.3259 39.4141L80.0999 40.1843C80.1624 40.2483 80.1624 40.3502 80.0999 40.4142L78.651 41.8562C78.5865 41.9184 78.4842 41.9184 78.4197 41.8562L77.6456 41.0865C77.4523 40.8938 77.1997 40.771 76.9284 40.7375C76.6568 40.7042 76.3819 40.7621 76.1472 40.9022C75.422 41.3347 74.6368 41.6586 73.8167 41.8633C73.5513 41.9293 73.3156 42.0818 73.1474 42.2964C72.9792 42.511 72.8878 42.7755 72.8882 43.0477V44.1365C72.8869 44.2259 72.8142 44.2981 72.7243 44.2992H70.6751C70.5852 44.2981 70.5127 44.2259 70.5116 44.1365V43.0475C70.5118 42.7752 70.4206 42.5107 70.2522 42.2961C70.0839 42.0815 69.8482 41.9291 69.5827 41.8632C68.7627 41.6582 67.9774 41.3343 67.2522 40.902C67.0175 40.7619 66.7426 40.704 66.4712 40.7375C66.1997 40.7708 65.9471 40.8936 65.7538 41.0861L64.9799 41.8562C64.9156 41.9184 64.8131 41.9184 64.7488 41.8562L63.2996 40.4145C63.2365 40.3505 63.2365 40.2484 63.2996 40.1844L64.0732 39.4141C64.2668 39.2218 64.3902 38.9705 64.4237 38.7003C64.4572 38.4301 64.399 38.1565 64.258 37.9232C63.8235 37.2016 63.4982 36.4202 63.2924 35.6043C63.2261 35.3402 63.0728 35.1056 62.8571 34.9381C62.6415 34.7707 62.3757 34.6798 62.1021 34.68H61.0083C60.9184 34.6789 60.8458 34.6067 60.8446 34.5173V32.4783C60.8458 32.3888 60.9184 32.3165 61.0083 32.3152H62.1021C62.3757 32.3156 62.6415 32.2249 62.8573 32.0573C63.073 31.89 63.2263 31.6554 63.2926 31.3913C63.4986 30.5753 63.824 29.794 64.2585 29.0724C64.3993 28.8389 64.4577 28.5653 64.424 28.2951C64.3906 28.0251 64.2671 27.7738 64.0735 27.5815L63.2995 26.8113C63.237 26.7474 63.237 26.6454 63.2995 26.5814L64.7486 25.1395C64.8131 25.0773 64.9152 25.0773 64.9797 25.1395L65.7539 25.9091C65.9471 26.1018 66.1997 26.2246 66.4712 26.2579C66.7428 26.2912 67.0177 26.2333 67.2522 26.093C67.9774 25.6608 68.7627 25.337 69.5827 25.1322C69.8481 25.0663 70.0839 24.9137 70.2523 24.6991C70.4204 24.4845 70.5118 24.22 70.5116 23.9479V22.8594C70.5127 22.77 70.5852 22.6978 70.6751 22.6965H72.7243C72.8142 22.6978 72.8869 22.77 72.8882 22.8594V23.9479C72.8878 24.22 72.979 24.4845 73.1474 24.6993C73.3156 24.9139 73.5513 25.0664 73.8167 25.1324C74.6368 25.3373 75.422 25.6612 76.1472 26.0935C76.3819 26.2336 76.6568 26.2917 76.9284 26.2582C77.1997 26.2249 77.4523 26.1021 77.6456 25.9094L78.4196 25.1393C78.4839 25.0771 78.5863 25.0771 78.6506 25.1393L80.0997 26.5812C80.1622 26.6454 80.1622 26.7469 80.0997 26.8111L79.3263 27.5814C79.1327 27.7737 79.0092 28.025 78.9758 28.2953C78.9423 28.5654 79.0005 28.839 79.1414 29.0723C79.576 29.7939 79.9012 30.5753 80.1071 31.3912C80.1734 31.6554 80.3267 31.8899 80.5423 32.0573C80.758 32.2247 81.0238 32.3155 81.2973 32.3152H82.3916C82.4815 32.3164 82.554 32.3888 82.5551 32.4783L82.5547 34.5173ZM71.6996 27.1035C69.9953 27.1035 68.3606 27.7772 67.1555 28.9763C65.9504 30.1754 65.2733 31.8019 65.2733 33.4978C65.2733 35.1936 65.9504 36.8201 67.1555 38.0193C68.3606 39.2184 69.9953 39.8921 71.6996 39.8921C73.4039 39.8921 75.0385 39.2184 76.2436 38.0193C77.4488 36.8202 78.1258 35.1936 78.1258 33.4978C78.1239 31.8025 77.4463 30.1772 76.2415 28.9784C75.0368 27.7797 73.4033 27.1054 71.6996 27.1035ZM71.6996 39.1954C70.1808 39.1954 68.7244 38.5951 67.6504 37.5266C66.5766 36.458 65.9733 35.0088 65.9733 33.4976C65.9733 31.9864 66.5766 30.5372 67.6504 29.4686C68.7244 28.4001 70.1808 27.7998 71.6996 27.7998C73.2183 27.7998 74.6747 28.4001 75.7487 29.4686C76.8226 30.5372 77.4258 31.9864 77.4258 33.4976C77.4242 35.0082 76.8204 36.4566 75.747 37.5249C74.6733 38.593 73.2178 39.1938 71.6996 39.1954Z" fill="#282828"></path>
<path d="M47.702 30.2334H46.8698C46.6854 30.2353 46.5242 30.1101 46.4811 29.9317C46.3119 29.2606 46.0444 28.6179 45.6867 28.0246C45.5908 27.8683 45.6159 27.6668 45.7474 27.5387L46.3358 26.9529C46.4589 26.8303 46.528 26.6639 46.528 26.4906C46.528 26.3172 46.4589 26.151 46.3358 26.0283L45.234 24.9304C45.1107 24.808 44.9437 24.7393 44.7695 24.7393C44.5952 24.7393 44.4282 24.808 44.3048 24.9304L43.7161 25.5159C43.5873 25.6466 43.3849 25.6718 43.2278 25.5762C42.6314 25.2205 41.9856 24.9543 41.3111 24.7859C41.1318 24.7429 41.0059 24.5824 41.008 24.3989V23.5713C41.0078 23.3976 40.9382 23.2313 40.8148 23.1086C40.6912 22.9861 40.5239 22.9172 40.3494 22.9175H38.7908C38.6166 22.9178 38.4495 22.9866 38.3264 23.1092C38.2033 23.2317 38.1339 23.3979 38.1336 23.5713V24.3994C38.1355 24.5829 38.0098 24.7432 37.8305 24.786C37.156 24.9544 36.5101 25.2206 35.9138 25.5765C35.7567 25.6719 35.5542 25.647 35.4255 25.5161L34.8359 24.9304C34.7125 24.808 34.5454 24.7392 34.3712 24.7392C34.1969 24.7392 34.0299 24.808 33.9065 24.9304L32.8045 26.0269C32.6813 26.1496 32.6122 26.3158 32.6122 26.4892C32.6122 26.6626 32.6813 26.8288 32.8045 26.9516L33.3931 27.5373C33.5243 27.6656 33.5494 27.8669 33.4535 28.0232C33.096 28.6167 32.8283 29.2592 32.6591 29.9304C32.6161 30.1088 32.4548 30.234 32.2703 30.232H31.4383C31.2638 30.2321 31.0966 30.3014 30.9733 30.4242C30.8502 30.5472 30.781 30.7136 30.7813 30.8873V32.4381C30.7815 32.6115 30.8507 32.7777 30.9739 32.9002C31.097 33.0228 31.2641 33.0918 31.4383 33.0921H32.2706C32.455 33.0902 32.6161 33.2153 32.6591 33.3937C32.8283 34.0648 33.096 34.7074 33.4535 35.3009C33.5493 35.4572 33.5242 35.6586 33.3929 35.7867L32.8045 36.3734C32.6815 36.4962 32.6124 36.6624 32.6124 36.8358C32.6124 37.0092 32.6815 37.1754 32.8045 37.2982L33.9062 38.395C34.0295 38.5174 34.1966 38.5861 34.3708 38.5861C34.545 38.5861 34.7121 38.5174 34.8355 38.395L35.4242 37.8095C35.5529 37.6788 35.7554 37.6536 35.9125 37.7492C36.5089 38.1049 37.1547 38.3711 37.8292 38.5395C38.0085 38.5823 38.1342 38.7428 38.1323 38.9263V39.7544C38.1326 39.9279 38.2022 40.0942 38.3256 40.2168C38.4491 40.3393 38.6165 40.408 38.7909 40.4079H40.3494C40.5237 40.4078 40.6907 40.3388 40.8139 40.2162C40.9372 40.0937 41.0065 39.9275 41.0066 39.7541V38.9261C41.0047 38.7426 41.1305 38.5822 41.3098 38.5394C41.9843 38.371 42.63 38.1046 43.2265 37.7489C43.3836 37.6534 43.586 37.6784 43.7148 37.8092L44.3034 38.3947C44.4267 38.5173 44.5939 38.586 44.7681 38.586C44.9424 38.586 45.1094 38.5173 45.2327 38.3947L46.3358 37.2985C46.459 37.1758 46.528 37.0096 46.528 36.8362C46.528 36.6628 46.459 36.4966 46.3358 36.3738L45.7471 35.7881C45.6159 35.6598 45.5909 35.4585 45.6868 35.3022C46.0443 34.7087 46.312 34.0662 46.4812 33.395C46.5242 33.2166 46.6855 33.0914 46.87 33.0934H47.7019C47.8765 33.0931 48.0436 33.024 48.1668 32.901C48.2901 32.7782 48.3591 32.6117 48.359 32.4381V30.8873C48.3589 30.7139 48.2895 30.5477 48.1664 30.4252C48.0432 30.3025 47.8762 30.2335 47.702 30.2334ZM39.57 26.7992C38.2737 26.7992 37.0304 27.3116 36.1138 28.2236C35.1971 29.1357 34.6822 30.3728 34.6822 31.6627C34.6822 32.9525 35.1972 34.1896 36.1138 35.1017C37.0304 36.0138 38.2737 36.5262 39.57 36.5262C40.8663 36.5262 42.1096 36.0137 43.0262 35.1017C43.9428 34.1897 44.4578 32.9525 44.4578 31.6627C44.4563 30.3732 43.9409 29.1371 43.0246 28.2253C42.1082 27.3135 40.8659 26.8006 39.57 26.7992ZM39.57 35.9962C38.4148 35.9962 37.3071 35.5397 36.4902 34.727C35.6735 33.9142 35.2146 32.8119 35.2146 31.6625C35.2146 30.5131 35.6735 29.4109 36.4902 28.598C37.3071 27.7854 38.4148 27.3288 39.57 27.3288C40.7251 27.3288 41.8329 27.7854 42.6498 28.598C43.4665 29.4109 43.9253 30.5131 43.9253 31.6625C43.9241 32.8115 43.4649 33.9131 42.6484 34.7256C41.8318 35.5381 40.7248 35.995 39.57 35.9962Z" fill="#F8C73B"></path>
<circle cx="39.4978" cy="31.6342" r="4.58769" fill="white"></circle>
<path d="M47.702 30.2334H46.8698C46.6854 30.2353 46.5242 30.1101 46.4811 29.9317C46.3119 29.2606 46.0444 28.6179 45.6867 28.0246C45.5908 27.8683 45.6159 27.6668 45.7474 27.5387L46.3358 26.9529C46.4589 26.8303 46.528 26.6639 46.528 26.4906C46.528 26.3172 46.4589 26.151 46.3358 26.0283L45.234 24.9304C45.1107 24.808 44.9437 24.7393 44.7695 24.7393C44.5952 24.7393 44.4282 24.808 44.3048 24.9304L43.7161 25.5159C43.5873 25.6466 43.3849 25.6718 43.2278 25.5762C42.6314 25.2205 41.9856 24.9543 41.3111 24.7859C41.1318 24.7429 41.0059 24.5824 41.008 24.3989V23.5713C41.0078 23.3976 40.9382 23.2313 40.8148 23.1086C40.6912 22.9861 40.5239 22.9172 40.3494 22.9175H38.7908C38.6166 22.9178 38.4495 22.9866 38.3264 23.1092C38.2033 23.2317 38.1339 23.3979 38.1336 23.5713V24.3994C38.1355 24.5829 38.0098 24.7432 37.8305 24.786C37.156 24.9544 36.5101 25.2206 35.9138 25.5765C35.7567 25.6719 35.5542 25.647 35.4255 25.5161L34.8359 24.9304C34.7125 24.808 34.5454 24.7392 34.3712 24.7392C34.1969 24.7392 34.0299 24.808 33.9065 24.9304L32.8045 26.0269C32.6813 26.1496 32.6122 26.3158 32.6122 26.4892C32.6122 26.6626 32.6813 26.8288 32.8045 26.9516L33.3931 27.5373C33.5243 27.6656 33.5494 27.8669 33.4535 28.0232C33.096 28.6167 32.8283 29.2592 32.6591 29.9304C32.6161 30.1088 32.4548 30.234 32.2703 30.232H31.4383C31.2638 30.2321 31.0966 30.3014 30.9733 30.4242C30.8502 30.5472 30.781 30.7136 30.7813 30.8873V32.4381C30.7815 32.6115 30.8507 32.7777 30.9739 32.9002C31.097 33.0228 31.2641 33.0918 31.4383 33.0921H32.2706C32.455 33.0902 32.6161 33.2153 32.6591 33.3937C32.8283 34.0648 33.096 34.7074 33.4535 35.3009C33.5493 35.4572 33.5242 35.6586 33.3929 35.7867L32.8045 36.3734C32.6815 36.4962 32.6124 36.6624 32.6124 36.8358C32.6124 37.0092 32.6815 37.1754 32.8045 37.2982L33.9062 38.395C34.0295 38.5174 34.1966 38.5861 34.3708 38.5861C34.545 38.5861 34.7121 38.5174 34.8355 38.395L35.4242 37.8095C35.5529 37.6788 35.7554 37.6536 35.9125 37.7492C36.5089 38.1049 37.1547 38.3711 37.8292 38.5395C38.0085 38.5823 38.1342 38.7428 38.1323 38.9263V39.7544C38.1326 39.9279 38.2022 40.0942 38.3256 40.2168C38.4491 40.3393 38.6165 40.408 38.7909 40.4079H40.3494C40.5237 40.4078 40.6907 40.3388 40.8139 40.2162C40.9372 40.0937 41.0065 39.9275 41.0066 39.7541V38.9261C41.0047 38.7426 41.1305 38.5822 41.3098 38.5394C41.9843 38.371 42.63 38.1046 43.2265 37.7489C43.3836 37.6534 43.586 37.6784 43.7148 37.8092L44.3034 38.3947C44.4267 38.5173 44.5939 38.586 44.7681 38.586C44.9424 38.586 45.1094 38.5173 45.2327 38.3947L46.3358 37.2985C46.459 37.1758 46.528 37.0096 46.528 36.8362C46.528 36.6628 46.459 36.4966 46.3358 36.3738L45.7471 35.7881C45.6159 35.6598 45.5909 35.4585 45.6868 35.3022C46.0443 34.7087 46.312 34.0662 46.4812 33.395C46.5242 33.2166 46.6855 33.0914 46.87 33.0934H47.7019C47.8765 33.0931 48.0436 33.024 48.1668 32.901C48.2901 32.7782 48.3591 32.6117 48.359 32.4381V30.8873C48.3589 30.7139 48.2895 30.5477 48.1664 30.4252C48.0432 30.3025 47.8762 30.2335 47.702 30.2334ZM47.8263 32.4381C47.8254 32.5062 47.7703 32.5611 47.702 32.5619H46.87C46.6619 32.5616 46.4596 32.6307 46.2956 32.7582C46.1314 32.8855 46.0149 33.0639 45.9645 33.2649C45.8079 33.8855 45.5603 34.4798 45.2298 35.0287C45.1227 35.2062 45.0783 35.4143 45.1039 35.6198C45.1294 35.8252 45.2233 36.0164 45.3706 36.1626L45.9592 36.7484C46.0068 36.7971 46.0068 36.8746 45.9592 36.9233L44.8572 38.0201C44.8082 38.0674 44.7304 38.0674 44.6813 38.0201L44.0925 37.4346C43.9455 37.288 43.7534 37.1946 43.547 37.1692C43.3405 37.1438 43.1313 37.1879 42.9529 37.2944C42.4013 37.6234 41.804 37.8697 41.1803 38.0255C40.9784 38.0756 40.7991 38.1917 40.6712 38.3549C40.5432 38.5181 40.4738 38.7193 40.474 38.9263V39.7544C40.4731 39.8225 40.4178 39.8774 40.3494 39.8782H38.7908C38.7224 39.8774 38.6672 39.8225 38.6664 39.7544V38.9261C38.6666 38.719 38.5972 38.5178 38.4692 38.3546C38.3411 38.1914 38.1618 38.0755 37.9599 38.0253C37.3362 37.8694 36.7389 37.6231 36.1873 37.2943C36.0088 37.1877 35.7997 37.1437 35.5933 37.1692C35.3868 37.1945 35.1947 37.2879 35.0477 37.4343L34.459 38.0201C34.4101 38.0674 34.3322 38.0674 34.2832 38.0201L33.181 36.9235C33.133 36.8748 33.133 36.7972 33.181 36.7485L33.7694 36.1626C33.9167 36.0163 34.0105 35.8252 34.036 35.6197C34.0615 35.4142 34.0172 35.2061 33.91 35.0286C33.5795 34.4798 33.3321 33.8855 33.1755 33.2649C33.1251 33.064 33.0085 32.8856 32.8444 32.7581C32.6804 32.6308 32.4782 32.5617 32.2702 32.5618H31.4382C31.3698 32.561 31.3147 32.5061 31.3137 32.4381V30.8873C31.3147 30.8192 31.3698 30.7642 31.4382 30.7632H32.2702C32.4782 30.7635 32.6804 30.6945 32.8446 30.5671C33.0086 30.4398 33.1252 30.2614 33.1756 30.0605C33.3323 29.4399 33.5799 28.8456 33.9104 28.2967C34.0174 28.1191 34.0619 27.911 34.0362 27.7055C34.0108 27.5001 33.9169 27.309 33.7696 27.1627L33.1809 26.577C33.1334 26.5283 33.1334 26.4508 33.1809 26.4021L34.2831 25.3054C34.3322 25.2581 34.4098 25.2581 34.4589 25.3054L35.0477 25.8907C35.1947 26.0373 35.3868 26.1307 35.5933 26.156C35.7999 26.1814 36.009 26.1373 36.1873 26.0306C36.7389 25.7019 37.3362 25.4556 37.9599 25.2998C38.1618 25.2497 38.3411 25.1336 38.4692 24.9704C38.5971 24.8072 38.6666 24.606 38.6664 24.399V23.5712C38.6672 23.5031 38.7224 23.4482 38.7908 23.4473H40.3494C40.4178 23.4482 40.4731 23.5031 40.474 23.5712V24.399C40.4738 24.606 40.5431 24.8072 40.6712 24.9705C40.7991 25.1338 40.9784 25.2498 41.1803 25.3C41.804 25.4559 42.4013 25.7022 42.9529 26.031C43.1313 26.1376 43.3405 26.1818 43.547 26.1563C43.7534 26.1309 43.9455 26.0375 44.0925 25.891L44.6812 25.3052C44.7301 25.2579 44.808 25.2579 44.8569 25.3052L45.9591 26.4019C46.0066 26.4507 46.0066 26.528 45.9591 26.5768L45.3708 27.1627C45.2236 27.309 45.1297 27.5001 45.1042 27.7056C45.0787 27.9111 45.123 28.1192 45.2302 28.2967C45.5608 28.8455 45.8081 29.4398 45.9647 30.0604C46.0151 30.2613 46.1317 30.4397 46.2958 30.567C46.4598 30.6943 46.662 30.7635 46.87 30.7632H47.7023C47.7707 30.7641 47.8258 30.8192 47.8267 30.8872L47.8263 32.4381ZM39.57 26.7992C38.2737 26.7992 37.0304 27.3116 36.1138 28.2236C35.1971 29.1357 34.6822 30.3728 34.6822 31.6627C34.6822 32.9525 35.1972 34.1896 36.1138 35.1017C37.0304 36.0138 38.2737 36.5262 39.57 36.5262C40.8663 36.5262 42.1096 36.0137 43.0262 35.1017C43.9428 34.1897 44.4578 32.9525 44.4578 31.6627C44.4563 30.3732 43.9409 29.1371 43.0246 28.2253C42.1082 27.3135 40.8659 26.8006 39.57 26.7992ZM39.57 35.9962C38.4148 35.9962 37.3071 35.5397 36.4902 34.727C35.6735 33.9142 35.2146 32.8119 35.2146 31.6625C35.2146 30.5131 35.6735 29.4109 36.4902 28.598C37.3071 27.7854 38.4148 27.3288 39.57 27.3288C40.7251 27.3288 41.8329 27.7854 42.6498 28.598C43.4665 29.4109 43.9253 30.5131 43.9253 31.6625C43.9241 32.8115 43.4649 33.9131 42.6484 34.7256C41.8318 35.5381 40.7248 35.995 39.57 35.9962Z" fill="#282828"></path>
<rect x="29.7504" y="39.8672" width="49.9931" height="3.17015" rx="1.58507" transform="rotate(8.28649 29.7504 39.8672)" fill="#F8C73B" stroke="#282828" stroke-width="0.5"></rect>
<path d="M51.0156 53.4051L54.1797 47.3158L57.3438 53.4051H51.0156Z" fill="#F8C73B" stroke="#282828" stroke-width="0.5"></path>
<path d="M39.9398 28.6432V29.5558H39.4412V28.6432H39.9398ZM39.8771 33.7645V34.6112H39.3785V33.7645H39.8771ZM40.0872 32.717C40.0872 32.602 40.0695 32.5069 40.0339 32.4316C39.9984 32.3563 39.9409 32.2905 39.8614 32.234C39.782 32.1776 39.6764 32.1211 39.5447 32.0647C39.2666 31.9518 39.0209 31.8358 38.8077 31.7166C38.5965 31.5974 38.4303 31.449 38.309 31.2713C38.1899 31.0935 38.1303 30.8625 38.1303 30.5782C38.1303 30.3189 38.1941 30.0931 38.3216 29.9008C38.4512 29.7084 38.6289 29.56 38.8547 29.4554C39.0826 29.3488 39.345 29.2955 39.6419 29.2955C39.8677 29.2955 40.0736 29.329 40.2597 29.3959C40.4458 29.4628 40.6068 29.56 40.7427 29.6875C40.8786 29.813 40.9831 29.9677 41.0563 30.1517C41.1295 30.3336 41.166 30.5405 41.166 30.7726H40.1092C40.1092 30.6534 40.0966 30.551 40.0715 30.4653C40.0485 30.3795 40.0151 30.3095 39.9712 30.2552C39.9273 30.2008 39.8761 30.1611 39.8175 30.136C39.759 30.1088 39.6952 30.0952 39.6262 30.0952C39.5217 30.0952 39.437 30.1182 39.3722 30.1642C39.3074 30.2081 39.2603 30.2666 39.2311 30.3398C39.2018 30.413 39.1872 30.4945 39.1872 30.5844C39.1872 30.6785 39.2028 30.7611 39.2342 30.8322C39.2677 30.9012 39.3241 30.966 39.4035 31.0266C39.483 31.0852 39.5917 31.1458 39.7297 31.2085C40.0015 31.3235 40.244 31.4427 40.4573 31.566C40.6705 31.6894 40.8378 31.841 40.9591 32.0208C41.0824 32.1985 41.1441 32.4285 41.1441 32.7107C41.1441 32.9825 41.0803 33.2146 40.9528 33.4069C40.8253 33.5972 40.6475 33.7425 40.4197 33.8429C40.1918 33.9432 39.9283 33.9934 39.6293 33.9934C39.4286 33.9934 39.229 33.9673 39.0304 33.915C38.8338 33.8627 38.654 33.7781 38.4909 33.661C38.33 33.5418 38.2014 33.3839 38.1052 33.1874C38.009 32.9909 37.9609 32.7494 37.9609 32.463H39.0178C39.0178 32.6031 39.0345 32.7201 39.068 32.8142C39.1014 32.9083 39.1464 32.9836 39.2028 33.04C39.2614 33.0944 39.3272 33.1341 39.4004 33.1592C39.4736 33.1822 39.5499 33.1937 39.6293 33.1937C39.736 33.1937 39.8227 33.1728 39.8896 33.131C39.9566 33.0871 40.0057 33.0296 40.037 32.9585C40.0705 32.8853 40.0872 32.8048 40.0872 32.717Z" fill="#282828"></path>
<path d="M78.8546 57.4858C76.3304 57.4858 74.0017 58.3156 72.1241 59.7178L71.3017 58.6657C73.406 57.0867 76.0219 56.1508 78.8546 56.1508C85.8109 56.1508 91.4501 61.79 91.4501 68.7463C91.4501 73.71 88.5788 78.0019 84.4092 80.0538L83.8436 78.8442C87.5611 77.0038 90.1151 73.1726 90.1151 68.7463C90.1151 62.5273 85.0736 57.4858 78.8546 57.4858Z" fill="#F8C73B" stroke="#282828" stroke-width="0.5"></path>
<path d="M75.2477 60.4082L70.1616 61.1427L70.8551 56.0509L75.2477 60.4082Z" fill="#F8C73B" stroke="#282828" stroke-width="0.5"></path>
<path d="M67.8446 81.5559C70.3688 81.5559 72.6975 80.7261 74.5751 79.324L75.3975 80.376C73.2932 81.9551 70.6773 82.891 67.8446 82.891C60.8883 82.891 55.2491 77.2518 55.2491 70.2955C55.2491 65.3317 58.1204 61.0399 62.29 58.9879L62.8556 60.1976C59.1381 62.0379 56.5841 65.8691 56.5841 70.2955C56.5841 76.5144 61.6256 81.5559 67.8446 81.5559Z" fill="#F8C73B" stroke="#282828" stroke-width="0.5"></path>
<path d="M71.4476 78.6336L76.5337 77.8991L75.8402 82.9909L71.4476 78.6336Z" fill="#F8C73B" stroke="#282828" stroke-width="0.5"></path>
<circle cx="79.3112" cy="68.2875" r="6.63153" fill="#F8C73B" stroke="#282828" stroke-width="0.5"></circle>
<path d="M79.852 63.6998V65.1029H79.1383V63.6998H79.852ZM79.7623 71.5734V72.8752H79.0485V71.5734H79.7623ZM80.063 69.963C80.063 69.7862 80.0376 69.64 79.9867 69.5242C79.9358 69.4085 79.8535 69.3073 79.7398 69.2205C79.6261 69.1337 79.475 69.0469 79.2864 68.9601C78.8884 68.7865 78.5368 68.6081 78.2315 68.4249C77.9293 68.2417 77.6914 68.0135 77.5178 67.7403C77.3472 67.4671 77.2619 67.1119 77.2619 66.6747C77.2619 66.2761 77.3532 65.929 77.5358 65.6333C77.7213 65.3375 77.9757 65.1093 78.2989 64.9486C78.6251 64.7847 79.0006 64.7027 79.4256 64.7027C79.7488 64.7027 80.0436 64.7541 80.3099 64.857C80.5763 64.9599 80.8067 65.1093 81.0012 65.3054C81.1957 65.4983 81.3454 65.7361 81.4501 66.019C81.5548 66.2986 81.6072 66.6169 81.6072 66.9736H80.0944C80.0944 66.7904 80.0765 66.6329 80.0406 66.5011C80.0077 66.3693 79.9598 66.2617 79.8969 66.1781C79.8341 66.0945 79.7608 66.0334 79.677 65.9949C79.5932 65.9531 79.5019 65.9322 79.4032 65.9322C79.2535 65.9322 79.1323 65.9676 79.0395 66.0383C78.9468 66.1058 78.8794 66.1958 78.8375 66.3083C78.7957 66.4208 78.7747 66.5461 78.7747 66.6844C78.7747 66.829 78.7971 66.956 78.842 67.0653C78.8899 67.1713 78.9707 67.271 79.0844 67.3642C79.1982 67.4542 79.3538 67.5474 79.5513 67.6438C79.9403 67.8206 80.2875 68.0038 80.5927 68.1935C80.898 68.3831 81.1374 68.6162 81.3109 68.8926C81.4875 69.1658 81.5758 69.5194 81.5758 69.9534C81.5758 70.3712 81.4845 70.728 81.302 71.0237C81.1194 71.3162 80.865 71.5396 80.5389 71.6939C80.2127 71.8482 79.8356 71.9254 79.4076 71.9254C79.1204 71.9254 78.8346 71.8852 78.5503 71.8048C78.2689 71.7245 78.0116 71.5943 77.7782 71.4143C77.5477 71.2311 77.3637 70.9884 77.226 70.6862C77.0884 70.3841 77.0195 70.0128 77.0195 69.5725H78.5323C78.5323 69.7878 78.5562 69.9678 78.6041 70.1125C78.652 70.2571 78.7163 70.3728 78.7971 70.4596C78.8809 70.5432 78.9752 70.6043 79.0799 70.6428C79.1847 70.6782 79.2939 70.6959 79.4076 70.6959C79.5603 70.6959 79.6845 70.6637 79.7802 70.5994C79.876 70.5319 79.9463 70.4435 79.9912 70.3343C80.0391 70.2218 80.063 70.098 80.063 69.963Z" fill="#282828"></path>
<circle cx="67.3854" cy="71.0401" r="6.63153" fill="#F8C73B" stroke="#282828" stroke-width="0.5"></circle>
<path d="M67.9224 66.4524V67.8555H67.2086V66.4524H67.9224ZM67.8326 74.326V75.6278H67.1188V74.326H67.8326ZM68.1333 72.7156C68.1333 72.5388 68.1079 72.3925 68.057 72.2768C68.0062 72.1611 67.9239 72.0598 67.8101 71.973C67.6964 71.8863 67.5453 71.7995 67.3568 71.7127C66.9587 71.5391 66.6071 71.3607 66.3019 71.1775C65.9996 70.9943 65.7617 70.7661 65.5881 70.4928C65.4175 70.2196 65.3322 69.8644 65.3322 69.4273C65.3322 69.0287 65.4235 68.6815 65.6061 68.3858C65.7916 68.0901 66.046 67.8619 66.3692 67.7012C66.6954 67.5372 67.071 67.4553 67.4959 67.4553C67.8191 67.4553 68.1139 67.5067 68.3802 67.6096C68.6466 67.7124 68.877 67.8619 69.0715 68.058C69.266 68.2508 69.4157 68.4887 69.5204 68.7715C69.6252 69.0512 69.6775 69.3694 69.6775 69.7262H68.1648C68.1648 69.543 68.1468 69.3855 68.1109 69.2537C68.078 69.1219 68.0301 69.0142 67.9672 68.9307C67.9044 68.8471 67.8311 68.786 67.7473 68.7474C67.6635 68.7057 67.5722 68.6848 67.4735 68.6848C67.3238 68.6848 67.2026 68.7201 67.1099 68.7908C67.0171 68.8583 66.9498 68.9483 66.9079 69.0608C66.866 69.1733 66.845 69.2987 66.845 69.4369C66.845 69.5816 66.8675 69.7085 66.9123 69.8178C66.9602 69.9239 67.041 70.0235 67.1548 70.1168C67.2685 70.2068 67.4241 70.3 67.6216 70.3964C68.0106 70.5732 68.3578 70.7564 68.663 70.9461C68.9683 71.1357 69.2077 71.3687 69.3813 71.6452C69.5578 71.9184 69.6461 72.272 69.6461 72.7059C69.6461 73.1238 69.5548 73.4806 69.3723 73.7763C69.1897 74.0688 68.9354 74.2922 68.6092 74.4465C68.283 74.6008 67.9059 74.6779 67.478 74.6779C67.1907 74.6779 66.9049 74.6377 66.6206 74.5574C66.3393 74.477 66.0819 74.3468 65.8485 74.1668C65.618 73.9836 65.434 73.7409 65.2963 73.4388C65.1587 73.1366 65.0898 72.7654 65.0898 72.325H66.6026C66.6026 72.5404 66.6266 72.7204 66.6744 72.865C66.7223 73.0097 66.7867 73.1254 66.8675 73.2122C66.9513 73.2958 67.0455 73.3568 67.1503 73.3954C67.255 73.4308 67.3642 73.4484 67.478 73.4484C67.6306 73.4484 67.7548 73.4163 67.8505 73.352C67.9463 73.2845 68.0166 73.1961 68.0615 73.0868C68.1094 72.9743 68.1333 72.8506 68.1333 72.7156Z" fill="#282828"></path>
</svg>
