<svg width="140" height="24" viewBox="0 0 140 24" fill="none" xmlns="http://www.w3.org/2000/svg">
<path d="M17.3038 9.84443C19.3157 9.84443 21.0758 9.98176 22.5841 10.2572C24.0931 10.533 25.3556 11.1185 26.3711 12.0152C27.3872 12.9125 27.8956 14.2167 27.8956 15.9287C27.8956 19.0881 26.4841 21.2232 23.6619 22.3336C20.8396 23.4446 17.6734 24 14.1636 24C10.6736 24 7.44078 23.4346 4.46451 22.3034C1.4883 21.172 0 19.017 0 15.8366L7.85176 15.8064C7.85176 17.2128 8.49298 18.1047 9.77583 18.4818C11.0583 18.8597 12.5622 19.0472 14.2863 19.0472C15.9079 19.0472 17.2991 18.8132 18.4587 18.344C19.6177 17.8755 20.1985 17.1111 20.1985 16.0511V16.0209C20.1985 15.4293 19.8384 14.9916 19.1201 14.7059C18.4018 14.4202 17.6321 14.2469 16.8112 14.1858C15.9901 14.1253 15.0048 14.0841 13.8553 14.0642H11.5462C9.32944 14.0642 7.4051 13.9263 5.77328 13.6506C4.14112 13.3757 2.77108 12.7693 1.66283 11.8317C0.554568 10.8946 0 9.50785 0 7.67393C0 4.49385 1.442 2.41995 4.326 1.45211C7.20967 0.484732 10.4887 0 14.1636 0C17.6118 0 20.7624 0.560623 23.6158 1.68187C26.4685 2.80257 27.8956 4.96359 27.8956 8.16263H20.1674C20.1674 7.14437 19.5872 6.38544 18.4276 5.88525C17.2679 5.38661 15.8569 5.10616 14.1943 5.04499C12.4083 5.04499 10.8997 5.248 9.66792 5.65603C8.43639 6.06406 7.82056 6.70609 7.82056 7.58204C7.82056 8.49873 8.44675 9.11132 9.69886 9.41697C10.9504 9.72236 12.367 9.87495 13.9478 9.87495L17.3038 9.84443Z" fill="white"></path>
<path d="M42.0283 11.0372L54.4364 23.2969H45.1071L35.8706 13.8187V23.2969H28.2656V0.67309H35.8706V8.5298L44.5534 0.67309H53.9747L42.0283 11.0372Z" fill="white"></path>
<path d="M67.9838 7.58212L64.289 14.3082H71.6476L67.9838 7.58212ZM84.21 23.2969H76.5434L74.4191 19.4143H61.5182L59.3939 23.2969H51.7266L64.0737 0.67309H71.8635L84.21 23.2969Z" fill="white"></path>
<path d="M102.606 6.60397C102.267 6.23694 101.831 6.01316 101.298 5.93102C100.763 5.85042 99.984 5.80861 98.9578 5.80861H97.8496C96.3305 5.85042 93.9185 5.86985 90.6135 5.86985V10.7313H98.8962H98.9578C99.984 10.7313 100.763 10.6903 101.298 10.6089C101.831 10.5278 102.267 10.3185 102.606 9.98182C102.945 9.64571 103.114 9.10116 103.114 8.347C103.114 7.55165 102.945 6.97106 102.606 6.60397ZM101.637 23.2659L95.3245 15.959H90.6135V23.2659H83.3477V0.642084H100.559C102.468 0.642084 104.155 0.958761 105.623 1.59003C107.091 2.22258 108.23 3.10297 109.041 4.23443C109.851 5.36569 110.258 6.67596 110.258 8.16269V8.28503C110.258 10.2224 109.688 11.8223 108.548 13.0853C107.41 14.3499 105.834 15.1949 103.822 15.6229L110.442 23.2659H101.637Z" fill="white"></path>
<path d="M130.302 18.0838C130.877 18.0134 131.339 17.8089 131.688 17.4728C132.037 17.1362 132.211 16.601 132.211 15.8676C132.211 15.1545 132.037 14.6396 131.688 14.3236C131.339 14.0083 130.877 13.8148 130.302 13.7428C129.727 13.6717 128.865 13.636 127.716 13.636H127.685H117.894V18.1605C120.789 18.1605 122.846 18.166 124.067 18.176C125.289 18.1867 126.125 18.1907 126.576 18.1907H127.716C128.865 18.1907 129.727 18.1558 130.302 18.0838ZM128.963 9.46222C129.445 9.4118 129.856 9.23299 130.195 8.92707C130.533 8.62196 130.702 8.11229 130.702 7.39914C130.702 6.74663 130.538 6.27871 130.21 5.99221C129.881 5.70733 129.46 5.52899 128.948 5.45707C128.434 5.38669 127.685 5.35018 126.7 5.35018H126.669H117.894V9.50793C120.008 9.50793 121.404 9.51868 122.082 9.53892H123.559H126.7C127.726 9.53892 128.48 9.51317 128.963 9.46222ZM138.677 13.2232C139.559 14.0695 140.001 15.276 140.001 16.8458V16.9681C140.001 19.2718 139.041 20.8971 137.123 21.845C135.203 22.7927 132.447 23.2766 128.856 23.2969H128.794H127.592H110.781V0.67309H130.271C132.653 0.693325 134.551 1.18249 135.967 2.13985C137.384 3.09829 138.092 4.45346 138.092 6.20597V6.32912C138.092 7.65384 137.815 8.73408 137.261 9.5691C136.706 10.4054 135.876 11.0272 134.767 11.4345C136.491 11.7813 137.795 12.3777 138.677 13.2232Z" fill="white"></path>
</svg>
