<svg width="129" height="22" viewBox="0 0 129 22" fill="none" xmlns="http://www.w3.org/2000/svg">
<path d="M15.9442 9.02406C17.7981 9.02406 19.4199 9.14995 20.8097 9.40246C22.2 9.65522 23.3634 10.192 24.299 11.0139C25.2353 11.8364 25.7038 13.032 25.7038 14.6013C25.7038 17.4974 24.4032 19.4546 21.8027 20.4725C19.2022 21.4909 16.2848 22 13.0508 22C9.83492 22 6.85615 21.4817 4.11372 20.4448C1.37137 19.4076 0 17.4322 0 14.5168L7.23484 14.4892C7.23484 15.7784 7.82568 16.596 9.00773 16.9417C10.1895 17.288 11.5752 17.4599 13.1638 17.4599C14.658 17.4599 15.9399 17.2454 17.0084 16.8153C18.0763 16.3859 18.6115 15.6852 18.6115 14.7135V14.6858C18.6115 14.1436 18.2796 13.7423 17.6178 13.4804C16.956 13.2185 16.2467 13.0597 15.4903 13.0036C14.7337 12.9482 13.8259 12.9104 12.7667 12.8921H10.639C8.59642 12.8921 6.82327 12.7658 5.31967 12.5131C3.81575 12.261 2.55335 11.7052 1.53217 10.8457C0.510995 9.98667 0 8.71553 0 7.03444C0 4.11936 1.3287 2.21829 3.9861 1.3311C6.64319 0.44434 9.66463 0 13.0508 0C16.228 0 19.1311 0.513905 21.7603 1.54171C24.3889 2.56903 25.7038 4.54996 25.7038 7.48241H18.5828C18.5828 6.54901 18.0482 5.85332 16.9797 5.39482C15.9111 4.93773 14.611 4.68065 13.079 4.62458C11.4333 4.62458 10.0433 4.81067 8.9083 5.1847C7.77353 5.55873 7.20608 6.14725 7.20608 6.95021C7.20608 7.79051 7.78308 8.35204 8.93681 8.63222C10.09 8.91216 11.3953 9.05203 12.8519 9.05203L15.9442 9.02406Z" fill="#F8C73B"></path>
<path d="M38.7243 10.1174L50.1574 21.3555H41.5612L33.0504 12.6672V21.3555H26.043V0.616997H33.0504V7.81898L41.051 0.616997H49.732L38.7243 10.1174Z" fill="#F8C73B"></path>
<path d="M62.6401 6.95027L59.2355 13.1158H66.0159L62.6401 6.95027ZM77.5913 21.3555H70.5271L68.5697 17.7965H56.6824L54.725 21.3555H47.6602L59.0372 0.616997H66.2149L77.5913 21.3555Z" fill="#F8C73B"></path>
<path d="M94.5459 6.05349C94.234 5.71705 93.8323 5.51192 93.3408 5.43662C92.848 5.36274 92.13 5.32442 91.1844 5.32442H90.1633C88.7635 5.36274 86.541 5.38055 83.4958 5.38055V9.83685H91.1276H91.1844C92.13 9.83685 92.848 9.79932 93.3408 9.7247C93.8323 9.65033 94.234 9.45844 94.5459 9.14985C94.8584 8.84176 95.0144 8.34258 95.0144 7.65128C95.0144 6.9222 94.8584 6.38999 94.5459 6.05349ZM93.6526 21.3269L87.8366 14.6289H83.4958V21.3269H76.8008V0.588432H92.6596C94.4186 0.588432 95.9737 0.878719 97.3261 1.45738C98.6784 2.03722 99.7282 2.84425 100.475 3.88142C101.222 4.91841 101.596 6.11949 101.596 7.48232V7.59446C101.596 9.37039 101.071 10.8369 100.021 11.9947C98.9722 13.1539 97.5201 13.9285 95.6668 14.3208L101.766 21.3269H93.6526Z" fill="#F8C73B"></path>
<path d="M120.061 16.5768C120.591 16.5123 121.016 16.3248 121.338 16.0167C121.659 15.7081 121.82 15.2176 121.82 14.5453C121.82 13.8916 121.659 13.4196 121.338 13.13C121.016 12.8409 120.591 12.6635 120.061 12.5976C119.532 12.5323 118.737 12.4996 117.679 12.4996H117.65H108.628V16.6471C111.295 16.6471 113.191 16.6521 114.316 16.6613C115.442 16.6712 116.212 16.6748 116.628 16.6748H117.679C118.737 16.6748 119.532 16.6428 120.061 16.5768ZM118.828 8.6737C119.272 8.62748 119.65 8.46358 119.962 8.18315C120.274 7.90346 120.43 7.43626 120.43 6.78255C120.43 6.18441 120.278 5.75548 119.977 5.49286C119.673 5.23172 119.285 5.06824 118.813 5.00231C118.34 4.93779 117.65 4.90433 116.742 4.90433H116.714H108.628V8.7156C110.576 8.7156 111.862 8.72546 112.487 8.744H113.848H116.742C117.688 8.744 118.383 8.7204 118.828 8.6737ZM127.778 12.1212C128.591 12.897 128.998 14.003 128.998 15.4419V15.5541C128.998 17.6658 128.114 19.1557 126.346 20.0246C124.577 20.8933 122.037 21.3369 118.728 21.3555H118.672H117.564H102.074V0.616997H120.033C122.227 0.635544 123.977 1.08395 125.281 1.96153C126.587 2.84009 127.239 4.08233 127.239 5.68881V5.80169C127.239 7.01602 126.984 8.00624 126.473 8.77167C125.962 9.53828 125.197 10.1083 124.175 10.4816C125.764 10.7996 126.965 11.3462 127.778 12.1212Z" fill="#F8C73B"></path>
</svg>
