<svg width="110" height="110" fill="none" xmlns="http://www.w3.org/2000/svg">
  <path d="m55 0 47.631 27.5v55L55 110 7.369 82.5v-55L55 0Z" fill="#fff"/>
  <path d="M23.35 37.8A5.65 5.65 0 0 1 29 32.15h52a5.65 5.65 0 0 1 5.65 5.65v30.217a5.65 5.65 0 0 1-5.65 5.65H29a5.65 5.65 0 0 1-5.65-5.65V37.8Z" fill="#F8C73B" stroke="#282828" stroke-width=".7"/>
  <path stroke="#282828" stroke-width=".5" d="M30.25 37v31m50.75.25H30"/>
  <path d="m27.703 41 2.598-4.5 2.598 4.5h-5.196ZM77 65.902l4.5 2.598-4.5 2.598v-5.196Z" fill="#fff" stroke="#282828" stroke-width=".5"/>
  <path d="m50 74-4 7m14-7 4 7m-24.65.65h31.3" stroke="#282828" stroke-width=".7" stroke-linecap="round"/>
  <rect x="63.25" y="49.25" width="2.5" height="2.5" rx=".75" fill="#fff" stroke="#282828" stroke-width=".5"/>
  <rect x="68.25" y="49.25" width="12.5" height="2.5" rx=".75" fill="#fff" stroke="#282828" stroke-width=".5"/>
  <rect x="63.25" y="53.25" width="2.5" height="2.5" rx=".75" fill="#fff" stroke="#282828" stroke-width=".5"/>
  <rect x="63.25" y="41.25" width="2.5" height="2.5" rx=".75" fill="#fff" stroke="#282828" stroke-width=".5"/>
  <rect x="63.25" y="37.25" width="2.5" height="2.5" rx=".75" fill="#fff" stroke="#282828" stroke-width=".5"/>
  <rect x="68.25" y="41.25" width="12.5" height="2.5" rx=".75" fill="#fff" stroke="#282828" stroke-width=".5"/>
  <rect x="68.25" y="37.25" width="12.5" height="2.5" rx=".75" fill="#fff" stroke="#282828" stroke-width=".5"/>
  <rect x="68.25" y="53.25" width="12.5" height="2.5" rx=".75" fill="#fff" stroke="#282828" stroke-width=".5"/>
  <rect x="63.25" y="45.25" width="2.5" height="2.5" rx=".75" fill="#fff" stroke="#282828" stroke-width=".5"/>
  <rect x="63.25" y="57.25" width="2.5" height="2.5" rx=".75" fill="#fff" stroke="#282828" stroke-width=".5"/>
  <rect x="63.25" y="61.25" width="2.5" height="2.5" rx=".75" fill="#fff" stroke="#282828" stroke-width=".5"/>
  <rect x="68.25" y="45.25" width="12.5" height="2.5" rx=".75" fill="#fff" stroke="#282828" stroke-width=".5"/>
  <rect x="68.25" y="57.25" width="12.5" height="2.5" rx=".75" fill="#fff" stroke="#282828" stroke-width=".5"/>
  <rect x="68.25" y="61.25" width="12.5" height="2.5" rx=".75" fill="#fff" stroke="#282828" stroke-width=".5"/>
  <path d="M30.5 68 39 52.5c.833 2 2.5 5.9 2.5 5.5 0-.4 4.667-12.833 7-19" stroke="#282828" stroke-width=".5"/>
  <path d="m46.175 39.83 2.656-2.656.972 3.628-3.628-.972Z" fill="#fff" stroke="#282828" stroke-width=".5"/>
  <path d="m30.5 68 8.5-6 3 3 13.5-13" stroke="#282828" stroke-width=".5"/>
  <path d="m53.684 51.19 3.638-.933-1.01 3.617-2.628-2.684Z" fill="#fff" stroke="#282828" stroke-width=".5"/>
</svg>
