<svg width="32" height="32" viewBox="0 0 32 32" fill="none" xmlns="http://www.w3.org/2000/svg">
<path d="M29.9793 8.02825V16.0189L22.9935 12.0236L16.0078 8.0095L23.0125 4.03293L29.9982 0.0375977L29.9793 8.02825Z" fill="#072B38"></path>
<path d="M15.991 15.9999V23.9906L9.00526 19.9953L2.01953 15.9812L9.00526 12.0046L15.991 8.00928V15.9999Z" fill="#144556"></path>
<path d="M2.01953 7.99066V0L9.00526 3.99533L15.991 7.99066L9.00526 12.0047L2.01953 15.9813V7.99066Z" fill="#41D9BF"></path>
<path d="M2 23.9719L2.01893 15.9812L9.00466 19.9953L15.9904 23.9906L9.00466 27.9859L2 31.9625V23.9719Z" fill="#072B38"></path>
<path d="M22.9935 12.0234L16.0078 8.00928V15.9999V23.9906L22.9746 28.0047L29.9603 32V24.0093L29.9793 16.0187L22.9935 12.0234Z" fill="#41D9BF"></path>
</svg>
