<svg width="110" height="110" viewBox="0 0 110 110" fill="none" xmlns="http://www.w3.org/2000/svg">
<path d="M55 0L102.631 27.5V82.5L55 110L7.3686 82.5L7.3686 27.5L55 0Z" fill="#F8C73B"></path>
<circle cx="58" cy="33" r="14.75" fill="white" stroke="#282828" stroke-width="0.5"></circle>
<path d="M58.1809 33.1637L58.2427 33.0931V32.9992C58.2427 29.7775 58.2431 27.3817 58.2435 25.5309C58.2436 25.022 58.2437 24.5543 58.2438 24.1219C58.2441 23.1065 58.2443 22.2861 58.2443 21.5852C64.4341 21.7182 69.411 26.7775 69.411 32.9992C69.411 39.3044 64.2996 44.4159 57.9943 44.4159C55.1862 44.4159 52.6154 43.4023 50.6268 41.7208C53.8192 37.9013 54.8337 36.8185 55.8791 35.7026C56.4894 35.0512 57.1102 34.3886 58.1809 33.1637Z" fill="white" stroke="#282828" stroke-width="0.5"></path>
<path d="M57.168 21.3337C54.9685 21.3337 52.9112 21.9423 51.1553 23.0004" stroke="#282828" stroke-width="0.5"></path>
<path d="M46.2728 37.1675C45.7779 35.8735 45.5067 34.4688 45.5067 33.0008C45.5067 30.7015 46.1719 28.5575 47.3203 26.7508" stroke="#282828" stroke-width="0.5"></path>
<path d="M69.2487 33.4175H65.082" stroke="#282828" stroke-width="0.5"></path>
<path d="M49.6667 33.4175H45.5" stroke="#282828" stroke-width="0.5"></path>
<path d="M58 44.6667L58 40.5" stroke="#282828" stroke-width="0.5"></path>
<line x1="19.25" y1="33" x2="19.25" y2="81" stroke="#282828" stroke-width="0.5"></line>
<line x1="93" y1="81.25" x2="19" y2="81.25" stroke="#282828" stroke-width="0.5"></line>
<path d="M16.9019 36L19.5 31.5L22.0981 36H16.9019Z" fill="white" stroke="#282828" stroke-width="0.5"></path>
<path d="M90 78.9019L94.5 81.5L90 84.0981L90 78.9019Z" fill="white" stroke="#282828" stroke-width="0.5"></path>
<rect x="28.25" y="46.25" width="4.5" height="10.5" rx="0.75" fill="white" stroke="#282828" stroke-width="0.5"></rect>
<rect x="63.25" y="60.25" width="4.5" height="7.5" rx="0.75" fill="white" stroke="#282828" stroke-width="0.5"></rect>
<rect x="70.25" y="68.25" width="4.5" height="5.5" rx="0.75" fill="white" stroke="#282828" stroke-width="0.5"></rect>
<rect x="35.25" y="57.25" width="4.5" height="8.5" rx="0.75" fill="white" stroke="#282828" stroke-width="0.5"></rect>
<rect x="84.25" y="40.25" width="4.5" height="14.5" rx="0.75" fill="white" stroke="#282828" stroke-width="0.5"></rect>
<rect x="42.25" y="66.25" width="4.5" height="11.5" rx="0.75" fill="white" stroke="#282828" stroke-width="0.5"></rect>
<rect x="77.25" y="55.25" width="4.5" height="15.5" rx="0.75" fill="white" stroke="#282828" stroke-width="0.5"></rect>
<rect x="49.25" y="60.25" width="4.5" height="5.5" rx="0.75" fill="white" stroke="#282828" stroke-width="0.5"></rect>
<rect x="56.25" y="54.25" width="4.5" height="5.5" rx="0.75" fill="white" stroke="#282828" stroke-width="0.5"></rect>
<path d="M30.5 46V43.5" stroke="#282828" stroke-width="0.5"></path>
<path d="M30.5 56.5V62" stroke="#282828" stroke-width="0.5"></path>
<path d="M37.5 66C37.5 67.5 37.5 70.5 37.5 70.5" stroke="#282828" stroke-width="0.5"></path>
<path d="M51.5 60V58" stroke="#282828" stroke-width="0.5"></path>
<path d="M51.5 66V71.5" stroke="#282828" stroke-width="0.5"></path>
<path d="M44.5 66V64" stroke="#282828" stroke-width="0.5"></path>
<path d="M44.5 77.5C44.5 78 44.5 79 44.5 79" stroke="#282828" stroke-width="0.5"></path>
<path d="M79.5 55V51.5" stroke="#282828" stroke-width="0.5"></path>
<path d="M58.5 54.5V51.5" stroke="#282828" stroke-width="0.5"></path>
<path d="M65.5 68V73.5" stroke="#282828" stroke-width="0.5"></path>
<path d="M86.5 55C86.5 57 86.5 61 86.5 61" stroke="#282828" stroke-width="0.5"></path>
</svg>
