<svg width="110" height="110" viewBox="0 0 110 110" fill="none" xmlns="http://www.w3.org/2000/svg">
<path d="M55 0L102.631 27.5V82.5L55 110L7.3686 82.5L7.3686 27.5L55 0Z" fill="white"></path>
<path d="M34.9412 31.5433L26.568 26.6235L18 31.5433V41.1861L26.568 46.1059L34.9412 41.1861V31.5433Z" fill="#F8C73B" stroke="#282828" stroke-width="0.8" stroke-linecap="round"></path>
<path d="M34.9412 31.7402L26.568 36.66M26.568 36.66L18 31.7402M26.568 36.66V46.106" stroke="#282828" stroke-width="0.8" stroke-linecap="round"></path>
<path d="M34.9412 68.814L26.568 63.8942L18 68.814V78.4567L26.568 83.3765L34.9412 78.4567V68.814Z" fill="#F8C73B" stroke="#282828" stroke-width="0.8" stroke-linecap="round"></path>
<path d="M34.9412 69.011L26.568 73.9308M26.568 73.9308L18 69.011M26.568 73.9308V83.3768" stroke="#282828" stroke-width="0.8" stroke-linecap="round"></path>
<path d="M90.8474 31.5433L82.4742 26.6235L73.9062 31.5433V41.1861L82.4742 46.1059L90.8474 41.1861V31.5433Z" fill="#F8C73B" stroke="#282828" stroke-width="0.8" stroke-linecap="round"></path>
<path d="M90.8474 31.7402L82.4742 36.66M82.4742 36.66L73.9062 31.7402M82.4742 36.66V46.106" stroke="#282828" stroke-width="0.8" stroke-linecap="round"></path>
<path d="M90.8474 68.814L82.4742 63.8942L73.9062 68.814V78.4567L82.4742 83.3765L90.8474 78.4567V68.814Z" fill="#F8C73B" stroke="#282828" stroke-width="0.8" stroke-linecap="round"></path>
<path d="M90.8474 69.0109L82.4742 73.9307M82.4742 73.9307L73.9062 69.0109M82.4742 73.9307V83.3766" stroke="#282828" stroke-width="0.8" stroke-linecap="round"></path>
<path d="M62.8943 23.9198L54.5211 19L45.9531 23.9198V33.5626L54.5211 38.4824L62.8943 33.5626V23.9198Z" fill="#F8C73B" stroke="#282828" stroke-width="0.8" stroke-linecap="round"></path>
<path d="M62.8943 24.1167L54.5211 29.0365M54.5211 29.0365L45.9531 24.1167M54.5211 29.0365V38.4825" stroke="#282828" stroke-width="0.8" stroke-linecap="round"></path>
<path d="M62.8943 76.4375L54.5211 71.5177L45.9531 76.4375V86.0803L54.5211 91.0001L62.8943 86.0803V76.4375Z" fill="#F8C73B" stroke="#282828" stroke-width="0.8" stroke-linecap="round"></path>
<path d="M62.8943 76.6344L54.5211 81.5542M54.5211 81.5542L45.9531 76.6344M54.5211 81.5542V91.0002" stroke="#282828" stroke-width="0.8" stroke-linecap="round"></path>
<path d="M56.5938 58.8829L56.5938 58.8829L56.5955 58.8874C56.6679 59.0748 56.708 59.2966 56.708 59.5588C56.708 59.834 56.6394 60.0827 56.5017 60.3131C56.3756 60.5156 56.1662 60.6998 55.841 60.8526C55.5302 60.9899 55.0912 61.0706 54.5017 61.0706C53.9491 61.0706 53.469 61.0236 53.0582 60.9337C52.6589 60.8375 52.3376 60.6897 52.0838 60.4986C51.8383 60.3051 51.6474 60.0484 51.5139 59.7169C51.3805 59.3856 51.3059 58.9585 51.3059 58.4225V58.0225H50.9059H46H45.6V58.4225C45.6 59.629 45.8539 60.6945 46.3782 61.6036L46.3782 61.6036L46.3809 61.6081C46.9049 62.4901 47.603 63.2163 48.4709 63.784L48.4735 63.7856C49.3294 64.336 50.2797 64.7446 51.3218 65.013L51.3259 65.0141C52.3699 65.2713 53.4288 65.4 54.5017 65.4C55.6631 65.4 56.7246 65.2768 57.6831 65.026C58.641 64.7754 59.4762 64.4055 60.1812 63.9102L60.1812 63.9102L60.1841 63.9081C60.8916 63.4015 61.4412 62.7797 61.8251 62.0432C62.2119 61.301 62.4 60.4606 62.4 59.5321C62.4 58.6623 62.2373 57.8682 61.9029 57.1578C61.5803 56.4527 61.1038 55.8296 60.4807 55.2883C59.8717 54.7424 59.1285 54.2644 58.2574 53.8509C57.3994 53.4305 56.423 53.0537 55.3303 52.7193C54.7635 52.5439 54.2544 52.3651 53.8024 52.183C53.3644 52.0029 52.9969 51.8175 52.6964 51.6283C52.4131 51.4442 52.2071 51.2583 52.0658 51.0748C51.9485 50.9034 51.8913 50.718 51.8913 50.508C51.8913 50.2378 51.9703 49.9944 52.1354 49.7672L52.1355 49.7672L52.1387 49.7626C52.3009 49.5327 52.5512 49.3338 52.9164 49.1781C53.2709 49.027 53.7295 48.9428 54.3066 48.9428C54.896 48.9428 55.3537 49.0429 55.6994 49.2197C56.0535 49.4009 56.3022 49.641 56.4643 49.9377L56.4642 49.9377L56.468 49.9443C56.6427 50.2503 56.7359 50.6124 56.7359 51.0428V51.4428H57.1359H62H62.4V51.0428C62.4 49.739 62.054 48.5904 61.35 47.6152C60.6617 46.6401 59.7089 45.8973 58.5078 45.3818C57.3148 44.8568 55.9486 44.6 54.4181 44.6C53.264 44.6 52.1926 44.7326 51.2066 45.0013C50.222 45.2608 49.3528 45.6432 48.6044 46.1531C47.8619 46.6566 47.2752 47.2746 46.8526 48.0079C46.4241 48.7423 46.2132 49.5657 46.2132 50.4679C46.2132 51.4011 46.4173 52.2386 46.8383 52.9674L46.8383 52.9674L46.8395 52.9695C47.2492 53.6693 47.8017 54.2786 48.491 54.798L48.4938 54.8001C49.1705 55.3009 49.9352 55.7386 50.7861 56.1145L50.7861 56.1145L50.7894 56.116C51.6287 56.4778 52.5004 56.8032 53.4043 57.0922L53.4057 57.0927C54.1582 57.3303 54.7519 57.5556 55.1929 57.7671L55.1928 57.7672L55.2013 57.771C55.6582 57.9772 55.9828 58.1729 56.1934 58.3525C56.4046 58.5326 56.5297 58.7107 56.5938 58.8829Z" fill="#F8C73B" stroke="#282828" stroke-width="0.8"></path>
<path d="M82.5 46V64" stroke="#282828" stroke-width="0.8"></path>
<path d="M26.5 46V64" stroke="#282828" stroke-width="0.8"></path>
<path d="M74 74L63 81" stroke="#282828" stroke-width="0.8"></path>
<path d="M46 81.5L35 74" stroke="#282828" stroke-width="0.8"></path>
<path d="M35 36L46 28.5" stroke="#282828" stroke-width="0.8"></path>
<path d="M63 28.5L74 36" stroke="#282828" stroke-width="0.8"></path>
</svg>
