<svg width="110" height="110" fill="none" xmlns="http://www.w3.org/2000/svg">
  <path d="m55 0 47.631 27.5v55L55 110 7.369 82.5v-55L55 0Z" fill="#F8C73B"/>
  <path d="M27.398 54.74h-5" stroke="#282828" stroke-width=".7"/>
  <circle cx="20" cy="54.5" r="2.65" transform="rotate(180 20 54.5)" fill="#fff" stroke="#282828" stroke-width=".7"/>
  <path d="M54.36 27.11v-6" stroke="#282828" stroke-width=".7"/>
  <circle cx="54.398" cy="20" r="2.65" transform="rotate(-90 54.398 20)" fill="#fff" stroke="#282828" stroke-width=".7"/>
  <path d="m34.883 34.887-4.243-4.243" stroke="#282828" stroke-width=".7"/>
  <circle cx="30.242" cy="30.243" r="2.65" transform="rotate(-135 30.242 30.243)" fill="#fff" stroke="#282828" stroke-width=".7"/>
  <path d="m28.996 44.5-4.766-2.849" stroke="#282828" stroke-width=".7"/>
  <circle cx="23.097" cy="41.099" r="2.65" transform="rotate(-150 23.097 41.099)" fill="#fff" stroke="#282828" stroke-width=".7"/>
  <path d="m44.598 28.701-3-5.196" stroke="#282828" stroke-width=".7"/>
  <circle cx="41.598" cy="23.098" r="2.65" transform="rotate(-120 41.598 23.098)" fill="#fff" stroke="#282828" stroke-width=".7"/>
  <path d="M27 55c0-15.464 12.236-28 27.7-28M83 55c0 15.464-12.536 28-28 28m27.629-28h5" stroke="#282828" stroke-width=".7"/>
  <circle cx="90.359" cy="55" r="2.65" fill="#fff" stroke="#282828" stroke-width=".7"/>
  <path d="M55 82.63v6" stroke="#282828" stroke-width=".7"/>
  <circle cx="55" cy="88.739" r="2.65" transform="rotate(90 55 88.74)" fill="#fff" stroke="#282828" stroke-width=".7"/>
  <path d="m75 75 4.243 4.243" stroke="#282828" stroke-width=".7"/>
  <circle cx="79.242" cy="79.243" r="2.65" transform="rotate(45 79.242 79.243)" fill="#fff" stroke="#282828" stroke-width=".7"/>
  <path d="m81 65.781 5.196 3" stroke="#282828" stroke-width=".7"/>
  <circle cx="87.098" cy="69.098" r="2.65" transform="rotate(30 87.098 69.098)" fill="#fff" stroke="#282828" stroke-width=".7"/>
  <path d="m65.781 81.002 3 5.196" stroke="#282828" stroke-width=".7"/>
  <circle cx="68.402" cy="86.097" r="2.65" transform="rotate(60 68.402 86.097)" fill="#fff" stroke="#282828" stroke-width=".7"/>
  <path d="M68.771 56.385H67.21a.739.739 0 0 1-.73-.552 12.66 12.66 0 0 0-1.492-3.49.703.703 0 0 1 .114-.888l1.105-1.072a1.18 1.18 0 0 0 .361-.846c0-.317-.13-.621-.36-.846l-2.07-2.008a1.254 1.254 0 0 0-.872-.35c-.327 0-.64.126-.873.35l-1.105 1.071a.76.76 0 0 1-.917.11 13.524 13.524 0 0 0-3.599-1.446.725.725 0 0 1-.569-.708v-1.514a1.18 1.18 0 0 0-.362-.846 1.255 1.255 0 0 0-.874-.35H52.04c-.327 0-.64.127-.872.35a1.18 1.18 0 0 0-.362.846v1.515a.724.724 0 0 1-.569.708c-1.266.308-2.48.795-3.599 1.446a.76.76 0 0 1-.917-.11l-1.107-1.072a1.256 1.256 0 0 0-.872-.35c-.328 0-.641.126-.873.35l-2.07 2.006a1.178 1.178 0 0 0-.36.846c0 .317.13.621.36.846l1.106 1.071a.704.704 0 0 1 .114.89 12.667 12.667 0 0 0-1.492 3.489.739.739 0 0 1-.73.551h-1.562c-.328 0-.642.127-.873.352a1.18 1.18 0 0 0-.361.847v2.838c0 .317.13.621.362.845.231.224.545.35.872.351h1.562a.738.738 0 0 1 .73.552c.318 1.228.82 2.403 1.492 3.49a.704.704 0 0 1-.114.888L40.8 67.619a1.18 1.18 0 0 0-.36.846c0 .317.129.62.36.846l2.069 2.006c.231.224.545.35.872.35.327 0 .64-.126.872-.35l1.106-1.071a.76.76 0 0 1 .917-.11c1.12.65 2.332 1.138 3.599 1.446a.725.725 0 0 1 .569.707v1.515c0 .318.131.622.363.846.232.224.546.35.873.35h2.927c.327 0 .64-.126.872-.35.231-.225.361-.529.362-.846v-1.515a.724.724 0 0 1 .569-.708 13.528 13.528 0 0 0 3.599-1.446.759.759 0 0 1 .917.11l1.105 1.072c.231.224.545.35.873.35.327 0 .64-.126.872-.35l2.071-2.006a1.18 1.18 0 0 0 .361-.846c0-.317-.13-.621-.36-.846L65.1 66.548a.704.704 0 0 1-.114-.89 12.667 12.667 0 0 0 1.492-3.489.739.739 0 0 1 .73-.551h1.562c.328 0 .642-.127.873-.352a1.18 1.18 0 0 0 .361-.847V57.58c0-.317-.13-.621-.362-.845a1.254 1.254 0 0 0-.872-.351Zm-15.269-6.283a9.326 9.326 0 0 0-6.49 2.606A8.763 8.763 0 0 0 44.326 59c0 2.36.967 4.623 2.688 6.292a9.326 9.326 0 0 0 6.49 2.606 9.327 9.327 0 0 0 6.489-2.606A8.763 8.763 0 0 0 62.68 59a8.773 8.773 0 0 0-2.691-6.289 9.336 9.336 0 0 0-6.487-2.61Zm0 16.827a8.311 8.311 0 0 1-5.783-2.323A7.81 7.81 0 0 1 45.324 59a7.81 7.81 0 0 1 2.395-5.607 8.311 8.311 0 0 1 5.783-2.322 8.31 8.31 0 0 1 5.783 2.322A7.809 7.809 0 0 1 61.68 59a7.817 7.817 0 0 1-2.398 5.604 8.319 8.319 0 0 1-5.78 2.325Z" fill="#fff"/>
  <path d="M68.771 56.385H67.21a.739.739 0 0 1-.73-.552 12.66 12.66 0 0 0-1.492-3.49.703.703 0 0 1 .114-.888l1.105-1.072a1.18 1.18 0 0 0 .361-.846c0-.317-.13-.621-.36-.846l-2.07-2.008a1.254 1.254 0 0 0-.872-.35c-.327 0-.64.126-.873.35l-1.105 1.071a.76.76 0 0 1-.917.11 13.524 13.524 0 0 0-3.599-1.446.725.725 0 0 1-.569-.708v-1.514a1.18 1.18 0 0 0-.362-.846 1.255 1.255 0 0 0-.874-.35H52.04c-.327 0-.64.127-.872.35a1.18 1.18 0 0 0-.362.846v1.515a.724.724 0 0 1-.569.708c-1.266.308-2.48.795-3.599 1.446a.76.76 0 0 1-.917-.11l-1.107-1.072a1.256 1.256 0 0 0-.872-.35c-.328 0-.641.126-.873.35l-2.07 2.006a1.178 1.178 0 0 0-.36.846c0 .317.13.621.36.846l1.106 1.071a.704.704 0 0 1 .114.89 12.667 12.667 0 0 0-1.492 3.489.739.739 0 0 1-.73.551h-1.562c-.328 0-.642.127-.873.352a1.18 1.18 0 0 0-.361.847v2.838c0 .317.13.621.362.845.231.224.545.35.872.351h1.562a.738.738 0 0 1 .73.552c.318 1.228.82 2.403 1.492 3.49a.704.704 0 0 1-.114.888L40.8 67.619a1.18 1.18 0 0 0-.36.846c0 .317.129.62.36.846l2.069 2.006c.231.224.545.35.872.35.327 0 .64-.126.872-.35l1.106-1.071a.76.76 0 0 1 .917-.11c1.12.65 2.332 1.138 3.599 1.446a.725.725 0 0 1 .569.707v1.515c0 .318.131.622.363.846.232.224.546.35.873.35h2.927c.327 0 .64-.126.872-.35.231-.225.361-.529.362-.846v-1.515a.724.724 0 0 1 .569-.708 13.528 13.528 0 0 0 3.599-1.446.759.759 0 0 1 .917.11l1.105 1.072c.231.224.545.35.873.35.327 0 .64-.126.872-.35l2.071-2.006a1.18 1.18 0 0 0 .361-.846c0-.317-.13-.621-.36-.846L65.1 66.548a.704.704 0 0 1-.114-.89 12.667 12.667 0 0 0 1.492-3.489.739.739 0 0 1 .73-.551h1.562c.328 0 .642-.127.873-.352a1.18 1.18 0 0 0 .361-.847V57.58c0-.317-.13-.621-.362-.845a1.254 1.254 0 0 0-.872-.351Zm.234 4.034a.233.233 0 0 1-.234.226H67.21c-.39 0-.77.126-1.078.36a1.684 1.684 0 0 0-.622.926 11.742 11.742 0 0 1-1.38 3.227 1.654 1.654 0 0 0 .265 2.075l1.105 1.072c.09.089.09.23 0 .32l-2.07 2.006a.243.243 0 0 1-.33 0l-1.105-1.07a1.797 1.797 0 0 0-2.14-.257 12.51 12.51 0 0 1-3.328 1.337c-.38.092-.716.304-.956.603s-.37.666-.37 1.045v1.515a.233.233 0 0 1-.234.227H52.04a.233.233 0 0 1-.233-.227V72.29c0-.379-.13-.747-.37-1.046a1.757 1.757 0 0 0-.957-.602 12.53 12.53 0 0 1-3.328-1.338 1.793 1.793 0 0 0-2.14.257l-1.105 1.071a.242.242 0 0 1-.33 0l-2.07-2.006a.223.223 0 0 1 0-.32l1.105-1.072a1.654 1.654 0 0 0 .264-2.075 11.732 11.732 0 0 1-1.38-3.227 1.695 1.695 0 0 0-.621-.927 1.787 1.787 0 0 0-1.078-.359h-1.562A.233.233 0 0 1 38 60.42v-2.84a.234.234 0 0 1 .234-.227h1.562c.39 0 .77-.125 1.078-.358.308-.233.527-.56.622-.927a11.739 11.739 0 0 1 1.38-3.227 1.655 1.655 0 0 0-.265-2.075l-1.105-1.072a.224.224 0 0 1 0-.32l2.07-2.006a.242.242 0 0 1 .33 0l1.105 1.07a1.794 1.794 0 0 0 2.14.256 12.53 12.53 0 0 1 3.328-1.336c.38-.092.716-.304.956-.603s.37-.667.37-1.045v-1.515a.233.233 0 0 1 .234-.227h2.927a.234.234 0 0 1 .234.227v1.515c0 .378.13.746.37 1.045.24.299.577.511.956.603a12.53 12.53 0 0 1 3.328 1.337 1.795 1.795 0 0 0 2.14-.256l1.105-1.071a.242.242 0 0 1 .33 0l2.07 2.006c.09.09.09.23 0 .32l-1.105 1.072a1.653 1.653 0 0 0-.264 2.075 11.731 11.731 0 0 1 1.38 3.227c.094.367.313.694.62.926.309.233.689.36 1.08.36h1.562a.233.233 0 0 1 .233.226v2.838ZM53.502 50.102a9.326 9.326 0 0 0-6.49 2.606C45.293 54.377 44.5 56.64 44.5 59s.792 4.623 2.513 6.292a9.326 9.326 0 0 0 6.49 2.606 9.327 9.327 0 0 0 6.489-2.606A8.763 8.763 0 0 0 62.68 59a8.773 8.773 0 0 0-2.691-6.289 9.336 9.336 0 0 0-6.487-2.61Zm0 16.827a8.311 8.311 0 0 1-5.783-2.323A7.81 7.81 0 0 1 45.324 59a7.81 7.81 0 0 1 2.395-5.607 8.311 8.311 0 0 1 5.783-2.322 8.31 8.31 0 0 1 5.783 2.322A7.809 7.809 0 0 1 61.68 59a7.818 7.818 0 0 1-2.398 5.604 8.319 8.319 0 0 1-5.78 2.325Z" fill="#282828"/>
  <path d="M69.005 60.45a.233.233 0 0 1-.233.226h-1.563c-.39 0-.77.126-1.078.359-.308.233-.527.56-.622.927a11.739 11.739 0 0 1-1.38 3.227 1.654 1.654 0 0 0 .265 2.075l1.105 1.071c.09.09.09.231 0 .32l-2.069 2.007a.243.243 0 0 1-.33 0l-1.106-1.071a1.796 1.796 0 0 0-2.14-.256 12.514 12.514 0 0 1-3.328 1.337 1.755 1.755 0 0 0-.956.603c-.24.298-.37.666-.37 1.045v1.515a.233.233 0 0 1-.234.227h-2.927a.233.233 0 0 1-.233-.227V72.32c0-.38-.13-.747-.37-1.046a1.758 1.758 0 0 0-.957-.602 12.526 12.526 0 0 1-3.328-1.338 1.795 1.795 0 0 0-2.14.256l-1.105 1.072a.242.242 0 0 1-.33 0l-2.07-2.006a.224.224 0 0 1 0-.32l1.105-1.072c.276-.268.453-.618.5-.994a1.653 1.653 0 0 0-.236-1.081 11.73 11.73 0 0 1-1.38-3.227 1.694 1.694 0 0 0-.62-.927 1.787 1.787 0 0 0-1.079-.36h-1.562A.233.233 0 0 1 38 60.45v-2.837a.234.234 0 0 1 .234-.227h1.562c.39 0 .77-.126 1.078-.359.308-.233.527-.56.622-.927a11.742 11.742 0 0 1 1.38-3.227 1.654 1.654 0 0 0-.265-2.074l-1.105-1.072a.225.225 0 0 1 0-.32l2.07-2.006a.242.242 0 0 1 .33 0l1.105 1.07a1.794 1.794 0 0 0 2.14.256 12.525 12.525 0 0 1 3.328-1.337 1.75 1.75 0 0 0 .956-.602c.24-.299.371-.667.37-1.046v-1.514A.233.233 0 0 1 52.04 44h2.927a.234.234 0 0 1 .234.227v1.514c0 .379.13.747.37 1.046.24.299.577.51.956.603 1.171.285 2.293.736 3.328 1.337a1.795 1.795 0 0 0 2.14-.256l1.105-1.072a.242.242 0 0 1 .33 0l2.07 2.007c.09.089.09.23 0 .32l-1.105 1.072a1.678 1.678 0 0 0-.5.993c-.048.376.035.757.236 1.081a11.73 11.73 0 0 1 1.38 3.227c.094.368.313.694.621.927.308.233.688.36 1.078.359h1.563a.233.233 0 0 1 .234.227v2.837Z" fill="#fff" stroke="#fff" stroke-width=".6"/>
  <path d="M61.65 58.45c0 4.653-3.618 8.4-8.05 8.4-4.433 0-8.05-3.747-8.05-8.4 0-4.653 3.617-8.4 8.05-8.4 4.432 0 8.05 3.747 8.05 8.4Z" fill="#F8C73B" stroke="#282828" stroke-width=".7"/>
  <path fill="#F8C73B" d="M36 42h37v16H36z"/>
  <rect x="37.35" y="53.35" width="32.3" height="2.3" rx=".65" fill="#fff" stroke="#282828" stroke-width=".7"/>
  <rect x="55.65" y="39.309" width="10.946" height="4.3" rx=".65" transform="rotate(90 55.65 39.309)" fill="#fff" stroke="#282828" stroke-width=".7"/>
  <rect x="41.65" y="47.35" width="3.3" height="4.3" rx=".65" transform="rotate(90 41.65 47.35)" fill="#fff" stroke="#282828" stroke-width=".7"/>
  <rect x="62.65" y="35.725" width="14.529" height="4.3" rx=".65" transform="rotate(90 62.65 35.725)" fill="#fff" stroke="#282828" stroke-width=".7"/>
  <rect x="48.65" y="43.35" width="7.3" height="4.3" rx=".65" transform="rotate(90 48.65 43.35)" fill="#fff" stroke="#282828" stroke-width=".7"/>
  <rect x="69.65" y="30.35" width="19.904" height="4.3" rx=".65" transform="rotate(90 69.65 30.35)" fill="#fff" stroke="#282828" stroke-width=".7"/>
  <path stroke="#282828" stroke-width=".7" d="M62 58.35h8m-33 0h8.3"/>
</svg>
