<svg width="110" height="110" fill="none" xmlns="http://www.w3.org/2000/svg">
  <path d="m55 0 47.631 27.5v55L55 110 7.369 82.5v-55L55 0Z" fill="#fff"/>
  <path d="M23.35 37.8A5.65 5.65 0 0 1 29 32.15h52a5.65 5.65 0 0 1 5.65 5.65v30.218a5.65 5.65 0 0 1-5.65 5.65H29a5.65 5.65 0 0 1-5.65-5.65V37.8Z" fill="#F8C73B" stroke="#282828" stroke-width=".7"/>
  <path d="m50 74-4 7m14-7 4 7m-24.65.65h31.3" stroke="#282828" stroke-width=".7" stroke-linecap="round"/>
  <rect x="56.25" y="36.25" width="2.5" height="2.5" rx=".75" fill="#fff" stroke="#282828" stroke-width=".5"/>
  <rect x="61.25" y="36.25" width="19.5" height="2.5" rx=".75" fill="#fff" stroke="#282828" stroke-width=".5"/>
  <rect x="56.25" y="40.25" width="2.5" height="2.5" rx=".75" fill="#fff" stroke="#282828" stroke-width=".5"/>
  <rect x="56.25" y="44.25" width="2.5" height="2.5" rx=".75" fill="#fff" stroke="#282828" stroke-width=".5"/>
  <rect x="56.25" y="48.25" width="2.5" height="2.5" rx=".75" fill="#fff" stroke="#282828" stroke-width=".5"/>
  <rect x="61.25" y="40.25" width="19.5" height="2.5" rx=".75" fill="#fff" stroke="#282828" stroke-width=".5"/>
  <rect x="61.25" y="44.25" width="19.5" height="2.5" rx=".75" fill="#fff" stroke="#282828" stroke-width=".5"/>
  <rect x="61.25" y="48.25" width="19.5" height="2.5" rx=".75" fill="#fff" stroke="#282828" stroke-width=".5"/>
  <circle cx="36" cy="45" r="7.75" fill="#fff" stroke="#282828" stroke-width=".5"/>
  <path d="m39.767 38.882-4.236 6.117 5.177 5.177M35.532 45l-6.118-2.823m3.547 6.808h2.324m-2.324-8.47h2.324m4.262 3.765h2.323" stroke="#282828" stroke-width=".5" stroke-linecap="round"/>
  <path d="M27.266 63.874v3.473a2 2 0 0 0 2 2h48.906a2 2 0 0 0 2-2v-11.36a2 2 0 0 0-2-2h-9.018a2 2 0 0 0-1.194.395l-7.553 5.616a2 2 0 0 1-1.846.286l-3.031-1.047a2 2 0 0 0-1.523.09l-4.939 2.387a2 2 0 0 1-2.185-.294l-4.088-3.568a2 2 0 0 0-2.35-.205l-6.519 3.939a2 2 0 0 1-1.034.288h-3.626a2 2 0 0 0-2 2Z" fill="#fff" stroke="#282828" stroke-width=".5" stroke-linecap="round"/>
</svg>
