<svg width="110" height="110" fill="none" xmlns="http://www.w3.org/2000/svg">
  <path d="m55 0 47.631 27.5v55L55 110 7.369 82.5v-55L55 0Z" fill="#fff"/>
  <circle cx="34.516" cy="66.959" r="16.266" fill="#fff" stroke="#282828" stroke-width=".5"/>
  <path d="m34.703 67.124.061-.07v-.095a33240.179 33240.179 0 0 1 .002-12.593c6.841.133 12.346 5.72 12.346 12.593 0 6.957-5.64 12.596-12.596 12.596-3.107 0-5.95-1.125-8.147-2.99 3.528-4.221 4.647-5.416 5.8-6.647a95.426 95.426 0 0 0 2.534-2.794Z" fill="#F8C73B" stroke="#282828" stroke-width=".5"/>
  <path d="M33.598 54.114c-2.422 0-4.687.67-6.62 1.835m19.926 11.469h-4.588m-16.974 0h-4.588m13.762 12.387v-4.588" stroke="#282828" stroke-width=".5"/>
  <path d="M82.391 31.619h-1.094a.52.52 0 0 1-.51-.397 9.226 9.226 0 0 0-1.045-2.507.515.515 0 0 1 .08-.64l.773-.77a.858.858 0 0 0 0-1.215l-1.449-1.444a.867.867 0 0 0-1.221 0l-.774.77a.522.522 0 0 1-.642.08 9.333 9.333 0 0 0-2.52-1.04.518.518 0 0 1-.399-.508V22.86a.859.859 0 0 0-.866-.86h-2.049a.86.86 0 0 0-.864.86v1.088a.518.518 0 0 1-.398.509 9.327 9.327 0 0 0-2.52 1.039.521.521 0 0 1-.642-.08l-.776-.77a.867.867 0 0 0-1.221 0l-1.45 1.442a.857.857 0 0 0 0 1.216l.774.77a.515.515 0 0 1 .08.639 9.232 9.232 0 0 0-1.044 2.507.52.52 0 0 1-.512.397h-1.094a.859.859 0 0 0-.864.862v2.038a.86.86 0 0 0 .864.86h1.095a.52.52 0 0 1 .51.397 9.236 9.236 0 0 0 1.045 2.507.516.516 0 0 1-.08.639l-.773.771a.86.86 0 0 0 0 1.216l1.448 1.442a.867.867 0 0 0 1.222 0l.774-.77a.521.521 0 0 1 .642-.079 9.33 9.33 0 0 0 2.52 1.04.518.518 0 0 1 .398.508v1.088a.859.859 0 0 0 .866.86h2.05a.866.866 0 0 0 .863-.86v-1.089a.518.518 0 0 1 .399-.508 9.333 9.333 0 0 0 2.52-1.04.521.521 0 0 1 .642.08l.774.77a.867.867 0 0 0 1.222 0l1.45-1.441a.858.858 0 0 0 0-1.216l-.774-.77a.515.515 0 0 1-.08-.64c.47-.78.823-1.624 1.045-2.507a.52.52 0 0 1 .511-.396h1.094a.866.866 0 0 0 .864-.862v-2.039a.866.866 0 0 0-.864-.86ZM71.7 27.104a6.443 6.443 0 0 0-4.544 1.872 6.378 6.378 0 0 0-1.883 4.522c0 1.696.677 3.322 1.883 4.521a6.443 6.443 0 0 0 4.544 1.873 6.443 6.443 0 0 0 4.544-1.873 6.378 6.378 0 0 0 1.882-4.521 6.385 6.385 0 0 0-1.885-4.52 6.45 6.45 0 0 0-4.541-1.875Zm0 12.091c-1.52 0-2.976-.6-4.05-1.668a5.684 5.684 0 0 1-1.677-4.03c0-1.51.604-2.96 1.677-4.028a5.741 5.741 0 0 1 4.05-1.67c1.518 0 2.975.601 4.049 1.67a5.683 5.683 0 0 1 1.677 4.029 5.69 5.69 0 0 1-1.679 4.027 5.748 5.748 0 0 1-4.047 1.67Z" fill="#F8C73B"/>
  <circle cx="71.717" cy="33.573" r="6.068" fill="#fff"/>
  <path d="m73.922 32.676.005.002h-.005c-.03.203-.093.312-.152.375a.464.464 0 0 1-.193.121l.078-.315c.08-.327.017-.628-.156-.871l-.005-.007c.115.065.207.133.275.203a.524.524 0 0 1 .153.492Zm-.717 2.947c-.126.039-.28.056-.465.052a1.06 1.06 0 0 0 .545-.388h.08l.094-.38a1.07 1.07 0 0 0-.095-.788l.014.008c.227.118.333.235.38.342.044.102.07.277-.04.593-.124.357-.301.495-.513.56Zm-2.274-2.257-.039.157-.347 1.4-.067.272-.156-.04-.176-.046a.775.775 0 0 0 .306-.371l.013-.032.008-.034.413-1.667-.385-.096.001-.004.385.095.294-1.19.012-.045.002-.047a.872.872 0 0 0-.078-.423l.156.036.153.035-.06.247-.315 1.27-.12.483Z" fill="#282828" stroke="#282828"/>
  <path d="M82.391 31.619h-1.094a.52.52 0 0 1-.51-.397 9.226 9.226 0 0 0-1.045-2.507.515.515 0 0 1 .08-.64l.773-.77a.858.858 0 0 0 0-1.215l-1.449-1.444a.867.867 0 0 0-1.221 0l-.774.77a.522.522 0 0 1-.642.08 9.333 9.333 0 0 0-2.52-1.04.518.518 0 0 1-.399-.508V22.86a.859.859 0 0 0-.866-.86h-2.049a.86.86 0 0 0-.864.86v1.088a.518.518 0 0 1-.398.509 9.327 9.327 0 0 0-2.52 1.039.521.521 0 0 1-.642-.08l-.776-.77a.867.867 0 0 0-1.221 0l-1.45 1.442a.857.857 0 0 0 0 1.216l.774.77a.515.515 0 0 1 .08.639 9.232 9.232 0 0 0-1.044 2.507.52.52 0 0 1-.512.397h-1.094a.859.859 0 0 0-.864.862v2.038a.86.86 0 0 0 .864.86h1.095a.52.52 0 0 1 .51.397 9.236 9.236 0 0 0 1.045 2.507.516.516 0 0 1-.08.639l-.773.771a.86.86 0 0 0 0 1.216l1.448 1.442a.867.867 0 0 0 1.222 0l.774-.77a.521.521 0 0 1 .642-.079 9.33 9.33 0 0 0 2.52 1.04.518.518 0 0 1 .398.508v1.088a.859.859 0 0 0 .866.86h2.05a.866.866 0 0 0 .863-.86v-1.089a.518.518 0 0 1 .399-.508 9.333 9.333 0 0 0 2.52-1.04.521.521 0 0 1 .642.08l.774.77a.867.867 0 0 0 1.222 0l1.45-1.441a.858.858 0 0 0 0-1.216l-.774-.77a.515.515 0 0 1-.08-.64c.47-.78.823-1.624 1.045-2.507a.52.52 0 0 1 .511-.396h1.094a.866.866 0 0 0 .864-.862v-2.039a.866.866 0 0 0-.864-.86Zm.164 2.898a.165.165 0 0 1-.164.163h-1.094a1.23 1.23 0 0 0-1.19.924 8.553 8.553 0 0 1-.966 2.32 1.214 1.214 0 0 0 .185 1.49l.774.77a.164.164 0 0 1 0 .23l-1.449 1.442a.167.167 0 0 1-.231 0l-.774-.77a1.23 1.23 0 0 0-1.499-.184 8.63 8.63 0 0 1-2.33.961 1.226 1.226 0 0 0-.929 1.185v1.088a.166.166 0 0 1-.164.163h-2.049a.165.165 0 0 1-.163-.163v-1.089a1.215 1.215 0 0 0-.93-1.184 8.648 8.648 0 0 1-2.33-.961 1.23 1.23 0 0 0-1.498.184l-.774.77a.166.166 0 0 1-.231 0l-1.45-1.442a.164.164 0 0 1 0-.23l.774-.77a1.217 1.217 0 0 0 .185-1.49 8.548 8.548 0 0 1-.966-2.32 1.22 1.22 0 0 0-1.19-.924h-1.094a.165.165 0 0 1-.163-.163v-2.039a.166.166 0 0 1 .163-.163h1.094a1.228 1.228 0 0 0 1.19-.924 8.554 8.554 0 0 1 .966-2.319 1.214 1.214 0 0 0-.184-1.49l-.774-.77a.164.164 0 0 1 0-.23l1.449-1.442a.166.166 0 0 1 .23 0l.775.77a1.227 1.227 0 0 0 1.498.183 8.644 8.644 0 0 1 2.33-.96 1.217 1.217 0 0 0 .929-1.184v-1.09a.165.165 0 0 1 .164-.163h2.05c.09.002.162.074.163.163v1.089a1.215 1.215 0 0 0 .929 1.184c.82.205 1.605.53 2.33.961a1.23 1.23 0 0 0 1.499-.184l.774-.77a.166.166 0 0 1 .23 0l1.45 1.442a.164.164 0 0 1 0 .23l-.774.77a1.217 1.217 0 0 0-.185 1.491c.435.722.76 1.503.966 2.32a1.22 1.22 0 0 0 1.19.923h1.095c.09.001.162.074.163.163v2.04ZM71.7 27.103a6.443 6.443 0 0 0-4.544 1.873 6.378 6.378 0 0 0-1.883 4.522c0 1.696.677 3.322 1.883 4.521a6.443 6.443 0 0 0 4.544 1.873 6.443 6.443 0 0 0 4.544-1.873 6.378 6.378 0 0 0 1.882-4.521 6.385 6.385 0 0 0-1.885-4.52 6.45 6.45 0 0 0-4.541-1.875Zm0 12.092c-1.52 0-2.976-.6-4.05-1.668a5.684 5.684 0 0 1-1.677-4.03c0-1.51.604-2.96 1.677-4.028a5.741 5.741 0 0 1 4.05-1.67c1.518 0 2.975.601 4.049 1.67a5.683 5.683 0 0 1 1.677 4.029 5.69 5.69 0 0 1-1.679 4.027 5.748 5.748 0 0 1-4.047 1.67Z" fill="#282828"/>
  <path d="M47.702 30.233h-.832a.395.395 0 0 1-.389-.301 7.015 7.015 0 0 0-.794-1.907.392.392 0 0 1 .06-.486l.589-.586a.653.653 0 0 0 0-.925l-1.102-1.098a.66.66 0 0 0-.93 0l-.588.586a.397.397 0 0 1-.488.06 7.098 7.098 0 0 0-1.917-.79.394.394 0 0 1-.303-.387v-.828a.654.654 0 0 0-.659-.654h-1.558a.66.66 0 0 0-.657.654v.828a.394.394 0 0 1-.303.387 7.091 7.091 0 0 0-1.917.79.397.397 0 0 1-.489-.06l-.59-.586a.66.66 0 0 0-.928 0l-1.102 1.097a.652.652 0 0 0 0 .925l.588.585c.131.129.156.33.06.486a7.023 7.023 0 0 0-.794 1.907.395.395 0 0 1-.389.302h-.832a.66.66 0 0 0-.657.655v1.551a.653.653 0 0 0 .657.654h.833a.395.395 0 0 1 .388.302c.17.67.437 1.313.794 1.907a.392.392 0 0 1-.06.486l-.589.586a.653.653 0 0 0 0 .925l1.102 1.097a.66.66 0 0 0 .93 0l.588-.586a.397.397 0 0 1 .489-.06 7.098 7.098 0 0 0 1.916.79c.18.043.305.204.303.387v.828a.654.654 0 0 0 .659.654h1.558a.659.659 0 0 0 .658-.654v-.828a.394.394 0 0 1 .303-.387 7.1 7.1 0 0 0 1.916-.79.397.397 0 0 1 .489.06l.588.586a.659.659 0 0 0 .93 0l1.103-1.097a.652.652 0 0 0 0-.924l-.589-.586a.392.392 0 0 1-.06-.486 7.023 7.023 0 0 0 .794-1.907.395.395 0 0 1 .389-.302h.832a.66.66 0 0 0 .657-.655v-1.55a.653.653 0 0 0-.657-.655ZM39.57 26.8a4.9 4.9 0 0 0-3.456 1.425 4.851 4.851 0 0 0-1.432 3.439 4.85 4.85 0 0 0 1.432 3.439 4.9 4.9 0 0 0 3.456 1.424 4.9 4.9 0 0 0 3.456-1.424 4.851 4.851 0 0 0 1.432-3.44 4.857 4.857 0 0 0-1.433-3.437A4.905 4.905 0 0 0 39.57 26.8Zm0 9.197a4.367 4.367 0 0 1-3.08-1.269 4.323 4.323 0 0 1-1.275-3.064c0-1.15.458-2.252 1.275-3.065a4.367 4.367 0 0 1 6.16 0 4.324 4.324 0 0 1 1.275 3.065 4.327 4.327 0 0 1-1.277 3.063 4.37 4.37 0 0 1-3.078 1.27Z" fill="#F8C73B"/>
  <circle cx="39.498" cy="31.634" r="4.588" fill="#fff"/>
  <path d="M47.702 30.233h-.832a.395.395 0 0 1-.389-.301 7.015 7.015 0 0 0-.794-1.907.392.392 0 0 1 .06-.486l.589-.586a.653.653 0 0 0 0-.925l-1.102-1.098a.66.66 0 0 0-.93 0l-.588.586a.397.397 0 0 1-.488.06 7.098 7.098 0 0 0-1.917-.79.394.394 0 0 1-.303-.387v-.828a.654.654 0 0 0-.659-.654h-1.558a.66.66 0 0 0-.657.654v.828a.394.394 0 0 1-.303.387 7.091 7.091 0 0 0-1.917.79.397.397 0 0 1-.489-.06l-.59-.586a.66.66 0 0 0-.928 0l-1.102 1.097a.652.652 0 0 0 0 .925l.588.585c.131.129.156.33.06.486a7.023 7.023 0 0 0-.794 1.907.395.395 0 0 1-.389.302h-.832a.66.66 0 0 0-.657.655v1.551a.653.653 0 0 0 .657.654h.833a.395.395 0 0 1 .388.302c.17.67.437 1.313.794 1.907a.392.392 0 0 1-.06.486l-.589.586a.653.653 0 0 0 0 .925l1.102 1.097a.66.66 0 0 0 .93 0l.588-.586a.397.397 0 0 1 .489-.06 7.098 7.098 0 0 0 1.916.79c.18.043.305.204.303.387v.828a.654.654 0 0 0 .659.654h1.558a.659.659 0 0 0 .658-.654v-.828a.394.394 0 0 1 .303-.387 7.1 7.1 0 0 0 1.916-.79.397.397 0 0 1 .489.06l.588.586a.659.659 0 0 0 .93 0l1.103-1.097a.652.652 0 0 0 0-.924l-.589-.586a.392.392 0 0 1-.06-.486 7.023 7.023 0 0 0 .794-1.907.395.395 0 0 1 .389-.302h.832a.66.66 0 0 0 .657-.655v-1.55a.653.653 0 0 0-.657-.655Zm.124 2.205a.126.126 0 0 1-.124.124h-.832a.934.934 0 0 0-.905.703 6.505 6.505 0 0 1-.735 1.764.923.923 0 0 0 .14 1.134l.59.585a.125.125 0 0 1 0 .175l-1.103 1.097a.127.127 0 0 1-.176 0l-.588-.585a.934.934 0 0 0-1.14-.14 6.568 6.568 0 0 1-1.773.73.932.932 0 0 0-.706.901v.828a.126.126 0 0 1-.125.124h-1.558a.126.126 0 0 1-.125-.124v-.828a.924.924 0 0 0-.706-.9 6.577 6.577 0 0 1-1.773-.732.935.935 0 0 0-1.14.14l-.588.586a.127.127 0 0 1-.176 0l-1.102-1.097a.124.124 0 0 1 0-.175l.588-.585a.926.926 0 0 0 .141-1.134 6.502 6.502 0 0 1-.734-1.764.928.928 0 0 0-.906-.703h-.832a.126.126 0 0 1-.124-.124v-1.55a.126.126 0 0 1 .124-.125h.832a.935.935 0 0 0 .906-.703c.156-.62.404-1.214.734-1.763a.924.924 0 0 0-.14-1.134l-.59-.586a.125.125 0 0 1 0-.175l1.103-1.097a.127.127 0 0 1 .176 0l.589.586a.933.933 0 0 0 1.14.14 6.577 6.577 0 0 1 1.772-.731.933.933 0 0 0 .706-.901v-.828a.126.126 0 0 1 .125-.124h1.558a.126.126 0 0 1 .125.124v.828a.924.924 0 0 0 .706.901 6.577 6.577 0 0 1 1.773.731.935.935 0 0 0 1.14-.14l.588-.586a.127.127 0 0 1 .176 0l1.102 1.097a.125.125 0 0 1 0 .175l-.588.586a.926.926 0 0 0-.14 1.134 6.5 6.5 0 0 1 .734 1.763.927.927 0 0 0 .905.703h.832a.126.126 0 0 1 .125.124v1.551ZM39.57 26.8a4.9 4.9 0 0 0-3.456 1.425 4.851 4.851 0 0 0-1.432 3.439 4.85 4.85 0 0 0 1.432 3.439 4.9 4.9 0 0 0 3.456 1.424 4.9 4.9 0 0 0 3.456-1.424 4.851 4.851 0 0 0 1.432-3.44 4.857 4.857 0 0 0-1.433-3.437A4.905 4.905 0 0 0 39.57 26.8Zm0 9.197a4.367 4.367 0 0 1-3.08-1.269 4.323 4.323 0 0 1-1.275-3.064c0-1.15.458-2.252 1.275-3.065a4.367 4.367 0 0 1 6.16 0 4.324 4.324 0 0 1 1.275 3.065 4.327 4.327 0 0 1-1.277 3.063 4.37 4.37 0 0 1-3.078 1.27Z" fill="#282828"/>
  <rect x="29.75" y="39.867" width="49.993" height="3.17" rx="1.585" transform="rotate(8.286 29.75 39.867)" fill="#F8C73B" stroke="#282828" stroke-width=".5"/>
  <path d="m51.016 53.405 3.164-6.09 3.164 6.09h-6.328Z" fill="#F8C73B" stroke="#282828" stroke-width=".5"/>
  <path d="M39.94 28.643v.913h-.499v-.913h.499Zm-.063 5.121v.847h-.498v-.846h.498Zm.21-1.047a.668.668 0 0 0-.053-.285.512.512 0 0 0-.173-.198 1.732 1.732 0 0 0-.316-.17 6.616 6.616 0 0 1-.737-.347 1.457 1.457 0 0 1-.499-.446c-.12-.178-.179-.409-.179-.693 0-.26.064-.485.192-.677a1.27 1.27 0 0 1 .533-.446c.228-.106.49-.16.787-.16.226 0 .432.034.618.1.186.068.347.165.483.293.136.125.24.28.313.464.074.182.11.389.11.62h-1.057c0-.119-.012-.221-.038-.307a.561.561 0 0 0-.1-.21.448.448 0 0 0-.345-.16.43.43 0 0 0-.254.07.376.376 0 0 0-.14.175.653.653 0 0 0-.045.244c0 .095.016.177.047.248.034.07.09.134.17.195.079.058.188.119.326.181.272.116.514.235.727.358.213.123.38.275.502.455.123.178.185.407.185.69 0 .272-.064.504-.191.696-.128.19-.306.336-.533.436-.228.1-.492.15-.79.15-.201 0-.401-.026-.6-.078a1.64 1.64 0 0 1-.54-.254 1.283 1.283 0 0 1-.385-.474 1.638 1.638 0 0 1-.144-.724h1.057c0 .14.017.257.05.351.033.094.078.17.135.226a.55.55 0 0 0 .197.12.76.76 0 0 0 .23.034.484.484 0 0 0 .26-.063.391.391 0 0 0 .147-.172.573.573 0 0 0 .05-.242Z" fill="#282828"/>
  <path d="M78.855 57.486c-2.525 0-4.853.83-6.73 2.232l-.823-1.052a12.543 12.543 0 0 1 7.553-2.515c6.956 0 12.595 5.639 12.595 12.595 0 4.964-2.871 9.256-7.04 11.308l-.566-1.21a11.261 11.261 0 0 0 6.271-10.098c0-6.219-5.041-11.26-11.26-11.26Z" fill="#F8C73B" stroke="#282828" stroke-width=".5"/>
  <path d="m75.248 60.408-5.086.735.693-5.092 4.393 4.357Zm-7.403 21.148c2.524 0 4.853-.83 6.73-2.232l.822 1.052a12.542 12.542 0 0 1-7.552 2.515c-6.957 0-12.596-5.64-12.596-12.596 0-4.963 2.871-9.255 7.041-11.307l.566 1.21a11.26 11.26 0 0 0-6.272 10.098c0 6.218 5.042 11.26 11.26 11.26Z" fill="#F8C73B" stroke="#282828" stroke-width=".5"/>
  <path d="m71.448 78.634 5.086-.735-.694 5.092-4.392-4.357Z" fill="#F8C73B" stroke="#282828" stroke-width=".5"/>
  <circle cx="79.311" cy="68.287" r="6.632" fill="#F8C73B" stroke="#282828" stroke-width=".5"/>
  <path d="M79.852 63.7v1.403h-.714V63.7h.714Zm-.09 7.873v1.302h-.713v-1.302h.713Zm.301-1.61c0-.177-.025-.323-.076-.439a.774.774 0 0 0-.247-.303 2.429 2.429 0 0 0-.454-.26 9.222 9.222 0 0 1-1.055-.536 2.145 2.145 0 0 1-.713-.685c-.17-.273-.256-.628-.256-1.065 0-.399.091-.746.274-1.042.185-.295.44-.524.763-.684a2.477 2.477 0 0 1 1.127-.246c.323 0 .618.051.884.154a1.934 1.934 0 0 1 1.14 1.162c.105.28.157.598.157.955h-1.513c0-.184-.017-.341-.053-.473a.891.891 0 0 0-.144-.323.605.605 0 0 0-.494-.246c-.15 0-.27.036-.364.106a.573.573 0 0 0-.201.27 1.073 1.073 0 0 0-.063.376c0 .145.022.272.067.381a.842.842 0 0 0 .242.3c.114.09.27.182.467.279.39.177.736.36 1.042.55a2.2 2.2 0 0 1 .718.699c.176.273.265.626.265 1.06 0 .418-.091.775-.274 1.07a1.769 1.769 0 0 1-.763.67 2.618 2.618 0 0 1-1.131.232c-.288 0-.573-.04-.858-.12a2.276 2.276 0 0 1-.772-.39 1.934 1.934 0 0 1-.552-.729c-.138-.302-.207-.673-.207-1.114h1.513c0 .216.024.396.072.54.048.145.112.26.193.348a.778.778 0 0 0 .283.183c.105.035.214.053.328.053a.656.656 0 0 0 .372-.097.594.594 0 0 0 .211-.265.938.938 0 0 0 .072-.371Z" fill="#282828"/>
  <circle cx="67.385" cy="71.04" r="6.632" fill="#F8C73B" stroke="#282828" stroke-width=".5"/>
  <path d="M67.922 66.452v1.404h-.713v-1.404h.713Zm-.09 7.874v1.302h-.713v-1.302h.714Zm.301-1.61c0-.177-.025-.323-.076-.44a.773.773 0 0 0-.247-.303 2.437 2.437 0 0 0-.453-.26 9.206 9.206 0 0 1-1.055-.535 2.144 2.144 0 0 1-.714-.685c-.17-.273-.256-.629-.256-1.066 0-.398.092-.746.274-1.041.186-.296.44-.524.763-.685a2.476 2.476 0 0 1 1.127-.246c.323 0 .618.052.884.155a1.95 1.95 0 0 1 1.14 1.162 2.7 2.7 0 0 1 .157.954h-1.512c0-.183-.018-.34-.054-.472a.89.89 0 0 0-.144-.323.606.606 0 0 0-.494-.246.58.58 0 0 0-.363.106.572.572 0 0 0-.202.27 1.07 1.07 0 0 0-.063.376c0 .145.023.272.067.38a.842.842 0 0 0 .243.3c.114.09.27.183.467.28.389.176.736.36 1.041.55a2.2 2.2 0 0 1 .718.698c.177.273.265.627.265 1.06 0 .419-.091.776-.274 1.071a1.768 1.768 0 0 1-.763.67 2.618 2.618 0 0 1-1.131.232 3.14 3.14 0 0 1-.857-.12 2.28 2.28 0 0 1-.772-.391 1.934 1.934 0 0 1-.553-.728c-.137-.302-.206-.674-.206-1.114h1.513c0 .215.024.395.071.54a.93.93 0 0 0 .194.347.779.779 0 0 0 .282.183c.105.036.214.053.328.053a.656.656 0 0 0 .373-.096.594.594 0 0 0 .21-.265.938.938 0 0 0 .072-.371Z" fill="#282828"/>
</svg>
