<svg width="110" height="110" fill="none" xmlns="http://www.w3.org/2000/svg">
  <path d="m55 0 47.631 27.5v55L55 110 7.369 82.5v-55L55 0Z" fill="#F8C73B"/>
  <circle cx="58" cy="33" r="14.75" fill="#fff" stroke="#282828" stroke-width=".5"/>
  <path d="m58.18 33.164.063-.07v-.095a33353.668 33353.668 0 0 1 .001-11.414c6.19.133 11.167 5.192 11.167 11.414 0 6.305-5.111 11.417-11.417 11.417a11.37 11.37 0 0 1-7.367-2.695c3.192-3.82 4.207-4.902 5.252-6.018.61-.652 1.231-1.314 2.302-2.54Z" fill="#fff" stroke="#282828" stroke-width=".5"/>
  <path d="M57.168 21.334c-2.2 0-4.257.608-6.013 1.666m-4.882 14.167a11.64 11.64 0 0 1-.766-4.166c0-2.3.665-4.443 1.813-6.25m21.929 6.666h-4.167m-15.415 0H45.5M58 44.667V40.5M19.25 33v48m73.75.25H19" stroke="#282828" stroke-width=".5"/>
  <path d="m16.902 36 2.598-4.5 2.598 4.5h-5.196ZM90 78.902l4.5 2.598-4.5 2.598v-5.196Z" fill="#fff" stroke="#282828" stroke-width=".5"/>
  <rect x="28.25" y="46.25" width="4.5" height="10.5" rx=".75" fill="#fff" stroke="#282828" stroke-width=".5"/>
  <rect x="63.25" y="60.25" width="4.5" height="7.5" rx=".75" fill="#fff" stroke="#282828" stroke-width=".5"/>
  <rect x="70.25" y="68.25" width="4.5" height="5.5" rx=".75" fill="#fff" stroke="#282828" stroke-width=".5"/>
  <rect x="35.25" y="57.25" width="4.5" height="8.5" rx=".75" fill="#fff" stroke="#282828" stroke-width=".5"/>
  <rect x="84.25" y="40.25" width="4.5" height="14.5" rx=".75" fill="#fff" stroke="#282828" stroke-width=".5"/>
  <rect x="42.25" y="66.25" width="4.5" height="11.5" rx=".75" fill="#fff" stroke="#282828" stroke-width=".5"/>
  <rect x="77.25" y="55.25" width="4.5" height="15.5" rx=".75" fill="#fff" stroke="#282828" stroke-width=".5"/>
  <rect x="49.25" y="60.25" width="4.5" height="5.5" rx=".75" fill="#fff" stroke="#282828" stroke-width=".5"/>
  <rect x="56.25" y="54.25" width="4.5" height="5.5" rx=".75" fill="#fff" stroke="#282828" stroke-width=".5"/>
  <path d="M30.5 46v-2.5m0 13V62m7 4v4.5m14-10.5v-2m0 8v5.5m-7-5.5v-2m0 13.5V79m35-24v-3.5m-21 3v-3m7 16.5v5.5m21-18.5v6" stroke="#282828" stroke-width=".5"/>
</svg>
