<svg width="110" height="110" fill="none" xmlns="http://www.w3.org/2000/svg">
  <path d="m55 0 47.631 27.5v55L55 110 7.369 82.5v-55L55 0Z" fill="#fff"/>
  <path d="m34.941 31.543-8.373-4.92L18 31.544v9.643l8.568 4.92 8.373-4.92v-9.643Z" fill="#F8C73B" stroke="#282828" stroke-width=".8" stroke-linecap="round"/>
  <path d="m34.941 31.74-8.373 4.92m0 0L18 31.74m8.568 4.92v9.446" stroke="#282828" stroke-width=".8" stroke-linecap="round"/>
  <path d="m34.941 68.814-8.373-4.92L18 68.814v9.643l8.568 4.92 8.373-4.92v-9.643Z" fill="#F8C73B" stroke="#282828" stroke-width=".8" stroke-linecap="round"/>
  <path d="m34.941 69.011-8.373 4.92m0 0L18 69.01m8.568 4.92v9.446" stroke="#282828" stroke-width=".8" stroke-linecap="round"/>
  <path d="m90.847 31.543-8.373-4.92-8.568 4.92v9.643l8.568 4.92 8.373-4.92v-9.643Z" fill="#F8C73B" stroke="#282828" stroke-width=".8" stroke-linecap="round"/>
  <path d="m90.847 31.74-8.373 4.92m0 0-8.568-4.92m8.568 4.92v9.446" stroke="#282828" stroke-width=".8" stroke-linecap="round"/>
  <path d="m90.847 68.814-8.373-4.92-8.568 4.92v9.643l8.568 4.92 8.373-4.92v-9.643Z" fill="#F8C73B" stroke="#282828" stroke-width=".8" stroke-linecap="round"/>
  <path d="m90.847 69.01-8.373 4.92m0 0-8.568-4.92m8.568 4.92v9.447" stroke="#282828" stroke-width=".8" stroke-linecap="round"/>
  <path d="M62.894 23.92 54.521 19l-8.568 4.92v9.643l8.568 4.92 8.373-4.92V23.92Z" fill="#F8C73B" stroke="#282828" stroke-width=".8" stroke-linecap="round"/>
  <path d="m62.894 24.117-8.373 4.92m0 0-8.568-4.92m8.568 4.92v9.446" stroke="#282828" stroke-width=".8" stroke-linecap="round"/>
  <path d="m62.894 76.438-8.373-4.92-8.568 4.92v9.642L54.521 91l8.373-4.92v-9.642Z" fill="#F8C73B" stroke="#282828" stroke-width=".8" stroke-linecap="round"/>
  <path d="m62.894 76.634-8.373 4.92m0 0-8.568-4.92m8.568 4.92V91" stroke="#282828" stroke-width=".8" stroke-linecap="round"/>
  <path d="m56.594 58.883.002.004c.072.188.112.41.112.672 0 .275-.069.524-.206.754-.126.203-.336.387-.661.54-.31.137-.75.218-1.34.218a6.799 6.799 0 0 1-1.443-.137 2.61 2.61 0 0 1-.974-.435 1.846 1.846 0 0 1-.57-.782c-.134-.331-.208-.758-.208-1.294v-.4H45.6v.4c0 1.206.254 2.271.778 3.18l.003.005a6.602 6.602 0 0 0 2.09 2.176l.003.002a9.7 9.7 0 0 0 2.848 1.227l.004.001a13.23 13.23 0 0 0 3.176.386c1.161 0 2.223-.123 3.181-.374.958-.25 1.793-.62 2.498-1.116l.003-.002a5.283 5.283 0 0 0 1.641-1.865c.387-.742.575-1.582.575-2.51 0-.87-.163-1.665-.497-2.375a5.498 5.498 0 0 0-1.422-1.87c-.61-.546-1.352-1.024-2.224-1.437a19.906 19.906 0 0 0-2.927-1.132 19.671 19.671 0 0 1-1.528-.536 7.289 7.289 0 0 1-1.106-.555 2.512 2.512 0 0 1-.63-.553.973.973 0 0 1-.175-.567c0-.27.08-.514.244-.74l.004-.005c.162-.23.412-.43.777-.585.355-.151.814-.235 1.39-.235.59 0 1.048.1 1.393.277.355.18.603.421.765.718l.004.006c.175.306.268.668.268 1.099v.4H62.4v-.4c0-1.304-.346-2.453-1.05-3.428-.688-.975-1.641-1.718-2.842-2.233-1.193-.525-2.56-.782-4.09-.782-1.154 0-2.225.133-3.211.401-.985.26-1.854.642-2.603 1.152a5.63 5.63 0 0 0-1.751 1.855c-.429.734-.64 1.558-.64 2.46 0 .933.204 1.77.625 2.5l.002.001c.41.7.962 1.31 1.651 1.829l.003.002c.676.5 1.441.939 2.292 1.315l.003.001c.84.362 1.711.687 2.615.976h.002c.752.238 1.346.464 1.787.675l.008.004c.457.206.782.402.992.581.212.18.337.359.4.53Z" fill="#F8C73B" stroke="#282828" stroke-width=".8"/>
  <path d="M82.5 46v18m-56-18v18M74 74l-11 7m-17 .5L35 74m0-38 11-7.5m17 0L74 36" stroke="#282828" stroke-width=".8"/>
</svg>
