<svg width="40" height="37" fill="none" xmlns="http://www.w3.org/2000/svg">
  <path d="m14.47 7.725-1.88 7.257L0 16.637l14.47-8.912ZM17.89 37l3.137-13.181-4.078-1.702L17.89 37Z" fill="#242424"/>
  <path d="m12.59 14.975-3.32 6.897L0 16.639l12.59-1.663Z" fill="#242424"/>
  <path d="m17.888 37-.932-14.882-7.686-.269L17.888 37Z" fill="#242424"/>
  <path d="m12.59 14.975 4.366 7.135-7.686-.26 3.32-6.875Z" fill="#242424"/>
  <path d="M14.47 7.725 24.923 9.05 12.59 14.982l1.88-7.257Zm21.913-3.303-6.602 7.725.463-7.143 6.14-.582Z" fill="#242424"/>
  <path d="m39.998 0-3.615 4.422 2.85.352L39.999 0Z" fill="#242424"/>
  <path d="m32.813 8.43 6.39-3.663-2.82-.345-3.57 4.008ZM21.027 23.818l.311-8.866-4.389 7.165 4.078 1.701Zm.31-8.866-4.389 7.165-4.358-7.135 8.747-.03Zm3.586-5.901-3.593 5.9h-8.74l12.333-5.9Z" fill="#242424"/>
  <path d="m21.33 14.952-.303 8.866 8.02 8.292-7.716-17.158Z" fill="#242424"/>
  <path d="M33.237 27.474 29 16.86l.046 15.258 4.191-4.644Zm-3.453-15.328-.758 4.706-7.694-1.9 8.452-2.806Z" fill="#242424"/>
  <path d="M33.662 18.538 29 16.859l.758-4.705 3.904 6.384Zm1.667 8.644-5.079-8.23h2.903l2.176 8.23Zm-9.45-19.886 3.904 4.85.462-7.142-4.366 2.292Z" fill="#242424"/>
  <path d="m29.003 16.86-7.671-1.908 7.716 17.158-.045-15.25Zm4.237 10.613 1.69.958-5.867 3.679 4.176-4.637Z" fill="#242424"/>
  <path d="M35.33 27.083 29 16.86l4.237 10.621 2.092-.398ZM25.88 7.296l-4.548 7.664 8.452-2.805-3.904-4.859Z" fill="#242424"/>
</svg>
