<svg width="584" height="584" fill="none" xmlns="http://www.w3.org/2000/svg">
  <rect x="28" y="28" width="556" height="556" rx="3" fill="#FFF4D7"/>
  <rect width="584" height="584" rx="3" fill="#FFF7E1"/>
  <rect x="55" y="55" width="529" height="529" rx="3" fill="#FFF0C7"/>
  <rect x="92" y="92" width="492" height="492" rx="3" fill="#FEEDC0"/>
  <rect x="129" y="129" width="455" height="455" rx="3" fill="#FCE49F"/>
  <rect x="166" y="166" width="418" height="418" rx="3" fill="#FBDA7D"/>
  <rect x="203" y="203" width="381" height="381" rx="3" fill="#F9D15C"/>
  <rect x="240" y="240" width="344" height="344" rx="3" fill="#F8C73B"/>
  <path fill="#303030" d="M277 0h30v584h-30z"/>
  <path fill="#303030" d="M584 277v30H0v-30z"/>
  <path d="M366.079 438.767c3.033 0 5.685.206 7.959.619 2.274.414 4.177 1.292 5.707 2.637 1.532 1.346 2.298 3.302 2.298 5.87 0 4.739-2.127 7.942-6.381 9.608-4.254 1.666-9.025 2.499-14.315 2.499-5.26 0-10.133-.848-14.618-2.545-4.486-1.697-6.729-4.929-6.729-9.7l11.834-.045c0 2.109.966 3.447 2.9 4.013 1.933.567 4.199.848 6.798.848 2.444 0 4.54-.351 6.288-1.055 1.747-.702 2.622-1.849 2.622-3.439v-.045c0-.888-.543-1.544-1.625-1.973a11.791 11.791 0 0 0-3.48-.78 81.003 81.003 0 0 0-4.455-.183h-3.48c-3.341 0-6.241-.206-8.701-.62-2.46-.412-4.525-1.322-6.195-2.728-1.67-1.406-2.506-3.486-2.506-6.237 0-4.77 2.173-7.881 6.52-9.333 4.346-1.451 9.288-2.178 14.827-2.178 5.197 0 9.945.841 14.246 2.523 4.299 1.681 6.45 4.923 6.45 9.721h-11.648c0-1.527-.874-2.666-2.622-3.416-1.748-.748-3.874-1.169-6.38-1.26-2.692 0-4.966.304-6.822.916-1.856.612-2.784 1.575-2.784 2.889 0 1.375.944 2.294 2.831 2.753 1.886.458 4.021.687 6.403.687l5.058-.046Zm37.265 1.789 18.701 18.39h-14.061l-13.921-14.218v14.218h-11.461V425.01h11.461v11.785l13.087-11.785h14.199l-18.005 15.546Z" fill="#242424"/>
  <path d="m442.463 435.373-5.569 10.089h11.091l-5.522-10.089Zm24.455 23.573h-11.554l-3.202-5.824h-19.444l-3.201 5.824h-11.556l18.609-33.936h11.74l18.608 33.936Z" fill="#242424"/>
  <path d="M494.642 433.906c-.51-.551-1.167-.886-1.971-1.01-.806-.12-1.98-.183-3.527-.183h-1.67c-2.29.063-5.925.092-10.906.092v7.292h12.576c1.547 0 2.721-.062 3.527-.184.804-.121 1.461-.435 1.971-.94.511-.505.767-1.321.767-2.453 0-1.193-.256-2.064-.767-2.614Zm-1.461 24.993-9.513-10.961h-7.1v10.961h-10.951v-33.936h25.94c2.877 0 5.421.475 7.633 1.422 2.212.949 3.929 2.269 5.151 3.967 1.221 1.696 1.834 3.662 1.834 5.892v.183c0 2.906-.86 5.306-2.577 7.201-1.716 1.897-4.091 3.164-7.122 3.806l9.976 11.465h-13.271Zm43.201-7.773c.866-.106 1.562-.412 2.088-.917.526-.505.789-1.307.789-2.407 0-1.07-.263-1.842-.789-2.316-.526-.473-1.222-.764-2.088-.871-.866-.107-2.166-.161-3.898-.161h-14.803v6.787c4.363 0 7.463.008 9.304.023 1.841.016 3.101.022 3.781.022h1.718c1.732 0 3.032-.052 3.898-.16Zm-2.018-12.932c.726-.076 1.346-.344 1.856-.803.51-.458.765-1.222.765-2.292 0-.979-.248-1.681-.742-2.11-.496-.428-1.13-.695-1.903-.803-.773-.106-1.903-.16-3.387-.16h-13.272v6.236c3.185 0 5.29.016 6.312.047h6.96c1.547 0 2.683-.039 3.411-.115Zm14.64 5.641c1.329 1.269 1.996 3.079 1.996 5.434v.183c0 3.456-1.447 5.894-4.339 7.316-2.893 1.421-7.047 2.147-12.459 2.178h-27.241V425.01h29.374c3.589.03 6.451.764 8.585 2.2 2.135 1.438 3.202 3.47 3.202 6.099v.185c0 1.987-.417 3.607-1.253 4.86-.835 1.254-2.087 2.187-3.758 2.798 2.598.52 4.563 1.415 5.893 2.683Z" fill="#242424"/>
  <path d="m50 117 17.32 10v20L50 157l-17.32-10v-20L50 117Z" fill="#F8C73B"/>
  <path fill="#242424" d="M43 130h1v1h-1zm0 2h1v1h-1zm0 2h1v1h-1zm2-4h5v1h-5zm0 2h5v1h-5zm0 2h5v1h-5z"/>
  <path d="m43 144 2.5-4 2 3 3-6 2 4.5 3.5-11" stroke="#242424" stroke-linecap="round"/>
  <path d="m54.04 130.997 2.071-.841.88 1.573" stroke="#242424" stroke-linecap="round"/>
  <path d="m361 216 17.321 10v20L361 256l-17.321-10v-20L361 216Z" fill="#fff"/>
  <path fill="#242424" d="M362 230.5v1h-2v-1zm0 2v1h-2v-1zm0 2v1h-2v-1zm0 2v1h-2v-1zm0 2v1h-2v-1zm0 2v1h-2v-1zm5-10v1h-4v-1zm-8 8v1h-4v-1zm0-2v1h-4v-1zm8-4v1h-4v-1zm-8 8v1h-4v-1zm8-6v1h-4v-1z"/>
  <path d="m523 173 17.321 10v20L523 213l-17.321-10v-20L523 173Z" fill="#fff"/>
  <rect x="516" y="199" width="11" height="1" rx=".5" fill="#242424"/>
  <rect x="516" y="196" width="6" height="1" rx=".5" fill="#242424"/>
  <rect x="516" y="193" width="3" height="1" rx=".5" fill="#242424"/>
  <rect x="516" y="190" width="1" height="1" rx=".5" fill="#242424"/>
  <circle cx="525.5" cy="190.5" r="4" stroke="#242424"/>
  <path fill="#242424" d="M525 188h1v3.3h-1z"/>
  <path fill="#242424" d="m527.625 191.814-.547.837-2.079-1.357.547-.837z"/>
  <path d="m149 21 17.321 10v20L149 61l-17.321-10V31L149 21Z" fill="#F8C73B"/>
  <circle cx="143" cy="45" r="1.5" stroke="#242424"/>
  <circle cx="146" cy="39" r="1.5" stroke="#242424"/>
  <circle cx="151" cy="43" r="1.5" stroke="#242424"/>
  <path d="m151.5 42 2-3.5" stroke="#242424"/>
  <circle cx="154" cy="37" r="1.5" stroke="#242424"/>
  <path d="m143.5 43.5 2-3.5m4.5 2.5-3-2.5" stroke="#242424"/>
  <path d="m242 87 17.321 10v20L242 127l-17.321-10V97L242 87Z" fill="#F8C73B"/>
  <rect x="235" y="110" width="6" height="1" rx=".5" fill="#242424"/>
  <rect x="235" y="112" width="6" height="1" rx=".5" fill="#242424"/>
  <rect x="235" y="108" width="6" height="1" rx=".5" fill="#242424"/>
  <path d="m242.001 111.451 4.115 2.212-.833-4.597 3.376-3.229-4.629-.629-2.029-4.208-2.028 4.208-4.629.629.157.163v.4" stroke="#242424"/>
  <path d="m412 118 17.321 10v20L412 158l-17.321-10v-20L412 118Z" fill="#F8C73B"/>
  <path d="m405.5 143 1-2.5" stroke="#242424" stroke-linecap="round"/>
  <path d="M404.5 139h15" stroke="#242424" stroke-linecap="round" stroke-dasharray="2 2"/>
  <path d="m407.5 137.5 1-2.5 1.5 1.5 1-4.5 1 3 1-2.5 1.5 3.5 1.5-4.5 1.5 6m.5 3 .5 1.5.5 1" stroke="#242424" stroke-linecap="round"/>
  <path d="m48 430 17.32 10v20L48 470l-17.32-10v-20L48 430Z" fill="#F8C73B"/>
  <path d="M54 444H42m12 12H42m12-4H42m12-4H42" stroke="#2C2C38" stroke-linecap="round"/>
  <circle cx="47.5" cy="448" r="1.1" transform="rotate(90 47.5 448)" fill="#F8C73B" stroke="#2C2C38" stroke-width=".8"/>
  <circle cx="44.5" cy="452" r="1.1" transform="rotate(90 44.5 452)" fill="#F8C73B" stroke="#2C2C38" stroke-width=".8"/>
  <circle cx="51.5" cy="456" r="1.1" transform="rotate(90 51.5 456)" fill="#F8C73B" stroke="#2C2C38" stroke-width=".8"/>
  <circle cx="44.5" cy="444" r="1.1" transform="rotate(90 44.5 444)" fill="#F8C73B" stroke="#2C2C38" stroke-width=".8"/>
  <path d="m145 397 17.321 10v20L145 437l-17.321-10v-20L145 397Z" fill="#fff"/>
  <path d="M148.6 419.5v.166l.117.117c.812.812 1.242 1.586 1.354 2.326-.979.011-3.105 0-4.287-.006a201.94 201.94 0 0 0-.784-.003l-.783.003c-1.182.006-3.308.017-4.287.006.111-.74.541-1.514 1.353-2.326l.117-.117V416a3.6 3.6 0 0 1 7.2 0v3.5Z" stroke="#242424" stroke-width=".8"/>
  <path d="M145.953 412.234A.619.619 0 0 0 146 412c0-.423-.444-1-.997-1-.552 0-1.003.577-1.003 1 0 .066.011.13.032.192m-.937 9.808a.816.816 0 0 0-.095.379c0 .686.889 1.621 1.993 1.621 1.105 0 2.007-.935 2.007-1.621a.815.815 0 0 0-.063-.311M148.5 411.5c.979.167 2.838 1.2 2.447 4m-9.447-4c-.979.167-2.838 1.2-2.447 4" stroke="#242424" stroke-width=".7"/>
  <path d="m211 316 17.321 10v20L211 356l-17.321-10v-20L211 316Z" fill="#fff"/>
  <path fill="#242424" d="M204 329h.7v14h-.7zm7.5 4 .247-.247-.26-.261-.247.274.26.234Zm2 2-.247.247.264.265.246-.282-.263-.23Zm3.763-3.77a.348.348 0 0 0-.033-.493.348.348 0 0 0-.493.033l.526.46Zm-10.003 7.004 4.5-5-.52-.468-4.5 5 .52.468Zm3.993-4.987 2 2 .494-.494-2-2-.494.494Zm2.51 1.983 3.5-4-.526-.46-3.5 4 .526.46Zm2.887 3.27v.35h.7v-.35h-.7Zm.35-1.5h.35v-.35H217v.35Zm.35 1.5V337h-.7v1.5h.7Zm-.35-1.85h-2v.7h2v-.7Z"/>
  <path d="M216.65 332.5v.35h.7v-.35h-.7Zm.35-1.5h.35v-.35H217v.35Zm.35 1.5V331h-.7v1.5h.7Zm-.35-1.85h-2v.7h2v-.7Zm-9 1.35.291-.194-.194-.291-.291.194.194.291Zm.709 1.694.194.291.582-.388-.194-.291-.582.388Zm-2.015-.403 1.5-1-.388-.582-1.5 1 .388.582Zm1.015-1.097 1 1.5.582-.388-1-1.5-.582.388ZM214 340l-.28.21.242.323.285-.286L214 340Zm2.747-2.253a.348.348 0 0 0 0-.494.348.348 0 0 0-.494 0l.494.494Zm-6.027-1.537 3 4 .56-.42-3-4-.56.42Zm3.527 4.037 2-2-.494-.494-2 2 .494.494Zm2-2 .5-.5-.494-.494-.5.5.494.494ZM218 342.2v.7h-14v-.7z" fill="#242424"/>
  <path d="m169 212 17.321 10v20L169 252l-17.321-10v-20L169 212Z" fill="#fff"/>
  <path stroke="#242424" stroke-width=".7" d="M164.35 235.35h9.3v2.3h-9.3zm0-4.5h11.3v2.3h-11.3zm0-4.5h6.3v2.3h-6.3z"/>
  <path fill="#242424" d="M164 225h.7v14h-.7z"/>
  <path d="m121 514 17.321 10v20L121 554l-17.321-10v-20L121 514Z" fill="#F8C73B"/>
  <path stroke="#242424" stroke-width=".7" d="M124.35 540.65v-13.3h2.3v13.3zm-4.5 0v-10.3h2.3v10.3zm-4.5 0v-7.3h2.3v7.3z"/>
  <path fill="#242424" d="M114 541v-.7h14v.7z"/>
  <path d="m230 446 17.321 10v20L230 486l-17.321-10v-20L230 446Z" fill="#fff"/>
  <path d="m223 467.5 4-4.5 4.5 2 4.5-5" stroke="#242424" stroke-linecap="round"/>
  <path d="m234.062 459.559 2.226-.214.394 1.759" stroke="#242424" stroke-linecap="round"/>
  <path fill="#242424" d="M224 471h1v2h-1zm4-2h1v4h-1zm4-2h1v6h-1zm4-2h1v8h-1zm-6 3h1v5h-1zm-4 2h1v3h-1zm8-4h1v7h-1z"/>
  <path d="m535 45 17.321 10v20L535 85l-17.321-10V55L535 45Z" fill="#F8C73B"/>
  <path d="m527.998 69.5 1.463-1.351m-.233-.061 1.771.912m2.501 3h-.321a3.85 3.85 0 0 1-3.851-3.851m13.174-7.649-1.463 1.351m.233.061L539.501 61M537 58h.321a3.85 3.85 0 0 1 3.851 3.851" stroke="#242424" stroke-width=".7"/>
  <circle cx="538" cy="68" r="4.6" stroke="#242424" stroke-width=".8"/>
  <path d="M536.791 68.812v.38h-1.167v-.38h1.167Zm-1-1.812v2.192h-.49V67h.49Zm.849.882v.367h-1.016v-.367h1.016Zm.152-.882v.38h-1.168V67h1.168Zm1.29 0v2.192h-.489V67h.489Zm.667 0v.38h-1.809V67h1.809Zm1.713.882v.38h-1.135v-.38h1.135Zm-.98-.882v2.192h-.49V67h.49Zm1.319 0v2.192h-.489V67h.489Z" fill="#242424"/>
  <path d="M536.829 63.732a4.5 4.5 0 1 0-3.223 3.132" stroke="#242424" stroke-width=".8"/>
  <path d="M530.569 62.257h-.549l-.003-.337h.445c.08 0 .144-.009.192-.026a.2.2 0 0 0 .104-.081.236.236 0 0 0 .034-.132c0-.06-.011-.11-.034-.146a.189.189 0 0 0-.107-.08.541.541 0 0 0-.186-.027h-.252v1.736h-.514V61.03h.766c.132 0 .25.012.353.036.104.024.192.06.264.109a.49.49 0 0 1 .167.184.56.56 0 0 1 .057.26.54.54 0 0 1-.056.244.427.427 0 0 1-.186.186.758.758 0 0 1-.353.074l-.142.133Zm-.02.907h-.653l.175-.396h.478a.37.37 0 0 0 .168-.032.21.21 0 0 0 .093-.088.329.329 0 0 0 .001-.265.193.193 0 0 0-.085-.092.314.314 0 0 0-.157-.034h-.432l.003-.337h.517l.12.135a.647.647 0 0 1 .339.06.408.408 0 0 1 .18.181.54.54 0 0 1 .054.236c0 .14-.03.257-.091.35a.537.537 0 0 1-.268.211c-.119.047-.266.07-.442.07Zm2.078-2.134v2.134h-.514V61.03h.514Zm.642 0v.398h-1.783v-.397h1.783Zm1.39 1.411h.513a.74.74 0 0 1-.425.658 1.037 1.037 0 0 1-.457.094.964.964 0 0 1-.382-.072.773.773 0 0 1-.284-.206.92.92 0 0 1-.178-.327 1.445 1.445 0 0 1-.06-.432v-.116c0-.16.021-.304.063-.432a.955.955 0 0 1 .182-.328.79.79 0 0 1 .284-.208.913.913 0 0 1 .368-.072c.185 0 .342.033.47.1a.73.73 0 0 1 .297.273.888.888 0 0 1 .125.395h-.513a.505.505 0 0 0-.041-.201.25.25 0 0 0-.12-.123.491.491 0 0 0-.218-.041.367.367 0 0 0-.166.035.287.287 0 0 0-.117.111.583.583 0 0 0-.07.198c-.015.08-.022.177-.022.29v.119c0 .113.007.21.02.29.014.08.036.145.066.196.03.05.069.088.117.113a.414.414 0 0 0 .179.035.48.48 0 0 0 .198-.037.273.273 0 0 0 .124-.114.412.412 0 0 0 .047-.198Z" fill="#242424"/>
</svg>
