<svg width="140" height="24" fill="none" xmlns="http://www.w3.org/2000/svg">
  <path d="M17.304 9.844c2.012 0 3.772.138 5.28.413 1.51.276 2.772.861 3.787 1.758 1.016.897 1.525 2.202 1.525 3.914 0 3.16-1.412 5.294-4.234 6.405C20.84 23.444 17.673 24 14.164 24c-3.49 0-6.723-.565-9.7-1.697C1.489 21.172 0 19.017 0 15.837l7.852-.03c0 1.406.641 2.298 1.924 2.675 1.282.378 2.786.565 4.51.565 1.622 0 3.013-.234 4.173-.703 1.159-.469 1.74-1.233 1.74-2.293v-.03c0-.592-.36-1.03-1.079-1.315a7.77 7.77 0 0 0-2.309-.52 53.602 53.602 0 0 0-2.956-.122h-2.309c-2.217 0-4.14-.138-5.773-.413-1.632-.275-3.002-.882-4.11-1.82C.555 10.896 0 9.509 0 7.675c0-3.18 1.442-5.254 4.326-6.222C7.21.485 10.489 0 14.164 0c3.448 0 6.598.56 9.452 1.682 2.852 1.12 4.28 3.282 4.28 6.48h-7.729c0-1.018-.58-1.777-1.74-2.277-1.16-.498-2.57-.779-4.233-.84-1.786 0-3.294.203-4.526.611-1.232.408-1.847 1.05-1.847 1.926 0 .917.626 1.53 1.878 1.835 1.251.305 2.668.458 4.249.458l3.356-.03Zm24.724 1.193 12.408 12.26h-9.329l-9.236-9.478v9.478h-7.605V.673h7.605V8.53L44.553.673h9.422L42.028 11.037Z" fill="#fff"/>
  <path d="m67.984 7.582-3.695 6.726h7.359l-3.664-6.726ZM84.21 23.297h-7.667l-2.124-3.883h-12.9l-2.125 3.883h-7.667L64.074.673h7.79L84.21 23.297Z" fill="#fff"/>
  <path d="M102.606 6.604c-.339-.367-.775-.59-1.308-.673-.535-.08-1.314-.122-2.34-.122H97.85c-1.52.041-3.931.06-7.236.06v4.862h8.344c1.026 0 1.805-.04 2.34-.122.533-.081.969-.29 1.308-.627.339-.336.508-.88.508-1.635 0-.795-.169-1.376-.508-1.743Zm-.969 16.662-6.313-7.307h-4.71v7.307h-7.266V.642h17.211c1.909 0 3.596.317 5.064.948 1.468.633 2.607 1.513 3.418 2.644.81 1.132 1.217 2.442 1.217 3.929v.122c0 1.937-.57 3.537-1.71 4.8-1.138 1.265-2.714 2.11-4.726 2.538l6.62 7.643h-8.805Zm28.665-5.182c.575-.07 1.037-.275 1.386-.611.349-.337.523-.872.523-1.605 0-.713-.174-1.228-.523-1.544-.349-.316-.811-.51-1.386-.581-.575-.071-1.437-.107-2.586-.107h-9.822v4.524c2.895 0 4.952.006 6.173.016 1.222.01 2.058.015 2.509.015h1.14c1.149 0 2.011-.035 2.586-.107Zm-1.339-8.622c.482-.05.893-.229 1.232-.535.338-.305.507-.815.507-1.528 0-.652-.164-1.12-.492-1.407-.329-.285-.75-.463-1.262-.535-.514-.07-1.263-.107-2.248-.107h-8.806v4.158c2.114 0 3.51.01 4.188.03h4.618c1.026 0 1.78-.025 2.263-.076Zm9.714 3.761c.882.846 1.324 2.053 1.324 3.623v.122c0 2.304-.96 3.93-2.878 4.877-1.92.948-4.676 1.432-8.267 1.452h-18.075V.673h19.49c2.382.02 4.28.51 5.696 1.467 1.417.958 2.125 2.313 2.125 4.066v.123c0 1.325-.277 2.405-.831 3.24-.555.836-1.385 1.458-2.494 1.865 1.724.347 3.028.944 3.91 1.79Z" fill="#fff"/>
</svg>
