<svg width="129" height="22" fill="none" xmlns="http://www.w3.org/2000/svg">
  <path d="M15.944 9.024c1.854 0 3.476.126 4.866.378 1.39.253 2.553.79 3.489 1.612.936.822 1.405 2.018 1.405 3.587 0 2.896-1.3 4.854-3.901 5.871C19.203 21.491 16.285 22 13.05 22c-3.216 0-6.195-.518-8.937-1.555C1.37 19.408 0 17.432 0 14.517l7.235-.028c0 1.29.59 2.107 1.773 2.453 1.182.346 2.567.518 4.156.518 1.494 0 2.776-.215 3.844-.645 1.068-.43 1.604-1.13 1.604-2.102v-.027c0-.542-.332-.944-.994-1.206a7.193 7.193 0 0 0-2.128-.476 49.757 49.757 0 0 0-2.723-.112h-2.128c-2.043 0-3.816-.126-5.32-.379-1.503-.252-2.766-.808-3.787-1.667C.511 9.986 0 8.716 0 7.034 0 4.12 1.329 2.218 3.986 1.331 6.643.444 9.665 0 13.051 0c3.177 0 6.08.514 8.71 1.542 2.628 1.027 3.943 3.008 3.943 5.94h-7.121c0-.933-.535-1.629-1.603-2.087-1.069-.457-2.369-.714-3.901-.77-1.646 0-3.036.186-4.17.56-1.135.374-1.703.962-1.703 1.765 0 .84.577 1.402 1.73 1.682 1.154.28 2.46.42 3.916.42l3.092-.028Zm22.78 1.093 11.433 11.238h-8.596l-8.51-8.688v8.688h-7.008V.617h7.007v7.202L41.051.617h8.681l-11.008 9.5Z" fill="#F8C73B"/>
  <path d="m62.64 6.95-3.404 6.166h6.78L62.64 6.95Zm14.951 14.405h-7.064l-1.957-3.558H56.682l-1.957 3.558H47.66L59.037.617h7.178L77.59 21.355Z" fill="#F8C73B"/>
  <path d="M94.546 6.053c-.312-.336-.714-.541-1.205-.616-.493-.074-1.211-.113-2.157-.113h-1.02c-1.4.039-3.623.057-6.668.057v4.456h7.688c.946 0 1.664-.038 2.157-.112.491-.075.893-.267 1.205-.575.312-.308.468-.807.468-1.499 0-.729-.156-1.261-.468-1.598Zm-.893 15.274-5.816-6.698h-4.341v6.698H76.8V.588h15.86c1.759 0 3.314.29 4.666.87 1.352.58 2.402 1.386 3.149 2.423.747 1.037 1.121 2.238 1.121 3.601v.112c0 1.776-.525 3.243-1.575 4.4-1.049 1.16-2.5 1.934-4.354 2.327l6.099 7.006h-8.113Zm26.408-4.75c.53-.065.955-.252 1.277-.56.321-.309.482-.8.482-1.472 0-.653-.161-1.125-.482-1.415-.322-.29-.747-.466-1.277-.532-.529-.066-1.324-.098-2.382-.098h-9.051v4.147c2.667 0 4.563.005 5.688.014 1.126.01 1.896.014 2.312.014h1.051c1.058 0 1.853-.032 2.382-.098Zm-1.233-7.903a1.96 1.96 0 0 0 1.134-.49c.312-.28.468-.748.468-1.401 0-.599-.152-1.028-.453-1.29-.304-.261-.692-.425-1.164-.49-.473-.065-1.163-.099-2.071-.099h-8.114v3.812c1.948 0 3.234.01 3.859.028h4.255c.946 0 1.641-.024 2.086-.07Zm8.95 3.447c.813.776 1.22 1.882 1.22 3.32v.113c0 2.112-.884 3.602-2.652 4.47-1.769.87-4.309 1.313-7.618 1.331h-16.654V.617h17.959c2.194.019 3.944.467 5.248 1.345 1.306.878 1.958 2.12 1.958 3.727v.113c0 1.214-.255 2.204-.766 2.97s-1.276 1.336-2.298 1.71c1.589.318 2.79.864 3.603 1.64Z" fill="#F8C73B"/>
</svg>
