<svg width="1855" height="860" fill="none" xmlns="http://www.w3.org/2000/svg">
  <g opacity=".6" fill="#AFADFF">
    <circle cx="2.5" cy="2.5" r="2.5"/>
    <circle cx="900" cy="2" r="2"/>
    <circle cx="452" cy="2" r="2"/>
    <circle cx="1348" cy="2" r="1"/>
    <circle cx="228" cy="2" r="2"/>
    <circle cx="1124" cy="2" r="2"/>
    <circle cx="676" cy="2" r="2"/>
    <circle cx="1572" cy="2" r="1"/>
    <circle cx="59" cy="2" r="1"/>
    <circle cx="956" cy="2" r="2"/>
    <circle cx="507.5" cy="2.5" r="2.5"/>
    <circle cx="1404" cy="2" r="1"/>
    <circle cx="283.5" cy="2.5" r="1.5"/>
    <circle cx="1179.5" cy="2.5" r="1.5"/>
    <circle cx="731.5" cy="2.5" r="1.5"/>
    <circle cx="1628" cy="2" r="1"/>
    <circle cx="116" cy="2" r="1"/>
    <circle cx="1011.5" cy="2.5" r="2.5"/>
    <circle cx="564" cy="2" r="2"/>
    <circle cx="1459.5" cy="2.5" r="1.5"/>
    <circle cx="339.5" cy="2.5" r="1.5"/>
    <circle cx="1235.5" cy="2.5" r="1.5"/>
    <circle cx="787.5" cy="2.5" r="1.5"/>
    <circle cx="1683.5" cy="2.5" r="1.5"/>
    <circle cx="1796.5" cy="2.5" r="1.5"/>
    <circle cx="171.5" cy="2.5" r="1.5"/>
    <circle cx="1067.5" cy="2.5" r="2.5"/>
    <circle cx="620" cy="2" r="2"/>
    <circle cx="1515.5" cy="2.5" r="1.5"/>
    <circle cx="396" cy="2" r="2"/>
    <circle cx="1292" cy="2" r="1"/>
    <circle cx="843.5" cy="2.5" r="1.5"/>
    <circle cx="1739.5" cy="2.5" r="1.5"/>
    <circle cx="1853" cy="2" r="1"/>
    <circle cx="1852.5" cy="317.5" r="2.5" transform="rotate(-180 1852.5 317.5)"/>
    <circle cx="956" cy="318" r="2" transform="rotate(-180 956 318)"/>
    <circle cx="1404" cy="318" r="2" transform="rotate(-180 1404 318)"/>
    <circle cx="508" cy="318" r="1" transform="rotate(-180 508 318)"/>
    <circle cx="1628" cy="318" r="2" transform="rotate(-180 1628 318)"/>
    <circle cx="732" cy="318" r="2" transform="rotate(-180 732 318)"/>
    <circle cx="1180" cy="318" r="2" transform="rotate(-180 1180 318)"/>
    <circle cx="284" cy="318" r="1" transform="rotate(-180 284 318)"/>
    <circle cx="1797" cy="318" r="1" transform="rotate(-180 1797 318)"/>
    <circle cx="900" cy="318" r="2" transform="rotate(-180 900 318)"/>
    <circle cx="1347.5" cy="317.5" r="2.5" transform="rotate(-180 1347.5 317.5)"/>
    <circle cx="452" cy="318" r="1" transform="rotate(-180 452 318)"/>
    <circle cx="1571.5" cy="317.5" r="1.5" transform="rotate(-180 1571.5 317.5)"/>
    <circle cx="675.5" cy="317.5" r="1.5" transform="rotate(-180 675.5 317.5)"/>
    <circle cx="1123.5" cy="317.5" r="1.5" transform="rotate(-180 1123.5 317.5)"/>
    <circle cx="228" cy="318" r="1" transform="rotate(-180 228 318)"/>
    <circle cx="1740" cy="318" r="1" transform="rotate(-180 1740 318)"/>
    <circle cx="843.5" cy="317.5" r="2.5" transform="rotate(-180 843.5 317.5)"/>
    <circle cx="1292" cy="318" r="2" transform="rotate(-180 1292 318)"/>
    <circle cx="395.5" cy="317.5" r="1.5" transform="rotate(-180 395.5 317.5)"/>
    <circle cx="1515.5" cy="317.5" r="1.5" transform="rotate(-180 1515.5 317.5)"/>
    <circle cx="619.5" cy="317.5" r="1.5" transform="rotate(-180 619.5 317.5)"/>
    <circle cx="1067.5" cy="317.5" r="1.5" transform="rotate(-180 1067.5 317.5)"/>
    <circle cx="171.5" cy="317.5" r="1.5" transform="rotate(-180 171.5 317.5)"/>
    <circle cx="58.5" cy="317.5" r="1.5" transform="rotate(-180 58.5 317.5)"/>
    <circle cx="1683.5" cy="317.5" r="1.5" transform="rotate(-180 1683.5 317.5)"/>
    <circle cx="787.5" cy="317.5" r="2.5" transform="rotate(-180 787.5 317.5)"/>
    <circle cx="1236" cy="318" r="2" transform="rotate(-180 1236 318)"/>
    <circle cx="339.5" cy="317.5" r="1.5" transform="rotate(-180 339.5 317.5)"/>
    <circle cx="1460" cy="318" r="2" transform="rotate(-180 1460 318)"/>
    <circle cx="564" cy="318" r="1" transform="rotate(-180 564 318)"/>
    <circle cx="1011.5" cy="317.5" r="1.5" transform="rotate(-180 1011.5 317.5)"/>
    <circle cx="115.5" cy="317.5" r="1.5" transform="rotate(-180 115.5 317.5)"/>
    <circle cx="3" cy="318" r="1" transform="rotate(-180 3 318)"/>
    <circle cx="2.5" cy="47.5" r="2.5"/>
    <circle cx="900" cy="47" r="2"/>
    <circle cx="452" cy="47" r="2"/>
    <circle cx="1348" cy="47" r="1"/>
    <circle cx="228" cy="47" r="2"/>
    <circle cx="1124" cy="47" r="2"/>
    <circle cx="676" cy="47" r="2"/>
    <circle cx="1572" cy="47" r="1"/>
    <circle cx="59" cy="47" r="1"/>
    <circle cx="956" cy="47" r="2"/>
    <circle cx="507.5" cy="47.5" r="2.5"/>
    <circle cx="1404" cy="47" r="1"/>
    <circle cx="283.5" cy="47.5" r="1.5"/>
    <circle cx="1179.5" cy="47.5" r="1.5"/>
    <circle cx="731.5" cy="47.5" r="1.5"/>
    <circle cx="1628" cy="47" r="1"/>
    <circle cx="116" cy="47" r="1"/>
    <circle cx="1011.5" cy="47.5" r="2.5"/>
    <circle cx="564" cy="47" r="2"/>
    <circle cx="1459.5" cy="47.5" r="1.5"/>
    <circle cx="339.5" cy="47.5" r="1.5"/>
    <circle cx="1235.5" cy="47.5" r="1.5"/>
    <circle cx="787.5" cy="47.5" r="1.5"/>
    <circle cx="1683.5" cy="47.5" r="1.5"/>
    <circle cx="1796.5" cy="47.5" r="1.5"/>
    <circle cx="171.5" cy="47.5" r="1.5"/>
    <circle cx="1067.5" cy="47.5" r="2.5"/>
    <circle cx="620" cy="47" r="2"/>
    <circle cx="1515.5" cy="47.5" r="1.5"/>
    <circle cx="396" cy="47" r="2"/>
    <circle cx="1292" cy="47" r="1"/>
    <circle cx="843.5" cy="47.5" r="1.5"/>
    <circle cx="1739.5" cy="47.5" r="1.5"/>
    <circle cx="1853" cy="47" r="1"/>
    <circle cx="1852.5" cy="272.5" r="2.5" transform="rotate(-180 1852.5 272.5)"/>
    <circle cx="956" cy="273" r="2" transform="rotate(-180 956 273)"/>
    <circle cx="1404" cy="273" r="2" transform="rotate(-180 1404 273)"/>
    <circle cx="508" cy="273" r="1" transform="rotate(-180 508 273)"/>
    <circle cx="1628" cy="273" r="2" transform="rotate(-180 1628 273)"/>
    <circle cx="732" cy="273" r="2" transform="rotate(-180 732 273)"/>
    <circle cx="1180" cy="273" r="2" transform="rotate(-180 1180 273)"/>
    <circle cx="284" cy="273" r="1" transform="rotate(-180 284 273)"/>
    <circle cx="1797" cy="273" r="1" transform="rotate(-180 1797 273)"/>
    <circle cx="900" cy="273" r="2" transform="rotate(-180 900 273)"/>
    <circle cx="1347.5" cy="272.5" r="2.5" transform="rotate(-180 1347.5 272.5)"/>
    <circle cx="452" cy="273" r="1" transform="rotate(-180 452 273)"/>
    <circle cx="1571.5" cy="272.5" r="1.5" transform="rotate(-180 1571.5 272.5)"/>
    <circle cx="675.5" cy="272.5" r="1.5" transform="rotate(-180 675.5 272.5)"/>
    <circle cx="1123.5" cy="272.5" r="1.5" transform="rotate(-180 1123.5 272.5)"/>
    <circle cx="228" cy="273" r="1" transform="rotate(-180 228 273)"/>
    <circle cx="1740" cy="273" r="1" transform="rotate(-180 1740 273)"/>
    <circle cx="843.5" cy="272.5" r="2.5" transform="rotate(-180 843.5 272.5)"/>
    <circle cx="1292" cy="273" r="2" transform="rotate(-180 1292 273)"/>
    <circle cx="395.5" cy="272.5" r="1.5" transform="rotate(-180 395.5 272.5)"/>
    <circle cx="1515.5" cy="272.5" r="1.5" transform="rotate(-180 1515.5 272.5)"/>
    <circle cx="619.5" cy="272.5" r="1.5" transform="rotate(-180 619.5 272.5)"/>
    <circle cx="1067.5" cy="272.5" r="1.5" transform="rotate(-180 1067.5 272.5)"/>
    <circle cx="171.5" cy="272.5" r="1.5" transform="rotate(-180 171.5 272.5)"/>
    <circle cx="58.5" cy="272.5" r="1.5" transform="rotate(-180 58.5 272.5)"/>
    <circle cx="1683.5" cy="272.5" r="1.5" transform="rotate(-180 1683.5 272.5)"/>
    <circle cx="787.5" cy="272.5" r="2.5" transform="rotate(-180 787.5 272.5)"/>
    <circle cx="1236" cy="273" r="2" transform="rotate(-180 1236 273)"/>
    <circle cx="339.5" cy="272.5" r="1.5" transform="rotate(-180 339.5 272.5)"/>
    <circle cx="1460" cy="273" r="2" transform="rotate(-180 1460 273)"/>
    <circle cx="564" cy="273" r="1" transform="rotate(-180 564 273)"/>
    <circle cx="1011.5" cy="272.5" r="1.5" transform="rotate(-180 1011.5 272.5)"/>
    <circle cx="115.5" cy="272.5" r="1.5" transform="rotate(-180 115.5 272.5)"/>
    <circle cx="3" cy="273" r="1" transform="rotate(-180 3 273)"/>
    <circle cx="2.5" cy="92.5" r="1.5"/>
    <circle cx="900" cy="92" r="2"/>
    <circle cx="452" cy="92" r="2"/>
    <circle cx="1348" cy="92" r="1"/>
    <circle cx="227.5" cy="92.5" r="1.5"/>
    <circle cx="1124" cy="92" r="2"/>
    <circle cx="676" cy="92" r="2"/>
    <circle cx="1572" cy="92" r="1"/>
    <circle cx="58.5" cy="92.5" r=".5"/>
    <circle cx="956" cy="92" r="2"/>
    <circle cx="507.5" cy="92.5" r="2.5"/>
    <circle cx="1403.5" cy="92.5" r="1.5"/>
    <circle cx="283.5" cy="92.5" r="1.5"/>
    <circle cx="1180" cy="92" r="1"/>
    <circle cx="731.5" cy="92.5" r="1.5"/>
    <circle cx="1627.5" cy="92.5" r="1.5"/>
    <circle cx="115.5" cy="92.5" r=".5"/>
    <circle cx="1011.5" cy="92.5" r="1.5"/>
    <circle cx="563.5" cy="92.5" r="1.5"/>
    <circle cx="1459.5" cy="92.5" r="1.5"/>
    <circle cx="339.5" cy="92.5" r="1.5"/>
    <circle cx="1236" cy="92" r="1"/>
    <circle cx="787.5" cy="92.5" r="1.5"/>
    <circle cx="1683.5" cy="92.5" r="1.5"/>
    <circle cx="1797" cy="92" r="2"/>
    <circle cx="172" cy="92" r="1"/>
    <circle cx="1067.5" cy="92.5" r="1.5"/>
    <circle cx="620" cy="92" r="2"/>
    <circle cx="1515.5" cy="92.5" r="1.5"/>
    <circle cx="395.5" cy="92.5" r="1.5"/>
    <circle cx="1292" cy="92" r="1"/>
    <circle cx="843.5" cy="92.5" r="1.5"/>
    <circle cx="1740" cy="92" r="2"/>
    <circle cx="1852.5" cy="92.5" r="1.5"/>
    <circle cx="1852.5" cy="227.5" r="1.5" transform="rotate(-180 1852.5 227.5)"/>
    <circle cx="956" cy="228" r="2" transform="rotate(-180 956 228)"/>
    <circle cx="1404" cy="228" r="2" transform="rotate(-180 1404 228)"/>
    <circle cx="508" cy="228" r="1" transform="rotate(-180 508 228)"/>
    <circle cx="1627.5" cy="227.5" r="1.5" transform="rotate(-180 1627.5 227.5)"/>
    <circle cx="732" cy="228" r="2" transform="rotate(-180 732 228)"/>
    <circle cx="1180" cy="228" r="2" transform="rotate(-180 1180 228)"/>
    <circle cx="284" cy="228" r="1" transform="rotate(-180 284 228)"/>
    <circle cx="1796.5" cy="227.5" r=".5" transform="rotate(-180 1796.5 227.5)"/>
    <circle cx="900" cy="228" r="2" transform="rotate(-180 900 228)"/>
    <circle cx="1347.5" cy="227.5" r="2.5" transform="rotate(-180 1347.5 227.5)"/>
    <circle cx="451.5" cy="227.5" r="1.5" transform="rotate(-180 451.5 227.5)"/>
    <circle cx="1571.5" cy="227.5" r="1.5" transform="rotate(-180 1571.5 227.5)"/>
    <circle cx="676" cy="228" r="1" transform="rotate(-180 676 228)"/>
    <circle cx="1123.5" cy="227.5" r="1.5" transform="rotate(-180 1123.5 227.5)"/>
    <circle cx="227.5" cy="227.5" r="1.5" transform="rotate(-180 227.5 227.5)"/>
    <circle cx="1739.5" cy="227.5" r=".5" transform="rotate(-180 1739.5 227.5)"/>
    <circle cx="843.5" cy="227.5" r="1.5" transform="rotate(-180 843.5 227.5)"/>
    <circle cx="1291.5" cy="227.5" r="1.5" transform="rotate(-180 1291.5 227.5)"/>
    <circle cx="395.5" cy="227.5" r="1.5" transform="rotate(-180 395.5 227.5)"/>
    <circle cx="1515.5" cy="227.5" r="1.5" transform="rotate(-180 1515.5 227.5)"/>
    <circle cx="620" cy="228" r="1" transform="rotate(-180 620 228)"/>
    <circle cx="1067.5" cy="227.5" r="1.5" transform="rotate(-180 1067.5 227.5)"/>
    <circle cx="171.5" cy="227.5" r="1.5" transform="rotate(-180 171.5 227.5)"/>
    <circle cx="59" cy="228" r="2" transform="rotate(-180 59 228)"/>
    <circle cx="1684" cy="228" r="1" transform="rotate(-180 1684 228)"/>
    <circle cx="787.5" cy="227.5" r="1.5" transform="rotate(-180 787.5 227.5)"/>
    <circle cx="1236" cy="228" r="2" transform="rotate(-180 1236 228)"/>
    <circle cx="339.5" cy="227.5" r="1.5" transform="rotate(-180 339.5 227.5)"/>
    <circle cx="1459.5" cy="227.5" r="1.5" transform="rotate(-180 1459.5 227.5)"/>
    <circle cx="564" cy="228" r="1" transform="rotate(-180 564 228)"/>
    <circle cx="1011.5" cy="227.5" r="1.5" transform="rotate(-180 1011.5 227.5)"/>
    <circle cx="116" cy="228" r="2" transform="rotate(-180 116 228)"/>
    <circle cx="2.5" cy="227.5" r="1.5" transform="rotate(-180 2.5 227.5)"/>
    <circle cx="3" cy="137" r="1"/>
    <circle cx="900" cy="137" r="2"/>
    <circle cx="451.5" cy="137.5" r="1.5"/>
    <circle cx="1347.5" cy="137.5" r="1.5"/>
    <circle cx="227.5" cy="137.5" r="1.5"/>
    <circle cx="1124" cy="137" r="2"/>
    <circle cx="676" cy="137" r="2"/>
    <circle cx="1572" cy="137" r="1"/>
    <circle cx="58.5" cy="137.5" r=".5"/>
    <circle cx="956" cy="137" r="2"/>
    <circle cx="507.5" cy="137.5" r="1.5"/>
    <circle cx="1403.5" cy="137.5" r="1.5"/>
    <circle cx="283.5" cy="137.5" r="1.5"/>
    <circle cx="1180" cy="137" r="1"/>
    <circle cx="731.5" cy="137.5" r="1.5"/>
    <circle cx="1627.5" cy="137.5" r="1.5"/>
    <circle cx="115.5" cy="137.5" r=".5"/>
    <circle cx="1011.5" cy="137.5" r="1.5"/>
    <circle cx="563.5" cy="137.5" r="1.5"/>
    <circle cx="1459.5" cy="137.5" r=".5"/>
    <circle cx="339.5" cy="137.5" r="1.5"/>
    <circle cx="1235.5" cy="137.5" r="1.5"/>
    <circle cx="787.5" cy="137.5" r="1.5"/>
    <circle cx="1683.5" cy="137.5" r="1.5"/>
    <circle cx="1797" cy="137" r="2"/>
    <circle cx="172" cy="137" r="1"/>
    <circle cx="1067.5" cy="137.5" r="1.5"/>
    <circle cx="620" cy="137" r="2"/>
    <circle cx="1515.5" cy="137.5" r=".5"/>
    <circle cx="395.5" cy="137.5" r="1.5"/>
    <circle cx="1291.5" cy="137.5" r="1.5"/>
    <circle cx="843.5" cy="137.5" r="1.5"/>
    <circle cx="1739.5" cy="137.5" r="2.5"/>
    <circle cx="1852.5" cy="137.5" r="2.5"/>
    <circle cx="1853" cy="182" r="1" transform="rotate(-180 1853 182)"/>
    <circle cx="956" cy="182" r="2" transform="rotate(-180 956 182)"/>
    <circle cx="1403.5" cy="182.5" r="1.5" transform="rotate(-180 1403.5 182.5)"/>
    <circle cx="507.5" cy="182.5" r="1.5" transform="rotate(-180 507.5 182.5)"/>
    <circle cx="1627.5" cy="182.5" r="1.5" transform="rotate(-180 1627.5 182.5)"/>
    <circle cx="732" cy="182" r="2" transform="rotate(-180 732 182)"/>
    <circle cx="1180" cy="182" r="2" transform="rotate(-180 1180 182)"/>
    <circle cx="284" cy="182" r="1" transform="rotate(-180 284 182)"/>
    <circle cx="1796.5" cy="182.5" r=".5" transform="rotate(-180 1796.5 182.5)"/>
    <circle cx="900" cy="182" r="2" transform="rotate(-180 900 182)"/>
    <circle cx="1347.5" cy="182.5" r="1.5" transform="rotate(-180 1347.5 182.5)"/>
    <circle cx="451.5" cy="182.5" r="1.5" transform="rotate(-180 451.5 182.5)"/>
    <circle cx="1571.5" cy="182.5" r="1.5" transform="rotate(-180 1571.5 182.5)"/>
    <circle cx="676" cy="182" r="1" transform="rotate(-180 676 182)"/>
    <circle cx="1123.5" cy="182.5" r="1.5" transform="rotate(-180 1123.5 182.5)"/>
    <circle cx="227.5" cy="182.5" r="1.5" transform="rotate(-180 227.5 182.5)"/>
    <circle cx="1739.5" cy="182.5" r=".5" transform="rotate(-180 1739.5 182.5)"/>
    <circle cx="843.5" cy="182.5" r="1.5" transform="rotate(-180 843.5 182.5)"/>
    <circle cx="1291.5" cy="182.5" r="1.5" transform="rotate(-180 1291.5 182.5)"/>
    <circle cx="395.5" cy="182.5" r=".5" transform="rotate(-180 395.5 182.5)"/>
    <circle cx="1515.5" cy="182.5" r="1.5" transform="rotate(-180 1515.5 182.5)"/>
    <circle cx="619.5" cy="182.5" r="1.5" transform="rotate(-180 619.5 182.5)"/>
    <circle cx="1067.5" cy="182.5" r="1.5" transform="rotate(-180 1067.5 182.5)"/>
    <circle cx="171.5" cy="182.5" r="1.5" transform="rotate(-180 171.5 182.5)"/>
    <circle cx="59" cy="182" r="2" transform="rotate(-180 59 182)"/>
    <circle cx="1684" cy="182" r="1" transform="rotate(-180 1684 182)"/>
    <circle cx="787.5" cy="182.5" r="1.5" transform="rotate(-180 787.5 182.5)"/>
    <circle cx="1236" cy="182" r="2" transform="rotate(-180 1236 182)"/>
    <circle cx="339.5" cy="182.5" r=".5" transform="rotate(-180 339.5 182.5)"/>
    <circle cx="1459.5" cy="182.5" r="1.5" transform="rotate(-180 1459.5 182.5)"/>
    <circle cx="563.5" cy="182.5" r="1.5" transform="rotate(-180 563.5 182.5)"/>
    <circle cx="1011.5" cy="182.5" r="1.5" transform="rotate(-180 1011.5 182.5)"/>
    <circle cx="115.5" cy="182.5" r="2.5" transform="rotate(-180 115.5 182.5)"/>
    <circle cx="2.5" cy="182.5" r="2.5" transform="rotate(-180 2.5 182.5)"/>
    <circle cx="2.5" cy="362.5" r="2.5"/>
    <circle cx="900" cy="362" r="2"/>
    <circle cx="452" cy="362" r="2"/>
    <circle cx="1348" cy="362" r="1"/>
    <circle cx="228" cy="362" r="2"/>
    <circle cx="1124" cy="362" r="2"/>
    <circle cx="676" cy="362" r="2"/>
    <circle cx="1572" cy="362" r="1"/>
    <circle cx="59" cy="362" r="1"/>
    <circle cx="956" cy="362" r="2"/>
    <circle cx="507.5" cy="362.5" r="2.5"/>
    <circle cx="1404" cy="362" r="1"/>
    <circle cx="283.5" cy="362.5" r="1.5"/>
    <circle cx="1179.5" cy="362.5" r="1.5"/>
    <circle cx="731.5" cy="362.5" r="1.5"/>
    <circle cx="1628" cy="362" r="1"/>
    <circle cx="116" cy="362" r="1"/>
    <circle cx="1011.5" cy="362.5" r="2.5"/>
    <circle cx="564" cy="362" r="2"/>
    <circle cx="1459.5" cy="362.5" r="1.5"/>
    <circle cx="339.5" cy="362.5" r="1.5"/>
    <circle cx="1235.5" cy="362.5" r="1.5"/>
    <circle cx="787.5" cy="362.5" r="1.5"/>
    <circle cx="1683.5" cy="362.5" r="1.5"/>
    <circle cx="1796.5" cy="362.5" r="1.5"/>
    <circle cx="171.5" cy="362.5" r="1.5"/>
    <circle cx="1067.5" cy="362.5" r="2.5"/>
    <circle cx="620" cy="362" r="2"/>
    <circle cx="1515.5" cy="362.5" r="1.5"/>
    <circle cx="396" cy="362" r="2"/>
    <circle cx="1292" cy="362" r="1"/>
    <circle cx="843.5" cy="362.5" r="1.5"/>
    <circle cx="1739.5" cy="362.5" r="1.5"/>
    <circle cx="1853" cy="362" r="1"/>
    <circle cx="1852.5" cy="677.5" r="2.5" transform="rotate(-180 1852.5 677.5)"/>
    <circle cx="956" cy="678" r="2" transform="rotate(-180 956 678)"/>
    <circle cx="1404" cy="678" r="2" transform="rotate(-180 1404 678)"/>
    <circle cx="508" cy="678" r="1" transform="rotate(-180 508 678)"/>
    <circle cx="1628" cy="678" r="2" transform="rotate(-180 1628 678)"/>
    <circle cx="732" cy="678" r="2" transform="rotate(-180 732 678)"/>
    <circle cx="1180" cy="678" r="2" transform="rotate(-180 1180 678)"/>
    <circle cx="284" cy="678" r="1" transform="rotate(-180 284 678)"/>
    <circle cx="1797" cy="678" r="1" transform="rotate(-180 1797 678)"/>
    <circle cx="900" cy="678" r="2" transform="rotate(-180 900 678)"/>
    <circle cx="1347.5" cy="677.5" r="2.5" transform="rotate(-180 1347.5 677.5)"/>
    <circle cx="452" cy="678" r="1" transform="rotate(-180 452 678)"/>
    <circle cx="1571.5" cy="677.5" r="1.5" transform="rotate(-180 1571.5 677.5)"/>
    <circle cx="675.5" cy="677.5" r="1.5" transform="rotate(-180 675.5 677.5)"/>
    <circle cx="1123.5" cy="677.5" r="1.5" transform="rotate(-180 1123.5 677.5)"/>
    <circle cx="228" cy="678" r="1" transform="rotate(-180 228 678)"/>
    <circle cx="1740" cy="678" r="1" transform="rotate(-180 1740 678)"/>
    <circle cx="843.5" cy="677.5" r="2.5" transform="rotate(-180 843.5 677.5)"/>
    <circle cx="1292" cy="678" r="2" transform="rotate(-180 1292 678)"/>
    <circle cx="395.5" cy="677.5" r="1.5" transform="rotate(-180 395.5 677.5)"/>
    <circle cx="1515.5" cy="677.5" r="1.5" transform="rotate(-180 1515.5 677.5)"/>
    <circle cx="619.5" cy="677.5" r="1.5" transform="rotate(-180 619.5 677.5)"/>
    <circle cx="1067.5" cy="677.5" r="1.5" transform="rotate(-180 1067.5 677.5)"/>
    <circle cx="171.5" cy="677.5" r="1.5" transform="rotate(-180 171.5 677.5)"/>
    <circle cx="58.5" cy="677.5" r="1.5" transform="rotate(-180 58.5 677.5)"/>
    <circle cx="1683.5" cy="677.5" r="1.5" transform="rotate(-180 1683.5 677.5)"/>
    <circle cx="787.5" cy="677.5" r="2.5" transform="rotate(-180 787.5 677.5)"/>
    <circle cx="1236" cy="678" r="2" transform="rotate(-180 1236 678)"/>
    <circle cx="339.5" cy="677.5" r="1.5" transform="rotate(-180 339.5 677.5)"/>
    <circle cx="1460" cy="678" r="2" transform="rotate(-180 1460 678)"/>
    <circle cx="564" cy="678" r="1" transform="rotate(-180 564 678)"/>
    <circle cx="1011.5" cy="677.5" r="1.5" transform="rotate(-180 1011.5 677.5)"/>
    <circle cx="115.5" cy="677.5" r="1.5" transform="rotate(-180 115.5 677.5)"/>
    <circle cx="3" cy="678" r="1" transform="rotate(-180 3 678)"/>
    <circle cx="1852.5" cy="857.5" r="2.5" transform="rotate(-180 1852.5 857.5)"/>
    <circle cx="956" cy="858" r="2" transform="rotate(-180 956 858)"/>
    <circle cx="1404" cy="858" r="2" transform="rotate(-180 1404 858)"/>
    <circle cx="508" cy="858" r="1" transform="rotate(-180 508 858)"/>
    <circle cx="1628" cy="858" r="2" transform="rotate(-180 1628 858)"/>
    <circle cx="732" cy="858" r="2" transform="rotate(-180 732 858)"/>
    <circle cx="1180" cy="858" r="2" transform="rotate(-180 1180 858)"/>
    <circle cx="284" cy="858" r="1" transform="rotate(-180 284 858)"/>
    <circle cx="1797" cy="858" r="1" transform="rotate(-180 1797 858)"/>
    <circle cx="900" cy="858" r="2" transform="rotate(-180 900 858)"/>
    <circle cx="1347.5" cy="857.5" r="2.5" transform="rotate(-180 1347.5 857.5)"/>
    <circle cx="452" cy="858" r="1" transform="rotate(-180 452 858)"/>
    <circle cx="1571.5" cy="857.5" r="1.5" transform="rotate(-180 1571.5 857.5)"/>
    <circle cx="675.5" cy="857.5" r="1.5" transform="rotate(-180 675.5 857.5)"/>
    <circle cx="1123.5" cy="857.5" r="1.5" transform="rotate(-180 1123.5 857.5)"/>
    <circle cx="228" cy="858" r="1" transform="rotate(-180 228 858)"/>
    <circle cx="1740" cy="858" r="1" transform="rotate(-180 1740 858)"/>
    <circle cx="843.5" cy="857.5" r="2.5" transform="rotate(-180 843.5 857.5)"/>
    <circle cx="1292" cy="858" r="2" transform="rotate(-180 1292 858)"/>
    <circle cx="395.5" cy="857.5" r="1.5" transform="rotate(-180 395.5 857.5)"/>
    <circle cx="1515.5" cy="857.5" r="1.5" transform="rotate(-180 1515.5 857.5)"/>
    <circle cx="619.5" cy="857.5" r="1.5" transform="rotate(-180 619.5 857.5)"/>
    <circle cx="1067.5" cy="857.5" r="1.5" transform="rotate(-180 1067.5 857.5)"/>
    <circle cx="171.5" cy="857.5" r="1.5" transform="rotate(-180 171.5 857.5)"/>
    <circle cx="58.5" cy="857.5" r="1.5" transform="rotate(-180 58.5 857.5)"/>
    <circle cx="1683.5" cy="857.5" r="1.5" transform="rotate(-180 1683.5 857.5)"/>
    <circle cx="787.5" cy="857.5" r="2.5" transform="rotate(-180 787.5 857.5)"/>
    <circle cx="1236" cy="858" r="2" transform="rotate(-180 1236 858)"/>
    <circle cx="339.5" cy="857.5" r="1.5" transform="rotate(-180 339.5 857.5)"/>
    <circle cx="1460" cy="858" r="2" transform="rotate(-180 1460 858)"/>
    <circle cx="564" cy="858" r="1" transform="rotate(-180 564 858)"/>
    <circle cx="1011.5" cy="857.5" r="1.5" transform="rotate(-180 1011.5 857.5)"/>
    <circle cx="115.5" cy="857.5" r="1.5" transform="rotate(-180 115.5 857.5)"/>
    <circle cx="3" cy="858" r="1" transform="rotate(-180 3 858)"/>
    <circle cx="2.5" cy="407.5" r="2.5"/>
    <circle cx="900" cy="407" r="2"/>
    <circle cx="452" cy="407" r="2"/>
    <circle cx="1348" cy="407" r="1"/>
    <circle cx="228" cy="407" r="2"/>
    <circle cx="1124" cy="407" r="2"/>
    <circle cx="676" cy="407" r="2"/>
    <circle cx="1572" cy="407" r="1"/>
    <circle cx="59" cy="407" r="1"/>
    <circle cx="956" cy="407" r="2"/>
    <circle cx="507.5" cy="407.5" r="2.5"/>
    <circle cx="1404" cy="407" r="1"/>
    <circle cx="283.5" cy="407.5" r="1.5"/>
    <circle cx="1179.5" cy="407.5" r="1.5"/>
    <circle cx="731.5" cy="407.5" r="1.5"/>
    <circle cx="1628" cy="407" r="1"/>
    <circle cx="116" cy="407" r="1"/>
    <circle cx="1011.5" cy="407.5" r="2.5"/>
    <circle cx="564" cy="407" r="2"/>
    <circle cx="1459.5" cy="407.5" r="1.5"/>
    <circle cx="339.5" cy="407.5" r="1.5"/>
    <circle cx="1235.5" cy="407.5" r="1.5"/>
    <circle cx="787.5" cy="407.5" r="1.5"/>
    <circle cx="1683.5" cy="407.5" r="1.5"/>
    <circle cx="1796.5" cy="407.5" r="1.5"/>
    <circle cx="171.5" cy="407.5" r="1.5"/>
    <circle cx="1067.5" cy="407.5" r="2.5"/>
    <circle cx="620" cy="407" r="2"/>
    <circle cx="1515.5" cy="407.5" r="1.5"/>
    <circle cx="396" cy="407" r="2"/>
    <circle cx="1292" cy="407" r="1"/>
    <circle cx="843.5" cy="407.5" r="1.5"/>
    <circle cx="1739.5" cy="407.5" r="1.5"/>
    <circle cx="1853" cy="407" r="1"/>
    <circle cx="1852.5" cy="632.5" r="2.5" transform="rotate(-180 1852.5 632.5)"/>
    <circle cx="956" cy="633" r="2" transform="rotate(-180 956 633)"/>
    <circle cx="1404" cy="633" r="2" transform="rotate(-180 1404 633)"/>
    <circle cx="508" cy="633" r="1" transform="rotate(-180 508 633)"/>
    <circle cx="1628" cy="633" r="2" transform="rotate(-180 1628 633)"/>
    <circle cx="732" cy="633" r="2" transform="rotate(-180 732 633)"/>
    <circle cx="1180" cy="633" r="2" transform="rotate(-180 1180 633)"/>
    <circle cx="284" cy="633" r="1" transform="rotate(-180 284 633)"/>
    <circle cx="1797" cy="633" r="1" transform="rotate(-180 1797 633)"/>
    <circle cx="900" cy="633" r="2" transform="rotate(-180 900 633)"/>
    <circle cx="1347.5" cy="632.5" r="2.5" transform="rotate(-180 1347.5 632.5)"/>
    <circle cx="452" cy="633" r="1" transform="rotate(-180 452 633)"/>
    <circle cx="1571.5" cy="632.5" r="1.5" transform="rotate(-180 1571.5 632.5)"/>
    <circle cx="675.5" cy="632.5" r="1.5" transform="rotate(-180 675.5 632.5)"/>
    <circle cx="1123.5" cy="632.5" r="1.5" transform="rotate(-180 1123.5 632.5)"/>
    <circle cx="228" cy="633" r="1" transform="rotate(-180 228 633)"/>
    <circle cx="1740" cy="633" r="1" transform="rotate(-180 1740 633)"/>
    <circle cx="843.5" cy="632.5" r="2.5" transform="rotate(-180 843.5 632.5)"/>
    <circle cx="1292" cy="633" r="2" transform="rotate(-180 1292 633)"/>
    <circle cx="395.5" cy="632.5" r="1.5" transform="rotate(-180 395.5 632.5)"/>
    <circle cx="1515.5" cy="632.5" r="1.5" transform="rotate(-180 1515.5 632.5)"/>
    <circle cx="619.5" cy="632.5" r="1.5" transform="rotate(-180 619.5 632.5)"/>
    <circle cx="1067.5" cy="632.5" r="1.5" transform="rotate(-180 1067.5 632.5)"/>
    <circle cx="171.5" cy="632.5" r="1.5" transform="rotate(-180 171.5 632.5)"/>
    <circle cx="58.5" cy="632.5" r="1.5" transform="rotate(-180 58.5 632.5)"/>
    <circle cx="1683.5" cy="632.5" r="1.5" transform="rotate(-180 1683.5 632.5)"/>
    <circle cx="787.5" cy="632.5" r="2.5" transform="rotate(-180 787.5 632.5)"/>
    <circle cx="1236" cy="633" r="2" transform="rotate(-180 1236 633)"/>
    <circle cx="339.5" cy="632.5" r="1.5" transform="rotate(-180 339.5 632.5)"/>
    <circle cx="1460" cy="633" r="2" transform="rotate(-180 1460 633)"/>
    <circle cx="564" cy="633" r="1" transform="rotate(-180 564 633)"/>
    <circle cx="1011.5" cy="632.5" r="1.5" transform="rotate(-180 1011.5 632.5)"/>
    <circle cx="115.5" cy="632.5" r="1.5" transform="rotate(-180 115.5 632.5)"/>
    <circle cx="3" cy="633" r="1" transform="rotate(-180 3 633)"/>
    <circle cx="1852.5" cy="812.5" r="2.5" transform="rotate(-180 1852.5 812.5)"/>
    <circle cx="956" cy="813" r="2" transform="rotate(-180 956 813)"/>
    <circle cx="1404" cy="813" r="2" transform="rotate(-180 1404 813)"/>
    <circle cx="508" cy="813" r="1" transform="rotate(-180 508 813)"/>
    <circle cx="1628" cy="813" r="2" transform="rotate(-180 1628 813)"/>
    <circle cx="732" cy="813" r="2" transform="rotate(-180 732 813)"/>
    <circle cx="1180" cy="813" r="2" transform="rotate(-180 1180 813)"/>
    <circle cx="284" cy="813" r="1" transform="rotate(-180 284 813)"/>
    <circle cx="1797" cy="813" r="1" transform="rotate(-180 1797 813)"/>
    <circle cx="900" cy="813" r="2" transform="rotate(-180 900 813)"/>
    <circle cx="1347.5" cy="812.5" r="2.5" transform="rotate(-180 1347.5 812.5)"/>
    <circle cx="452" cy="813" r="1" transform="rotate(-180 452 813)"/>
    <circle cx="1571.5" cy="812.5" r="1.5" transform="rotate(-180 1571.5 812.5)"/>
    <circle cx="675.5" cy="812.5" r="1.5" transform="rotate(-180 675.5 812.5)"/>
    <circle cx="1123.5" cy="812.5" r="1.5" transform="rotate(-180 1123.5 812.5)"/>
    <circle cx="228" cy="813" r="1" transform="rotate(-180 228 813)"/>
    <circle cx="1740" cy="813" r="1" transform="rotate(-180 1740 813)"/>
    <circle cx="843.5" cy="812.5" r="2.5" transform="rotate(-180 843.5 812.5)"/>
    <circle cx="1292" cy="813" r="2" transform="rotate(-180 1292 813)"/>
    <circle cx="395.5" cy="812.5" r="1.5" transform="rotate(-180 395.5 812.5)"/>
    <circle cx="1515.5" cy="812.5" r="1.5" transform="rotate(-180 1515.5 812.5)"/>
    <circle cx="619.5" cy="812.5" r="1.5" transform="rotate(-180 619.5 812.5)"/>
    <circle cx="1067.5" cy="812.5" r="1.5" transform="rotate(-180 1067.5 812.5)"/>
    <circle cx="171.5" cy="812.5" r="1.5" transform="rotate(-180 171.5 812.5)"/>
    <circle cx="58.5" cy="812.5" r="1.5" transform="rotate(-180 58.5 812.5)"/>
    <circle cx="1683.5" cy="812.5" r="1.5" transform="rotate(-180 1683.5 812.5)"/>
    <circle cx="787.5" cy="812.5" r="2.5" transform="rotate(-180 787.5 812.5)"/>
    <circle cx="1236" cy="813" r="2" transform="rotate(-180 1236 813)"/>
    <circle cx="339.5" cy="812.5" r="1.5" transform="rotate(-180 339.5 812.5)"/>
    <circle cx="1460" cy="813" r="2" transform="rotate(-180 1460 813)"/>
    <circle cx="564" cy="813" r="1" transform="rotate(-180 564 813)"/>
    <circle cx="1011.5" cy="812.5" r="1.5" transform="rotate(-180 1011.5 812.5)"/>
    <circle cx="115.5" cy="812.5" r="1.5" transform="rotate(-180 115.5 812.5)"/>
    <circle cx="3" cy="813" r="1" transform="rotate(-180 3 813)"/>
    <circle cx="2.5" cy="452.5" r="1.5"/>
    <circle cx="900" cy="452" r="2"/>
    <circle cx="452" cy="452" r="2"/>
    <circle cx="1348" cy="452" r="1"/>
    <circle cx="227.5" cy="452.5" r="1.5"/>
    <circle cx="1124" cy="452" r="2"/>
    <circle cx="676" cy="452" r="2"/>
    <circle cx="1572" cy="452" r="1"/>
    <circle cx="58.5" cy="452.5" r=".5"/>
    <circle cx="956" cy="452" r="2"/>
    <circle cx="507.5" cy="452.5" r="2.5"/>
    <circle cx="1403.5" cy="452.5" r="1.5"/>
    <circle cx="283.5" cy="452.5" r="1.5"/>
    <circle cx="1180" cy="452" r="1"/>
    <circle cx="731.5" cy="452.5" r="1.5"/>
    <circle cx="1627.5" cy="452.5" r="1.5"/>
    <circle cx="115.5" cy="452.5" r=".5"/>
    <circle cx="1011.5" cy="452.5" r="1.5"/>
    <circle cx="563.5" cy="452.5" r="1.5"/>
    <circle cx="1459.5" cy="452.5" r="1.5"/>
    <circle cx="339.5" cy="452.5" r="1.5"/>
    <circle cx="1236" cy="452" r="1"/>
    <circle cx="787.5" cy="452.5" r="1.5"/>
    <circle cx="1683.5" cy="452.5" r="1.5"/>
    <circle cx="1797" cy="452" r="2"/>
    <circle cx="172" cy="452" r="1"/>
    <circle cx="1067.5" cy="452.5" r="1.5"/>
    <circle cx="620" cy="452" r="2"/>
    <circle cx="1515.5" cy="452.5" r="1.5"/>
    <circle cx="395.5" cy="452.5" r="1.5"/>
    <circle cx="1292" cy="452" r="1"/>
    <circle cx="843.5" cy="452.5" r="1.5"/>
    <circle cx="1740" cy="452" r="2"/>
    <circle cx="1852.5" cy="452.5" r="1.5"/>
    <circle cx="1852.5" cy="587.5" r="1.5" transform="rotate(-180 1852.5 587.5)"/>
    <circle cx="956" cy="588" r="2" transform="rotate(-180 956 588)"/>
    <circle cx="1404" cy="588" r="2" transform="rotate(-180 1404 588)"/>
    <circle cx="508" cy="588" r="1" transform="rotate(-180 508 588)"/>
    <circle cx="1627.5" cy="587.5" r="1.5" transform="rotate(-180 1627.5 587.5)"/>
    <circle cx="732" cy="588" r="2" transform="rotate(-180 732 588)"/>
    <circle cx="1180" cy="588" r="2" transform="rotate(-180 1180 588)"/>
    <circle cx="284" cy="588" r="1" transform="rotate(-180 284 588)"/>
    <circle cx="1796.5" cy="587.5" r=".5" transform="rotate(-180 1796.5 587.5)"/>
    <circle cx="900" cy="588" r="2" transform="rotate(-180 900 588)"/>
    <circle cx="1347.5" cy="587.5" r="2.5" transform="rotate(-180 1347.5 587.5)"/>
    <circle cx="451.5" cy="587.5" r="1.5" transform="rotate(-180 451.5 587.5)"/>
    <circle cx="1571.5" cy="587.5" r="1.5" transform="rotate(-180 1571.5 587.5)"/>
    <circle cx="676" cy="588" r="1" transform="rotate(-180 676 588)"/>
    <circle cx="1123.5" cy="587.5" r="1.5" transform="rotate(-180 1123.5 587.5)"/>
    <circle cx="227.5" cy="587.5" r="1.5" transform="rotate(-180 227.5 587.5)"/>
    <circle cx="1739.5" cy="587.5" r=".5" transform="rotate(-180 1739.5 587.5)"/>
    <circle cx="843.5" cy="587.5" r="1.5" transform="rotate(-180 843.5 587.5)"/>
    <circle cx="1291.5" cy="587.5" r="1.5" transform="rotate(-180 1291.5 587.5)"/>
    <circle cx="395.5" cy="587.5" r="1.5" transform="rotate(-180 395.5 587.5)"/>
    <circle cx="1515.5" cy="587.5" r="1.5" transform="rotate(-180 1515.5 587.5)"/>
    <circle cx="620" cy="588" r="1" transform="rotate(-180 620 588)"/>
    <circle cx="1067.5" cy="587.5" r="1.5" transform="rotate(-180 1067.5 587.5)"/>
    <circle cx="171.5" cy="587.5" r="1.5" transform="rotate(-180 171.5 587.5)"/>
    <circle cx="59" cy="588" r="2" transform="rotate(-180 59 588)"/>
    <circle cx="1684" cy="588" r="1" transform="rotate(-180 1684 588)"/>
    <circle cx="787.5" cy="587.5" r="1.5" transform="rotate(-180 787.5 587.5)"/>
    <circle cx="1236" cy="588" r="2" transform="rotate(-180 1236 588)"/>
    <circle cx="339.5" cy="587.5" r="1.5" transform="rotate(-180 339.5 587.5)"/>
    <circle cx="1459.5" cy="587.5" r="1.5" transform="rotate(-180 1459.5 587.5)"/>
    <circle cx="564" cy="588" r="1" transform="rotate(-180 564 588)"/>
    <circle cx="1011.5" cy="587.5" r="1.5" transform="rotate(-180 1011.5 587.5)"/>
    <circle cx="116" cy="588" r="2" transform="rotate(-180 116 588)"/>
    <circle cx="2.5" cy="587.5" r="1.5" transform="rotate(-180 2.5 587.5)"/>
    <circle cx="1852.5" cy="767.5" r="1.5" transform="rotate(-180 1852.5 767.5)"/>
    <circle cx="956" cy="768" r="2" transform="rotate(-180 956 768)"/>
    <circle cx="1404" cy="768" r="2" transform="rotate(-180 1404 768)"/>
    <circle cx="508" cy="768" r="1" transform="rotate(-180 508 768)"/>
    <circle cx="1627.5" cy="767.5" r="1.5" transform="rotate(-180 1627.5 767.5)"/>
    <circle cx="732" cy="768" r="2" transform="rotate(-180 732 768)"/>
    <circle cx="1180" cy="768" r="2" transform="rotate(-180 1180 768)"/>
    <circle cx="284" cy="768" r="1" transform="rotate(-180 284 768)"/>
    <circle cx="1796.5" cy="767.5" r=".5" transform="rotate(-180 1796.5 767.5)"/>
    <circle cx="900" cy="768" r="2" transform="rotate(-180 900 768)"/>
    <circle cx="1347.5" cy="767.5" r="2.5" transform="rotate(-180 1347.5 767.5)"/>
    <circle cx="451.5" cy="767.5" r="1.5" transform="rotate(-180 451.5 767.5)"/>
    <circle cx="1571.5" cy="767.5" r="1.5" transform="rotate(-180 1571.5 767.5)"/>
    <circle cx="676" cy="768" r="1" transform="rotate(-180 676 768)"/>
    <circle cx="1123.5" cy="767.5" r="1.5" transform="rotate(-180 1123.5 767.5)"/>
    <circle cx="227.5" cy="767.5" r="1.5" transform="rotate(-180 227.5 767.5)"/>
    <circle cx="1739.5" cy="767.5" r=".5" transform="rotate(-180 1739.5 767.5)"/>
    <circle cx="843.5" cy="767.5" r="1.5" transform="rotate(-180 843.5 767.5)"/>
    <circle cx="1291.5" cy="767.5" r="1.5" transform="rotate(-180 1291.5 767.5)"/>
    <circle cx="395.5" cy="767.5" r="1.5" transform="rotate(-180 395.5 767.5)"/>
    <circle cx="1515.5" cy="767.5" r="1.5" transform="rotate(-180 1515.5 767.5)"/>
    <circle cx="620" cy="768" r="1" transform="rotate(-180 620 768)"/>
    <circle cx="1067.5" cy="767.5" r="1.5" transform="rotate(-180 1067.5 767.5)"/>
    <circle cx="171.5" cy="767.5" r="1.5" transform="rotate(-180 171.5 767.5)"/>
    <circle cx="59" cy="768" r="2" transform="rotate(-180 59 768)"/>
    <circle cx="1684" cy="768" r="1" transform="rotate(-180 1684 768)"/>
    <circle cx="787.5" cy="767.5" r="1.5" transform="rotate(-180 787.5 767.5)"/>
    <circle cx="1236" cy="768" r="2" transform="rotate(-180 1236 768)"/>
    <circle cx="339.5" cy="767.5" r="1.5" transform="rotate(-180 339.5 767.5)"/>
    <circle cx="1459.5" cy="767.5" r="1.5" transform="rotate(-180 1459.5 767.5)"/>
    <circle cx="564" cy="768" r="1" transform="rotate(-180 564 768)"/>
    <circle cx="1011.5" cy="767.5" r="1.5" transform="rotate(-180 1011.5 767.5)"/>
    <circle cx="116" cy="768" r="2" transform="rotate(-180 116 768)"/>
    <circle cx="2.5" cy="767.5" r="1.5" transform="rotate(-180 2.5 767.5)"/>
    <circle cx="3" cy="497" r="1"/>
    <circle cx="900" cy="497" r="2"/>
    <circle cx="451.5" cy="497.5" r="1.5"/>
    <circle cx="1347.5" cy="497.5" r="1.5"/>
    <circle cx="227.5" cy="497.5" r="1.5"/>
    <circle cx="1124" cy="497" r="2"/>
    <circle cx="676" cy="497" r="2"/>
    <circle cx="1572" cy="497" r="1"/>
    <circle cx="58.5" cy="497.5" r=".5"/>
    <circle cx="956" cy="497" r="2"/>
    <circle cx="507.5" cy="497.5" r="1.5"/>
    <circle cx="1403.5" cy="497.5" r="1.5"/>
    <circle cx="283.5" cy="497.5" r="1.5"/>
    <circle cx="1180" cy="497" r="1"/>
    <circle cx="731.5" cy="497.5" r="1.5"/>
    <circle cx="1627.5" cy="497.5" r="1.5"/>
    <circle cx="115.5" cy="497.5" r=".5"/>
    <circle cx="1011.5" cy="497.5" r="1.5"/>
    <circle cx="563.5" cy="497.5" r="1.5"/>
    <circle cx="1459.5" cy="497.5" r=".5"/>
    <circle cx="339.5" cy="497.5" r="1.5"/>
    <circle cx="1235.5" cy="497.5" r="1.5"/>
    <circle cx="787.5" cy="497.5" r="1.5"/>
    <circle cx="1683.5" cy="497.5" r="1.5"/>
    <circle cx="1797" cy="497" r="2"/>
    <circle cx="172" cy="497" r="1"/>
    <circle cx="1067.5" cy="497.5" r="1.5"/>
    <circle cx="620" cy="497" r="2"/>
    <circle cx="1515.5" cy="497.5" r=".5"/>
    <circle cx="395.5" cy="497.5" r="1.5"/>
    <circle cx="1291.5" cy="497.5" r="1.5"/>
    <circle cx="843.5" cy="497.5" r="1.5"/>
    <circle cx="1739.5" cy="497.5" r="2.5"/>
    <circle cx="1852.5" cy="497.5" r="2.5"/>
    <circle cx="1853" cy="542" r="1" transform="rotate(-180 1853 542)"/>
    <circle cx="956" cy="542" r="2" transform="rotate(-180 956 542)"/>
    <circle cx="1403.5" cy="542.5" r="1.5" transform="rotate(-180 1403.5 542.5)"/>
    <circle cx="507.5" cy="542.5" r="1.5" transform="rotate(-180 507.5 542.5)"/>
    <circle cx="1627.5" cy="542.5" r="1.5" transform="rotate(-180 1627.5 542.5)"/>
    <circle cx="732" cy="542" r="2" transform="rotate(-180 732 542)"/>
    <circle cx="1180" cy="542" r="2" transform="rotate(-180 1180 542)"/>
    <circle cx="284" cy="542" r="1" transform="rotate(-180 284 542)"/>
    <circle cx="1796.5" cy="542.5" r=".5" transform="rotate(-180 1796.5 542.5)"/>
    <circle cx="900" cy="542" r="2" transform="rotate(-180 900 542)"/>
    <circle cx="1347.5" cy="542.5" r="1.5" transform="rotate(-180 1347.5 542.5)"/>
    <circle cx="451.5" cy="542.5" r="1.5" transform="rotate(-180 451.5 542.5)"/>
    <circle cx="1571.5" cy="542.5" r="1.5" transform="rotate(-180 1571.5 542.5)"/>
    <circle cx="676" cy="542" r="1" transform="rotate(-180 676 542)"/>
    <circle cx="1123.5" cy="542.5" r="1.5" transform="rotate(-180 1123.5 542.5)"/>
    <circle cx="227.5" cy="542.5" r="1.5" transform="rotate(-180 227.5 542.5)"/>
    <circle cx="1739.5" cy="542.5" r=".5" transform="rotate(-180 1739.5 542.5)"/>
    <circle cx="843.5" cy="542.5" r="1.5" transform="rotate(-180 843.5 542.5)"/>
    <circle cx="1291.5" cy="542.5" r="1.5" transform="rotate(-180 1291.5 542.5)"/>
    <circle cx="395.5" cy="542.5" r=".5" transform="rotate(-180 395.5 542.5)"/>
    <circle cx="1515.5" cy="542.5" r="1.5" transform="rotate(-180 1515.5 542.5)"/>
    <circle cx="619.5" cy="542.5" r="1.5" transform="rotate(-180 619.5 542.5)"/>
    <circle cx="1067.5" cy="542.5" r="1.5" transform="rotate(-180 1067.5 542.5)"/>
    <circle cx="171.5" cy="542.5" r="1.5" transform="rotate(-180 171.5 542.5)"/>
    <circle cx="59" cy="542" r="2" transform="rotate(-180 59 542)"/>
    <circle cx="1684" cy="542" r="1" transform="rotate(-180 1684 542)"/>
    <circle cx="787.5" cy="542.5" r="1.5" transform="rotate(-180 787.5 542.5)"/>
    <circle cx="1236" cy="542" r="2" transform="rotate(-180 1236 542)"/>
    <circle cx="339.5" cy="542.5" r=".5" transform="rotate(-180 339.5 542.5)"/>
    <circle cx="1459.5" cy="542.5" r="1.5" transform="rotate(-180 1459.5 542.5)"/>
    <circle cx="563.5" cy="542.5" r="1.5" transform="rotate(-180 563.5 542.5)"/>
    <circle cx="1011.5" cy="542.5" r="1.5" transform="rotate(-180 1011.5 542.5)"/>
    <circle cx="115.5" cy="542.5" r="2.5" transform="rotate(-180 115.5 542.5)"/>
    <circle cx="2.5" cy="542.5" r="2.5" transform="rotate(-180 2.5 542.5)"/>
    <circle cx="1853" cy="722" r="1" transform="rotate(-180 1853 722)"/>
    <circle cx="956" cy="722" r="2" transform="rotate(-180 956 722)"/>
    <circle cx="1403.5" cy="722.5" r="1.5" transform="rotate(-180 1403.5 722.5)"/>
    <circle cx="507.5" cy="722.5" r="1.5" transform="rotate(-180 507.5 722.5)"/>
    <circle cx="1627.5" cy="722.5" r="1.5" transform="rotate(-180 1627.5 722.5)"/>
    <circle cx="732" cy="722" r="2" transform="rotate(-180 732 722)"/>
    <circle cx="1180" cy="722" r="2" transform="rotate(-180 1180 722)"/>
    <circle cx="284" cy="722" r="1" transform="rotate(-180 284 722)"/>
    <circle cx="1796.5" cy="722.5" r=".5" transform="rotate(-180 1796.5 722.5)"/>
    <circle cx="900" cy="722" r="2" transform="rotate(-180 900 722)"/>
    <circle cx="1347.5" cy="722.5" r="1.5" transform="rotate(-180 1347.5 722.5)"/>
    <circle cx="451.5" cy="722.5" r="1.5" transform="rotate(-180 451.5 722.5)"/>
    <circle cx="1571.5" cy="722.5" r="1.5" transform="rotate(-180 1571.5 722.5)"/>
    <circle cx="676" cy="722" r="1" transform="rotate(-180 676 722)"/>
    <circle cx="1123.5" cy="722.5" r="1.5" transform="rotate(-180 1123.5 722.5)"/>
    <circle cx="227.5" cy="722.5" r="1.5" transform="rotate(-180 227.5 722.5)"/>
    <circle cx="1739.5" cy="722.5" r=".5" transform="rotate(-180 1739.5 722.5)"/>
    <circle cx="843.5" cy="722.5" r="1.5" transform="rotate(-180 843.5 722.5)"/>
    <circle cx="1291.5" cy="722.5" r="1.5" transform="rotate(-180 1291.5 722.5)"/>
    <circle cx="395.5" cy="722.5" r=".5" transform="rotate(-180 395.5 722.5)"/>
    <circle cx="1515.5" cy="722.5" r="1.5" transform="rotate(-180 1515.5 722.5)"/>
    <circle cx="619.5" cy="722.5" r="1.5" transform="rotate(-180 619.5 722.5)"/>
    <circle cx="1067.5" cy="722.5" r="1.5" transform="rotate(-180 1067.5 722.5)"/>
    <circle cx="171.5" cy="722.5" r="1.5" transform="rotate(-180 171.5 722.5)"/>
    <circle cx="59" cy="722" r="2" transform="rotate(-180 59 722)"/>
    <circle cx="1684" cy="722" r="1" transform="rotate(-180 1684 722)"/>
    <circle cx="787.5" cy="722.5" r="1.5" transform="rotate(-180 787.5 722.5)"/>
    <circle cx="1236" cy="722" r="2" transform="rotate(-180 1236 722)"/>
    <circle cx="339.5" cy="722.5" r=".5" transform="rotate(-180 339.5 722.5)"/>
    <circle cx="1459.5" cy="722.5" r="1.5" transform="rotate(-180 1459.5 722.5)"/>
    <circle cx="563.5" cy="722.5" r="1.5" transform="rotate(-180 563.5 722.5)"/>
    <circle cx="1011.5" cy="722.5" r="1.5" transform="rotate(-180 1011.5 722.5)"/>
    <circle cx="115.5" cy="722.5" r="2.5" transform="rotate(-180 115.5 722.5)"/>
    <circle cx="2.5" cy="722.5" r="2.5" transform="rotate(-180 2.5 722.5)"/>
  </g>
</svg>
