<svg width="32" height="21" fill="none" xmlns="http://www.w3.org/2000/svg">
  <path d="M11.013 0h12.103a.818.818 0 0 1-.159.45c-.41.713-.778 1.456-1.18 2.17-.574 1.022-1.103 2.069-1.681 3.09-.367.734-.78 1.446-1.172 2.168h-7.056c-.122 0-.244.007-.367.014-.103.275-.273.52-.41.773-.18.296-.325.611-.502.907-.187.397-.446.753-.635 1.144-.39.671-.753 1.353-1.134 2.031a77.762 77.762 0 0 0-1.165 2.11 9.578 9.578 0 0 0-.444.782c-.796 1.412-1.566 2.832-2.363 4.237a1.707 1.707 0 0 1-.264.416c-1.363-.01-2.725 0-4.087 0a2.056 2.056 0 0 0-.497.07c0-.382.252-.688.422-1.007.205-.432.478-.832.684-1.265 1.633-2.968 3.248-5.946 4.876-8.916.369-.645.685-1.304 1.056-1.937.463-.832.894-1.683 1.377-2.506.153-.345.36-.66.53-.996.6-1.086 1.188-2.177 1.787-3.263.07-.17.165-.33.281-.472Z" fill="#EB4A60"/>
  <path d="M25.038 4.37c.806-1.43 1.584-2.877 2.402-4.302h4.371a.89.89 0 0 1 .189.03c-.146.224-.268.462-.396.695a2238.532 2238.532 0 0 0-3.153 5.77c-.44.783-.85 1.585-1.297 2.364l-.044.016-.008.097a3761.255 3761.255 0 0 0-6.146 11.247c-4.013.003-8.028.005-12.045.005.229-.485.499-.949.753-1.42 1.147-2.14 2.32-4.257 3.447-6.392 2.465-.005 4.93-.005 7.397 0 1.523-2.699 3.014-5.411 4.526-8.11h.004Z" fill="#595FB5"/>
</svg>
