<svg width="20" height="32" fill="none" xmlns="http://www.w3.org/2000/svg">
  <path d="M13.56 9.846c0-4.594-2.214-8.548-3.9-9.832 0 0-.13-.073-.116.114C9.406 9 4.917 11.402 2.452 14.638c-5.69 7.474-.404 15.669 4.991 17.18 3.008.85-.699-1.5-1.176-6.458-.586-5.98 7.293-10.553 7.293-15.514Z" fill="#1B2143"/>
  <path d="M16.145 12.865c-.037-.022-.084-.04-.117.019-.095 1.114-1.22 3.501-2.654 5.697-4.85 7.44-2.086 11.027-.532 12.958.903 1.114 0 0 2.254-1.144a10.29 10.29 0 0 0 4.86-7.944c.448-5.286-2.694-8.618-3.811-9.586Z" fill="#2CA6E0"/>
</svg>
