<svg width="32" height="25" fill="none" xmlns="http://www.w3.org/2000/svg">
  <path d="M15.004.034a15.897 15.897 0 0 1 8.08 1.61c3.67 1.791 6.593 5.037 7.976 8.862.61 1.688.94 3.48.94 5.27v6.665c0 .268.008.554-.053.814a2.24 2.24 0 0 1-1.27 1.549c-.443.208-.948.234-1.417.156-1.027-.19-1.81-1.143-1.827-2.173-.009-2.068 0-4.128 0-6.205.018-.589.018-1.212-.304-1.731-.513-.952-1.775-1.41-2.784-1.004-.852.303-1.478 1.16-1.487 2.068-.009 2.104 0 4.198 0 6.292 0 .39.017.797-.096 1.169a2.318 2.318 0 0 1-1.574 1.54c-.974.269-2.096-.155-2.592-1.056-.34-.545-.313-1.194-.304-1.791-.009-2.086.008-4.172-.009-6.257-.017-1.056-.896-2.008-1.957-2.147a2.268 2.268 0 0 0-1.905.606 2.266 2.266 0 0 0-.704 1.644v6.076c-.01.51.052 1.039-.14 1.515-.304.865-1.182 1.506-2.113 1.48-.948.052-1.879-.598-2.183-1.489-.166-.441-.13-.909-.13-1.376 0-2.095.008-4.19 0-6.292-.01-1.039-.818-1.982-1.845-2.173-.922-.199-1.948.269-2.418 1.1-.2.346-.304.744-.304 1.142v6.82a2.268 2.268 0 0 1-.81 1.74c-.773.675-2.017.71-2.835.095A2.166 2.166 0 0 1 0 22.76v-6.889c.009-2.605.67-5.21 1.914-7.495a16.18 16.18 0 0 1 4.105-4.873 16.05 16.05 0 0 1 8.985-3.47Z" fill="#5841D8"/>
</svg>
